<?xml version="1.0" encoding="UTF-8" standalone="no"?>
<!-- Created with Inkscape (http://www.inkscape.org/) -->

<svg
   xmlns:dc="http://purl.org/dc/elements/1.1/"
   xmlns:cc="http://creativecommons.org/ns#"
   xmlns:rdf="http://www.w3.org/1999/02/22-rdf-syntax-ns#"
   xmlns:svg="http://www.w3.org/2000/svg"
   xmlns="http://www.w3.org/2000/svg"
   xmlns:sodipodi="http://sodipodi.sourceforge.net/DTD/sodipodi-0.dtd"
   xmlns:inkscape="http://www.inkscape.org/namespaces/inkscape"
   width="210mm"
   height="297mm"
   viewBox="0 0 210 297"
   version="1.1"
   id="svg2107"
   inkscape:version="0.92.2 (5c3e80d, 2017-08-06)"
   sodipodi:docname="Border.svg">
  <defs
     id="defs2101" />
  <sodipodi:namedview
     id="base"
     pagecolor="#ffffff"
     bordercolor="#666666"
     borderopacity="1.0"
     inkscape:pageopacity="0.0"
     inkscape:pageshadow="2"
     inkscape:zoom="0.35"
     inkscape:cx="-64.285714"
     inkscape:cy="560"
     inkscape:document-units="mm"
     inkscape:current-layer="layer1"
     showgrid="false"
     inkscape:window-width="1366"
     inkscape:window-height="715"
     inkscape:window-x="-8"
     inkscape:window-y="-8"
     inkscape:window-maximized="1" />
  <metadata
     id="metadata2104">
    <rdf:RDF>
      <cc:Work
         rdf:about="">
        <dc:format>image/svg+xml</dc:format>
        <dc:type
           rdf:resource="http://purl.org/dc/dcmitype/StillImage" />
        <dc:title></dc:title>
      </cc:Work>
    </rdf:RDF>
  </metadata>
  <g
     inkscape:label="Layer 1"
     inkscape:groupmode="layer"
     id="layer1">
    <path
       style="display:inline;opacity:1;fill:#ffffff;fill-opacity:1;fill-rule:evenodd;stroke:#000000;stroke-width:0.1;stroke-linecap:round;stroke-linejoin:round;stroke-miterlimit:4;stroke-dasharray:none;stroke-dashoffset:0;stroke-opacity:1"
       d="m 117.60719,63.185186 c -1.35253,-2.2e-4 -2.69979,0.0297 -3.13055,0.0899 -0.80259,0.11209 -2.62364,0.57812 -3.5042,0.8971 -1.43568,0.52008 -3.55407,1.69987 -4.73718,2.63756 -0.57668,0.45706 -1.8555,1.71207 -2.29132,2.24896 -0.20441,0.25182 -0.39592,0.45785 -0.42582,0.45785 -0.0299,0 -0.37674,-0.18216 -0.77049,-0.40514 -0.39375,-0.22299 -0.75904,-0.38927 -0.81185,-0.36897 -0.21426,0.0822 -0.0387,0.5117 0.51885,1.26866 0.37616,0.51072 0.39754,0.60635 0.19997,0.88625 -0.53991,0.76502 -1.14937,2.38402 -1.51204,4.01629 -0.0209,0.0945 -0.44566,0.48591 -1.04283,0.96118 -1.367259,1.08818 -1.753392,1.51406 -3.192063,3.51555 -0.894742,1.24478 -1.636131,3.12593 -2.059305,5.22759 -0.490168,2.43433 -0.540412,6.00718 -0.111628,7.90132 0.603356,2.66509 1.925399,4.93979 3.981159,6.8492 0.390419,0.36262 1.162182,1.105944 1.714637,1.651584 0.55366,0.54684 1.25081,1.15416 1.55339,1.3534 1.7512,1.15314 4.1298,2.0028 6.48383,2.32596 -0.75909,1.40234 -1.36689,2.89417 -1.79523,4.45503 -2.40535,0.98906 -4.56604,2.43815 -6.48747,4.35063 -1.267016,1.26112 -1.829414,1.94246 -2.752783,3.3352 -0.939483,1.41692 -2.02139,3.60802 -2.364211,4.7873 -0.105304,0.36225 -0.2168,0.52353 -0.731229,1.06144 -1.132549,1.18428 -1.826286,2.26619 -2.191597,3.41788 -0.325464,1.02611 -0.323135,1.7721 0.01614,2.61069 -0.419391,1.72728 -0.13163,3.62412 0.954458,5.21364 1.031504,1.50967 2.71698,2.55953 4.561469,2.84168 0.551022,0.0843 1.951011,-0.0329 2.570403,-0.21497 1.34998,-0.39674 2.51933,-1.21019 3.37084,-2.28772 -0.40955,0.98196 -0.73043,1.74245 -2.10632,4.98626 -0.23072,0.54392 -0.51795,1.20314 -0.6382,1.46503 -0.0943,0.20549 -0.16304,0.37984 -0.21241,0.5364 -1.686267,0.33168 -3.434924,0.28359 -5.117516,-0.17518 -2.015939,-0.54968 -4.348533,-2.0417 -5.643059,-3.6096 -1.85211,-2.24324 -2.71198,-4.8204 -2.590536,-7.76335 0.08273,-2.00538 0.573537,-3.68131 1.547707,-5.28495 0.208359,-0.34303 0.378777,-0.67205 0.378777,-0.7307 0,-0.16128 -7.86257,-5.61662 -8.110087,-5.62705 -0.289851,-0.0122 -0.850953,0.82901 -1.73736,2.60449 -1.54694,3.09846 -2.239672,6.0408 -2.239672,9.51105 0,4.98748 1.528657,9.39714 4.630208,13.35629 0.980864,1.25205 2.473855,2.66964 3.959464,3.80597 H 71.743939 c -2.951321,0 -5.327332,2.3755 -5.327332,5.3268 v 5.42293 c 0,2.9513 2.376011,5.32733 5.327332,5.32733 h 89.345451 c 2.9513,0 5.32734,-2.37603 5.32734,-5.32733 v -5.42293 c 0,-2.9513 -2.37604,-5.3268 -5.32734,-5.3268 h -6.22287 c -0.005,-0.0337 -0.0116,-0.10014 -0.0161,-0.11989 -0.0396,-0.19322 -0.18835,-0.28991 -0.44595,-0.28991 -0.36166,0 -0.90628,0.0102 -1.63454,0.03 -0.72827,0.0198 -1.27339,0.0295 -1.63505,0.0295 -0.36661,0 -0.91908,-0.01 -1.65724,-0.0295 -0.73324,-0.0198 -1.28292,-0.03 -1.64952,-0.03 -0.13378,0 -0.19595,0.0571 -0.18603,0.17105 l 0.007,0.10439 c 0.003,0.0596 0.003,0.077 0.006,0.13436 h -12.09638 c 0.15137,-0.0149 0.20598,-0.0833 0.36071,-0.39636 0.27644,-0.55945 0.26514,-0.79117 -0.0553,-1.10174 -0.24821,-0.24056 -0.25752,-0.26805 -0.21291,-0.62477 l 0.0465,-0.37259 -0.37312,-0.31264 c -0.25352,-0.21226 -0.37309,-0.36766 -0.37309,-0.48421 0,-0.33937 -0.1456,-0.53822 -0.64957,-0.8878 l -0.51263,-0.35502 0.0413,-0.55138 c 0.0357,-0.47868 0.0167,-0.60896 -0.14211,-0.98909 -0.10054,-0.24076 -0.47183,-1.13 -0.82526,-1.97611 -0.68466,-1.63904 -1.22288,-3.07798 -1.79419,-4.79815 -0.51591,-1.55311 -0.51097,-1.49213 -0.14214,-1.72496 l 0.30801,-0.19431 -0.0506,-1.03663 c -0.0545,-1.10993 -0.14291,-2.14378 -0.26356,-3.08766 -0.0412,-0.32233 -0.15576,-1.22919 -0.25476,-2.01486 -0.21024,-1.66796 -0.28766,-2.21196 -0.48525,-3.40652 -0.14647,-0.88558 -0.24789,-1.69492 -0.30438,-2.37091 0.81656,-0.35473 1.56017,-0.88085 2.19575,-1.56735 0.0919,-0.0993 0.18048,-0.20024 0.26509,-0.30282 0.24405,0.3254 0.47165,0.66946 0.67852,1.03249 0.37661,0.66089 0.9357,2.06706 1.13017,2.84272 l 0.14727,0.58602 -0.19741,0.14624 c -0.60213,0.44752 -0.75602,0.63475 -0.75602,0.91881 0,0.30653 0.2154,0.62408 0.54208,0.79891 0.10464,0.056 0.19069,0.1599 0.19069,0.231 0,0.0711 -0.16793,0.33772 -0.37309,0.59221 -1.10802,1.37434 -1.12202,2.47954 -0.047,3.79615 0.3194,0.39118 0.32996,0.41952 0.36227,1.00459 0.0279,0.5063 0.0759,0.68868 0.30125,1.14463 0.32152,0.65055 0.68612,0.95428 1.73426,1.44436 0.64225,0.30034 0.74126,0.32508 1.2821,0.32453 0.72107,-8e-4 1.05441,-0.0973 1.63867,-0.47491 0.39555,-0.25563 0.50821,-0.29352 0.87487,-0.29352 0.75382,0 1.45145,-0.42207 3.06131,-1.8526 0.87177,-0.77466 1.22237,-1.20064 1.42988,-1.73685 0.18886,-0.48802 0.20892,-1.26174 0.0465,-1.79472 -0.11702,-0.38408 -0.95194,-2.04241 -1.27124,-2.52491 l -0.18603,-0.28112 0.25839,-0.33848 c 0.41111,-0.53866 0.43747,-0.99719 0.0817,-1.42007 -0.27868,-0.33118 -0.73422,-0.50631 -1.58183,-0.60771 -0.41948,-0.0502 -0.80175,-0.12058 -0.84956,-0.15658 -0.0478,-0.036 -0.10943,-0.17053 -0.13694,-0.29869 -0.0809,-0.37702 -0.52388,-1.69906 -0.81132,-2.42104 -0.31959,-0.80272 -0.78007,-1.71094 -1.29397,-2.57711 0.17224,0.0936 9.10238,1.67271 9.46816,1.6738 0.34132,10e-4 0.37561,-0.0778 0.52142,-1.20147 0.26516,-2.04346 0.0786,-5.34743 -0.41963,-7.43159 l -0.20257,-0.84853 0.45371,-0.31212 c 1.02415,-0.70462 1.59888,-1.53014 1.84796,-2.65411 l 0.12507,-0.56379 0.94617,-0.0315 0.94621,-0.0315 0.0584,-0.34933 c 0.0321,-0.19234 0.0708,-0.59506 0.0858,-0.89452 l 0.0274,-0.54415 0.40825,-0.0341 c 0.2246,-0.0186 0.41976,-0.0429 0.43357,-0.0543 0.0138,-0.0113 0.0505,-3.00756 0.0817,-6.658514 l 0.0563,-6.63835 0.92604,-0.35915 c 0.50906,-0.19768 0.98653,-0.44195 1.06143,-0.5426 0.1415,-0.19017 0.18196,-1.1033 0.0677,-1.52963 -0.0361,-0.13474 -0.14613,-0.24728 -0.24392,-0.24908 -0.0978,-0.002 -0.66709,-0.16391 -1.26555,-0.35915 l -1.08831,-0.35502 -0.0801,-0.55603 c -0.12214,-0.84849 -0.46818,-1.65697 -0.99531,-2.32648 -0.45622,-0.57949 -1.38785,-1.29866 -1.8805,-1.45159 -0.18976,-0.0589 -0.2408,-0.17823 -0.28059,-0.65887 -0.0385,-0.46376 -0.12121,-0.66978 -0.39431,-0.98082 -0.3828,-0.43598 -0.42434,-0.62096 -0.185,-0.81959 0.23635,-0.19612 0.32166,-0.82456 0.16383,-1.20561 -0.48363,-1.16757 -2.19144,-0.9521 -2.35905,0.29766 -0.0458,0.34177 -0.007,0.54603 0.15658,0.817 0.24971,0.41454 0.22289,0.55081 -0.20669,1.04541 -0.24718,0.28467 -0.31057,0.46264 -0.31057,0.87179 v 0.51418 l -0.57102,0.26148 c -1.22177,0.56049 -2.36033,2.11905 -2.54043,3.47679 -0.0407,0.30669 -0.12906,0.60209 -0.19637,0.65629 -0.1479,0.11913 -1.78369,0.68148 -2.1885,0.76068 -0.1451,-3.7401 -1.16459,-7.06608 -2.85512,-9.23355 -0.5984,-0.76725 -3.20611,-3.41022 -3.81836,-3.87005 -0.3706,-0.27833 -0.43648,-0.3668 -0.54054,-0.72864 -0.45231,-1.57262 -1.41198,-3.37119 -2.52595,-4.73408 -1.66622,-2.03851 -4.31692,-3.8659 -7.09724,-4.8922 -0.89469,-0.33025 -2.58035,-0.76085 -3.41426,-0.8723 -0.4513,-0.0603 -1.80904,-0.0907 -3.16156,-0.091 z m 23.41046,26.39735 c 0.2132,0.0982 0.53576,0.23097 0.88313,0.35915 l 0.96739,0.35709 0.0284,4.86895 c 0.0156,2.67791 0.007,4.868964 -0.0196,4.868964 -0.0265,0 -0.35732,-0.298184 -0.73586,-0.662504 -0.98803,-0.95087 -2.05867,-1.79551 -3.19259,-2.52852 0.69376,-1.26525 1.22325,-2.65347 1.60457,-4.20027 0.27969,-1.13459 0.41539,-2.00216 0.46458,-3.06286 z m -10.34822,14.471994 c 3.42225,1.07485 6.2503,3.7639 7.3856,7.36389 0.40627,1.28858 0.55142,2.49864 0.48472,4.04471 -0.0302,0.70018 -0.0209,1.20288 0.0228,1.35858 -0.35131,-0.58845 -0.7261,-1.15669 -1.10019,-1.65572 -0.78584,-1.04827 -2.44549,-2.71122 -3.4458,-3.45301 -0.50652,-0.37562 -1.03055,-0.71941 -1.56837,-1.03767 -0.49279,-0.62605 -1.1112,-1.18319 -1.85415,-1.63297 -0.99203,-0.60058 -1.91947,-0.85996 -3.13624,-0.88109 -0.0175,-0.0173 -0.035,-0.0354 -0.0522,-0.0481 -0.1306,-0.0959 -2.89716,-0.86971 -3.10938,-0.86971 -0.0281,0 -0.84593,-1.0192 -0.84593,-1.0542 0,-0.0853 1.29728,-0.56344 1.72599,-0.63614 2.07396,-0.35185 3.88358,-0.84431 5.4932,-1.49861 z m -27.66031,15.14895 c -0.13023,0.3687 -0.22088,0.63923 -0.21035,0.65628 0.0336,0.0543 0.48835,0.31954 1.01029,0.58912 0.75536,0.39012 1.45576,0.86657 2.09444,1.41024 -0.33187,1.62979 -0.85214,3.69922 -1.44383,5.73609 -0.40103,-0.81116 -1.0632,-1.73361 -1.64074,-2.24276 -0.36869,-0.32504 -0.78639,-0.60586 -1.23248,-0.83974 -0.0539,-0.0622 -0.1093,-0.11978 -0.16536,-0.17157 l -0.24598,-0.22737 0.15192,-0.70125 c 0.30721,-1.41786 0.94001,-2.97597 1.68209,-4.20904 z m 15.06677,19.62722 c 0.48726,0.74388 1.10377,2.29788 1.51826,3.86901 0.26422,1.00159 0.70641,2.99923 0.70641,3.19257 0,0.10472 -0.10678,0.24938 -0.293,0.39688 -0.34345,0.27201 -0.35808,0.3533 -0.10543,0.59066 0.13599,0.12778 0.1719,0.17376 0.16227,0.46509 h -4.97335 c 0.12592,-0.21526 0.0833,-0.35111 -0.15036,-0.59221 l -0.23204,-0.23927 0.12091,-0.27698 c 0.0667,-0.15235 0.2349,-0.83745 0.37365,-1.52239 0.11708,-0.57811 0.22365,-1.07595 0.32657,-1.53892 1.00433,-1.32775 1.85963,-2.78255 2.54611,-4.34444 z"
       id="rect2075"
       inkscape:connector-curvature="0"
       sodipodi:nodetypes="cscscsccccccccccccccccscccccccccccsccsccsccssssssssccssscscccccccccscccccccccccccccccccscscccccccsccccccccccccccccccccccccccccccccccccccccccccsccccccccscccccccscccccccccccsccssccccscccccccccsccccccccccccc" />
  </g>
</svg>
