M48
;DRILL file {KiCad (5.0.2)-1} date 8/6/2019 6:47:09 AM
;FORMAT={-:-/ absolute / inch / decimal}
FMAT,2
INCH,TZ
T1C0.0157
T2C0.0300
T3C0.0315
T4C0.0354
T5C0.0394
T6C0.0591
T7C0.1535
%
G90
G05
T1
X4.7352Y-5.435
X5.0915Y-5.3947
X5.2028Y-5.0246
X5.2746Y-5.1122
X5.3563Y-5.1693
X5.373Y-5.062
X5.4577Y-5.2815
X5.6447Y-5.0492
X5.7894Y-5.3543
X5.8317Y-5.4636
X6.003Y-4.9439
X6.0945Y-5.1102
X6.2087Y-5.1467
X6.4291Y-5.0915
T2
X5.6226Y-5.1974
X5.6226Y-5.2974
X5.6226Y-5.3974
X5.6226Y-5.4974
X5.9226Y-5.1974
X5.9226Y-5.2974
X5.9226Y-5.3974
X5.9226Y-5.4974
T3
X6.2815Y-5.202
X6.2815Y-5.502
X6.8211Y-5.435
X7.1211Y-5.435
X5.2795Y-5.199
X5.2795Y-5.499
T4
X5.4311Y-2.8415
X5.5311Y-2.8415
X5.6311Y-2.8415
X5.9872Y-2.8494
X6.0872Y-2.8494
X6.1872Y-2.8494
T5
X4.8681Y-5.247
X4.8681Y-5.347
X4.8681Y-5.447
X4.9681Y-5.247
X4.9681Y-5.347
X4.9681Y-5.447
T6
X5.8022Y-3.502
X5.8022Y-4.3087
T7
X5.7825Y-1.9006
T0
M30
