G04 #@! TF.GenerationSoftware,KiCad,Pcbnew,(5.0.2)-1*
G04 #@! TF.CreationDate,2019-08-06T06:47:22-04:00*
G04 #@! TF.ProjectId,LuffyBadge2019_BSides,4c756666-7942-4616-9467-65323031395f,rev?*
G04 #@! TF.SameCoordinates,Original*
G04 #@! TF.FileFunction,Soldermask,Bot*
G04 #@! TF.FilePolarity,Negative*
%FSLAX46Y46*%
G04 Gerber Fmt 4.6, Leading zero omitted, Abs format (unit mm)*
G04 Created by KiCad (PCBNEW (5.0.2)-1) date 8/6/2019 6:47:22 AM*
%MOMM*%
%LPD*%
G01*
G04 APERTURE LIST*
%ADD10C,0.100000*%
G04 APERTURE END LIST*
D10*
G36*
X150557988Y-138636304D02*
X150727710Y-138670063D01*
X150910336Y-138745709D01*
X151074694Y-138855530D01*
X151214470Y-138995306D01*
X151324291Y-139159664D01*
X151399937Y-139342290D01*
X151438500Y-139536164D01*
X151438500Y-139733836D01*
X151399937Y-139927710D01*
X151324291Y-140110336D01*
X151214470Y-140274694D01*
X151074694Y-140414470D01*
X150910336Y-140524291D01*
X150727710Y-140599937D01*
X150557988Y-140633696D01*
X150533837Y-140638500D01*
X150336163Y-140638500D01*
X150312012Y-140633696D01*
X150142290Y-140599937D01*
X149959664Y-140524291D01*
X149795306Y-140414470D01*
X149655530Y-140274694D01*
X149545709Y-140110336D01*
X149470063Y-139927710D01*
X149431500Y-139733836D01*
X149431500Y-139536164D01*
X149470063Y-139342290D01*
X149545709Y-139159664D01*
X149655530Y-138995306D01*
X149795306Y-138855530D01*
X149959664Y-138745709D01*
X150142290Y-138670063D01*
X150312012Y-138636304D01*
X150336163Y-138631500D01*
X150533837Y-138631500D01*
X150557988Y-138636304D01*
X150557988Y-138636304D01*
G37*
G36*
X142937988Y-138636304D02*
X143107710Y-138670063D01*
X143290336Y-138745709D01*
X143454694Y-138855530D01*
X143594470Y-138995306D01*
X143704291Y-139159664D01*
X143779937Y-139342290D01*
X143818500Y-139536164D01*
X143818500Y-139733836D01*
X143779937Y-139927710D01*
X143704291Y-140110336D01*
X143594470Y-140274694D01*
X143454694Y-140414470D01*
X143290336Y-140524291D01*
X143107710Y-140599937D01*
X142937988Y-140633696D01*
X142913837Y-140638500D01*
X142716163Y-140638500D01*
X142692012Y-140633696D01*
X142522290Y-140599937D01*
X142339664Y-140524291D01*
X142175306Y-140414470D01*
X142035530Y-140274694D01*
X141925709Y-140110336D01*
X141850063Y-139927710D01*
X141811500Y-139733836D01*
X141811500Y-139536164D01*
X141850063Y-139342290D01*
X141925709Y-139159664D01*
X142035530Y-138995306D01*
X142175306Y-138855530D01*
X142339664Y-138745709D01*
X142522290Y-138670063D01*
X142692012Y-138636304D01*
X142716163Y-138631500D01*
X142913837Y-138631500D01*
X142937988Y-138636304D01*
X142937988Y-138636304D01*
G37*
G36*
X159798228Y-138931703D02*
X159953100Y-138995853D01*
X160092481Y-139088985D01*
X160211015Y-139207519D01*
X160304147Y-139346900D01*
X160368297Y-139501772D01*
X160401000Y-139666184D01*
X160401000Y-139833816D01*
X160368297Y-139998228D01*
X160304147Y-140153100D01*
X160211015Y-140292481D01*
X160092481Y-140411015D01*
X159953100Y-140504147D01*
X159798228Y-140568297D01*
X159633816Y-140601000D01*
X159466184Y-140601000D01*
X159301772Y-140568297D01*
X159146900Y-140504147D01*
X159007519Y-140411015D01*
X158888985Y-140292481D01*
X158795853Y-140153100D01*
X158731703Y-139998228D01*
X158699000Y-139833816D01*
X158699000Y-139666184D01*
X158731703Y-139501772D01*
X158795853Y-139346900D01*
X158888985Y-139207519D01*
X159007519Y-139088985D01*
X159146900Y-138995853D01*
X159301772Y-138931703D01*
X159466184Y-138899000D01*
X159633816Y-138899000D01*
X159798228Y-138931703D01*
X159798228Y-138931703D01*
G37*
G36*
X134348228Y-138856703D02*
X134503100Y-138920853D01*
X134642481Y-139013985D01*
X134761015Y-139132519D01*
X134854147Y-139271900D01*
X134918297Y-139426772D01*
X134951000Y-139591184D01*
X134951000Y-139758816D01*
X134918297Y-139923228D01*
X134854147Y-140078100D01*
X134761015Y-140217481D01*
X134642481Y-140336015D01*
X134503100Y-140429147D01*
X134348228Y-140493297D01*
X134183816Y-140526000D01*
X134016184Y-140526000D01*
X133851772Y-140493297D01*
X133696900Y-140429147D01*
X133557519Y-140336015D01*
X133438985Y-140217481D01*
X133345853Y-140078100D01*
X133281703Y-139923228D01*
X133249000Y-139758816D01*
X133249000Y-139591184D01*
X133281703Y-139426772D01*
X133345853Y-139271900D01*
X133438985Y-139132519D01*
X133557519Y-139013985D01*
X133696900Y-138920853D01*
X133851772Y-138856703D01*
X134016184Y-138824000D01*
X134183816Y-138824000D01*
X134348228Y-138856703D01*
X134348228Y-138856703D01*
G37*
G36*
X126300443Y-137460519D02*
X126366627Y-137467037D01*
X126479853Y-137501384D01*
X126536467Y-137518557D01*
X126633337Y-137570336D01*
X126692991Y-137602222D01*
X126728729Y-137631552D01*
X126830186Y-137714814D01*
X126913448Y-137816271D01*
X126942778Y-137852009D01*
X126942779Y-137852011D01*
X127026443Y-138008533D01*
X127026443Y-138008534D01*
X127077963Y-138178373D01*
X127095359Y-138355000D01*
X127077963Y-138531627D01*
X127047667Y-138631500D01*
X127026443Y-138701467D01*
X126960947Y-138824000D01*
X126942778Y-138857991D01*
X126917587Y-138888686D01*
X126830186Y-138995186D01*
X126728729Y-139078448D01*
X126692991Y-139107778D01*
X126692989Y-139107779D01*
X126536467Y-139191443D01*
X126483470Y-139207519D01*
X126366627Y-139242963D01*
X126300443Y-139249481D01*
X126234260Y-139256000D01*
X126145740Y-139256000D01*
X126079557Y-139249481D01*
X126013373Y-139242963D01*
X125896530Y-139207519D01*
X125843533Y-139191443D01*
X125687011Y-139107779D01*
X125687009Y-139107778D01*
X125651271Y-139078448D01*
X125549814Y-138995186D01*
X125462413Y-138888686D01*
X125437222Y-138857991D01*
X125419053Y-138824000D01*
X125353557Y-138701467D01*
X125332333Y-138631500D01*
X125302037Y-138531627D01*
X125284641Y-138355000D01*
X125302037Y-138178373D01*
X125353557Y-138008534D01*
X125353557Y-138008533D01*
X125437221Y-137852011D01*
X125437222Y-137852009D01*
X125466552Y-137816271D01*
X125549814Y-137714814D01*
X125651271Y-137631552D01*
X125687009Y-137602222D01*
X125746663Y-137570336D01*
X125843533Y-137518557D01*
X125900147Y-137501384D01*
X126013373Y-137467037D01*
X126079557Y-137460519D01*
X126145740Y-137454000D01*
X126234260Y-137454000D01*
X126300443Y-137460519D01*
X126300443Y-137460519D01*
G37*
G36*
X123760443Y-137460519D02*
X123826627Y-137467037D01*
X123939853Y-137501384D01*
X123996467Y-137518557D01*
X124093337Y-137570336D01*
X124152991Y-137602222D01*
X124188729Y-137631552D01*
X124290186Y-137714814D01*
X124373448Y-137816271D01*
X124402778Y-137852009D01*
X124402779Y-137852011D01*
X124486443Y-138008533D01*
X124486443Y-138008534D01*
X124537963Y-138178373D01*
X124555359Y-138355000D01*
X124537963Y-138531627D01*
X124507667Y-138631500D01*
X124486443Y-138701467D01*
X124420947Y-138824000D01*
X124402778Y-138857991D01*
X124377587Y-138888686D01*
X124290186Y-138995186D01*
X124188729Y-139078448D01*
X124152991Y-139107778D01*
X124152989Y-139107779D01*
X123996467Y-139191443D01*
X123943470Y-139207519D01*
X123826627Y-139242963D01*
X123760443Y-139249481D01*
X123694260Y-139256000D01*
X123605740Y-139256000D01*
X123539557Y-139249481D01*
X123473373Y-139242963D01*
X123356530Y-139207519D01*
X123303533Y-139191443D01*
X123147011Y-139107779D01*
X123147009Y-139107778D01*
X123111271Y-139078448D01*
X123009814Y-138995186D01*
X122922413Y-138888686D01*
X122897222Y-138857991D01*
X122879053Y-138824000D01*
X122813557Y-138701467D01*
X122792333Y-138631500D01*
X122762037Y-138531627D01*
X122744641Y-138355000D01*
X122762037Y-138178373D01*
X122813557Y-138008534D01*
X122813557Y-138008533D01*
X122897221Y-137852011D01*
X122897222Y-137852009D01*
X122926552Y-137816271D01*
X123009814Y-137714814D01*
X123111271Y-137631552D01*
X123147009Y-137602222D01*
X123206663Y-137570336D01*
X123303533Y-137518557D01*
X123360147Y-137501384D01*
X123473373Y-137467037D01*
X123539557Y-137460519D01*
X123605740Y-137454000D01*
X123694260Y-137454000D01*
X123760443Y-137460519D01*
X123760443Y-137460519D01*
G37*
G36*
X181726000Y-138901000D02*
X180024000Y-138901000D01*
X180024000Y-137199000D01*
X181726000Y-137199000D01*
X181726000Y-138901000D01*
X181726000Y-138901000D01*
G37*
G36*
X173421821Y-137211313D02*
X173421824Y-137211314D01*
X173421825Y-137211314D01*
X173582239Y-137259975D01*
X173582241Y-137259976D01*
X173582244Y-137259977D01*
X173730078Y-137338995D01*
X173859659Y-137445341D01*
X173966005Y-137574922D01*
X174045023Y-137722756D01*
X174045024Y-137722759D01*
X174045025Y-137722761D01*
X174091044Y-137874467D01*
X174093687Y-137883179D01*
X174110117Y-138050000D01*
X174093687Y-138216821D01*
X174045023Y-138377244D01*
X173966005Y-138525078D01*
X173859659Y-138654659D01*
X173730078Y-138761005D01*
X173582244Y-138840023D01*
X173582241Y-138840024D01*
X173582239Y-138840025D01*
X173421825Y-138888686D01*
X173421824Y-138888686D01*
X173421821Y-138888687D01*
X173296804Y-138901000D01*
X173213196Y-138901000D01*
X173088179Y-138888687D01*
X173088176Y-138888686D01*
X173088175Y-138888686D01*
X172927761Y-138840025D01*
X172927759Y-138840024D01*
X172927756Y-138840023D01*
X172779922Y-138761005D01*
X172650341Y-138654659D01*
X172543995Y-138525078D01*
X172464977Y-138377244D01*
X172416313Y-138216821D01*
X172399883Y-138050000D01*
X172416313Y-137883179D01*
X172418956Y-137874467D01*
X172464975Y-137722761D01*
X172464976Y-137722759D01*
X172464977Y-137722756D01*
X172543995Y-137574922D01*
X172650341Y-137445341D01*
X172779922Y-137338995D01*
X172927756Y-137259977D01*
X172927759Y-137259976D01*
X172927761Y-137259975D01*
X173088175Y-137211314D01*
X173088176Y-137211314D01*
X173088179Y-137211313D01*
X173213196Y-137199000D01*
X173296804Y-137199000D01*
X173421821Y-137211313D01*
X173421821Y-137211313D01*
G37*
G36*
X142937988Y-136096304D02*
X143107710Y-136130063D01*
X143290336Y-136205709D01*
X143454694Y-136315530D01*
X143594470Y-136455306D01*
X143704291Y-136619664D01*
X143779937Y-136802290D01*
X143813696Y-136972012D01*
X143818500Y-136996163D01*
X143818500Y-137193837D01*
X143813696Y-137217988D01*
X143779937Y-137387710D01*
X143704291Y-137570336D01*
X143594470Y-137734694D01*
X143454694Y-137874470D01*
X143290336Y-137984291D01*
X143107710Y-138059937D01*
X142937988Y-138093696D01*
X142913837Y-138098500D01*
X142716163Y-138098500D01*
X142692012Y-138093696D01*
X142522290Y-138059937D01*
X142339664Y-137984291D01*
X142175306Y-137874470D01*
X142035530Y-137734694D01*
X141925709Y-137570336D01*
X141850063Y-137387710D01*
X141816304Y-137217988D01*
X141811500Y-137193837D01*
X141811500Y-136996163D01*
X141816304Y-136972012D01*
X141850063Y-136802290D01*
X141925709Y-136619664D01*
X142035530Y-136455306D01*
X142175306Y-136315530D01*
X142339664Y-136205709D01*
X142522290Y-136130063D01*
X142692012Y-136096304D01*
X142716163Y-136091500D01*
X142913837Y-136091500D01*
X142937988Y-136096304D01*
X142937988Y-136096304D01*
G37*
G36*
X150557988Y-136096304D02*
X150727710Y-136130063D01*
X150910336Y-136205709D01*
X151074694Y-136315530D01*
X151214470Y-136455306D01*
X151324291Y-136619664D01*
X151399937Y-136802290D01*
X151433696Y-136972012D01*
X151438500Y-136996163D01*
X151438500Y-137193837D01*
X151433696Y-137217988D01*
X151399937Y-137387710D01*
X151324291Y-137570336D01*
X151214470Y-137734694D01*
X151074694Y-137874470D01*
X150910336Y-137984291D01*
X150727710Y-138059937D01*
X150557988Y-138093696D01*
X150533837Y-138098500D01*
X150336163Y-138098500D01*
X150312012Y-138093696D01*
X150142290Y-138059937D01*
X149959664Y-137984291D01*
X149795306Y-137874470D01*
X149655530Y-137734694D01*
X149545709Y-137570336D01*
X149470063Y-137387710D01*
X149436304Y-137217988D01*
X149431500Y-137193837D01*
X149431500Y-136996163D01*
X149436304Y-136972012D01*
X149470063Y-136802290D01*
X149545709Y-136619664D01*
X149655530Y-136455306D01*
X149795306Y-136315530D01*
X149959664Y-136205709D01*
X150142290Y-136130063D01*
X150312012Y-136096304D01*
X150336163Y-136091500D01*
X150533837Y-136091500D01*
X150557988Y-136096304D01*
X150557988Y-136096304D01*
G37*
G36*
X123760442Y-134920518D02*
X123826627Y-134927037D01*
X123939853Y-134961384D01*
X123996467Y-134978557D01*
X124093337Y-135030336D01*
X124152991Y-135062222D01*
X124188729Y-135091552D01*
X124290186Y-135174814D01*
X124373448Y-135276271D01*
X124402778Y-135312009D01*
X124402779Y-135312011D01*
X124486443Y-135468533D01*
X124486443Y-135468534D01*
X124537963Y-135638373D01*
X124555359Y-135815000D01*
X124537963Y-135991627D01*
X124507667Y-136091500D01*
X124486443Y-136161467D01*
X124412348Y-136300087D01*
X124402778Y-136317991D01*
X124373448Y-136353729D01*
X124290186Y-136455186D01*
X124188729Y-136538448D01*
X124152991Y-136567778D01*
X124152989Y-136567779D01*
X123996467Y-136651443D01*
X123939853Y-136668616D01*
X123826627Y-136702963D01*
X123760442Y-136709482D01*
X123694260Y-136716000D01*
X123605740Y-136716000D01*
X123539558Y-136709482D01*
X123473373Y-136702963D01*
X123360147Y-136668616D01*
X123303533Y-136651443D01*
X123147011Y-136567779D01*
X123147009Y-136567778D01*
X123111271Y-136538448D01*
X123009814Y-136455186D01*
X122926552Y-136353729D01*
X122897222Y-136317991D01*
X122887652Y-136300087D01*
X122813557Y-136161467D01*
X122792333Y-136091500D01*
X122762037Y-135991627D01*
X122744641Y-135815000D01*
X122762037Y-135638373D01*
X122813557Y-135468534D01*
X122813557Y-135468533D01*
X122897221Y-135312011D01*
X122897222Y-135312009D01*
X122926552Y-135276271D01*
X123009814Y-135174814D01*
X123111271Y-135091552D01*
X123147009Y-135062222D01*
X123206663Y-135030336D01*
X123303533Y-134978557D01*
X123360147Y-134961384D01*
X123473373Y-134927037D01*
X123539558Y-134920518D01*
X123605740Y-134914000D01*
X123694260Y-134914000D01*
X123760442Y-134920518D01*
X123760442Y-134920518D01*
G37*
G36*
X126300442Y-134920518D02*
X126366627Y-134927037D01*
X126479853Y-134961384D01*
X126536467Y-134978557D01*
X126633337Y-135030336D01*
X126692991Y-135062222D01*
X126728729Y-135091552D01*
X126830186Y-135174814D01*
X126913448Y-135276271D01*
X126942778Y-135312009D01*
X126942779Y-135312011D01*
X127026443Y-135468533D01*
X127026443Y-135468534D01*
X127077963Y-135638373D01*
X127095359Y-135815000D01*
X127077963Y-135991627D01*
X127047667Y-136091500D01*
X127026443Y-136161467D01*
X126952348Y-136300087D01*
X126942778Y-136317991D01*
X126913448Y-136353729D01*
X126830186Y-136455186D01*
X126728729Y-136538448D01*
X126692991Y-136567778D01*
X126692989Y-136567779D01*
X126536467Y-136651443D01*
X126479853Y-136668616D01*
X126366627Y-136702963D01*
X126300442Y-136709482D01*
X126234260Y-136716000D01*
X126145740Y-136716000D01*
X126079558Y-136709482D01*
X126013373Y-136702963D01*
X125900147Y-136668616D01*
X125843533Y-136651443D01*
X125687011Y-136567779D01*
X125687009Y-136567778D01*
X125651271Y-136538448D01*
X125549814Y-136455186D01*
X125466552Y-136353729D01*
X125437222Y-136317991D01*
X125427652Y-136300087D01*
X125353557Y-136161467D01*
X125332333Y-136091500D01*
X125302037Y-135991627D01*
X125284641Y-135815000D01*
X125302037Y-135638373D01*
X125353557Y-135468534D01*
X125353557Y-135468533D01*
X125437221Y-135312011D01*
X125437222Y-135312009D01*
X125466552Y-135276271D01*
X125549814Y-135174814D01*
X125651271Y-135091552D01*
X125687009Y-135062222D01*
X125746663Y-135030336D01*
X125843533Y-134978557D01*
X125900147Y-134961384D01*
X126013373Y-134927037D01*
X126079558Y-134920518D01*
X126145740Y-134914000D01*
X126234260Y-134914000D01*
X126300442Y-134920518D01*
X126300442Y-134920518D01*
G37*
G36*
X142937988Y-133556304D02*
X143107710Y-133590063D01*
X143290336Y-133665709D01*
X143454694Y-133775530D01*
X143594470Y-133915306D01*
X143704291Y-134079664D01*
X143779937Y-134262290D01*
X143818500Y-134456164D01*
X143818500Y-134653836D01*
X143779937Y-134847710D01*
X143704291Y-135030336D01*
X143594470Y-135194694D01*
X143454694Y-135334470D01*
X143290336Y-135444291D01*
X143107710Y-135519937D01*
X142937988Y-135553696D01*
X142913837Y-135558500D01*
X142716163Y-135558500D01*
X142692012Y-135553696D01*
X142522290Y-135519937D01*
X142339664Y-135444291D01*
X142175306Y-135334470D01*
X142035530Y-135194694D01*
X141925709Y-135030336D01*
X141850063Y-134847710D01*
X141811500Y-134653836D01*
X141811500Y-134456164D01*
X141850063Y-134262290D01*
X141925709Y-134079664D01*
X142035530Y-133915306D01*
X142175306Y-133775530D01*
X142339664Y-133665709D01*
X142522290Y-133590063D01*
X142692012Y-133556304D01*
X142716163Y-133551500D01*
X142913837Y-133551500D01*
X142937988Y-133556304D01*
X142937988Y-133556304D01*
G37*
G36*
X150557988Y-133556304D02*
X150727710Y-133590063D01*
X150910336Y-133665709D01*
X151074694Y-133775530D01*
X151214470Y-133915306D01*
X151324291Y-134079664D01*
X151399937Y-134262290D01*
X151438500Y-134456164D01*
X151438500Y-134653836D01*
X151399937Y-134847710D01*
X151324291Y-135030336D01*
X151214470Y-135194694D01*
X151074694Y-135334470D01*
X150910336Y-135444291D01*
X150727710Y-135519937D01*
X150557988Y-135553696D01*
X150533837Y-135558500D01*
X150336163Y-135558500D01*
X150312012Y-135553696D01*
X150142290Y-135519937D01*
X149959664Y-135444291D01*
X149795306Y-135334470D01*
X149655530Y-135194694D01*
X149545709Y-135030336D01*
X149470063Y-134847710D01*
X149431500Y-134653836D01*
X149431500Y-134456164D01*
X149470063Y-134262290D01*
X149545709Y-134079664D01*
X149655530Y-133915306D01*
X149795306Y-133775530D01*
X149959664Y-133665709D01*
X150142290Y-133590063D01*
X150312012Y-133556304D01*
X150336163Y-133551500D01*
X150533837Y-133551500D01*
X150557988Y-133556304D01*
X150557988Y-133556304D01*
G37*
G36*
X124551000Y-134176000D02*
X122749000Y-134176000D01*
X122749000Y-132374000D01*
X124551000Y-132374000D01*
X124551000Y-134176000D01*
X124551000Y-134176000D01*
G37*
G36*
X126300442Y-132380518D02*
X126366627Y-132387037D01*
X126479853Y-132421384D01*
X126536467Y-132438557D01*
X126571427Y-132457244D01*
X126692991Y-132522222D01*
X126702563Y-132530078D01*
X126830186Y-132634814D01*
X126912125Y-132734659D01*
X126942778Y-132772009D01*
X126942779Y-132772011D01*
X127026443Y-132928533D01*
X127026443Y-132928534D01*
X127077963Y-133098373D01*
X127095359Y-133275000D01*
X127077963Y-133451627D01*
X127047667Y-133551500D01*
X127026443Y-133621467D01*
X126952348Y-133760087D01*
X126942778Y-133777991D01*
X126923895Y-133801000D01*
X126830186Y-133915186D01*
X126728729Y-133998448D01*
X126692991Y-134027778D01*
X126692989Y-134027779D01*
X126536467Y-134111443D01*
X126479853Y-134128616D01*
X126366627Y-134162963D01*
X126300442Y-134169482D01*
X126234260Y-134176000D01*
X126145740Y-134176000D01*
X126079558Y-134169482D01*
X126013373Y-134162963D01*
X125900147Y-134128616D01*
X125843533Y-134111443D01*
X125687011Y-134027779D01*
X125687009Y-134027778D01*
X125651271Y-133998448D01*
X125549814Y-133915186D01*
X125456105Y-133801000D01*
X125437222Y-133777991D01*
X125427652Y-133760087D01*
X125353557Y-133621467D01*
X125332333Y-133551500D01*
X125302037Y-133451627D01*
X125284641Y-133275000D01*
X125302037Y-133098373D01*
X125353557Y-132928534D01*
X125353557Y-132928533D01*
X125437221Y-132772011D01*
X125437222Y-132772009D01*
X125467875Y-132734659D01*
X125549814Y-132634814D01*
X125677437Y-132530078D01*
X125687009Y-132522222D01*
X125808573Y-132457244D01*
X125843533Y-132438557D01*
X125900147Y-132421384D01*
X126013373Y-132387037D01*
X126079558Y-132380518D01*
X126145740Y-132374000D01*
X126234260Y-132374000D01*
X126300442Y-132380518D01*
X126300442Y-132380518D01*
G37*
G36*
X170526000Y-133801000D02*
X169224000Y-133801000D01*
X169224000Y-132949000D01*
X170526000Y-132949000D01*
X170526000Y-133801000D01*
X170526000Y-133801000D01*
G37*
G36*
X172426000Y-133801000D02*
X171124000Y-133801000D01*
X171124000Y-132949000D01*
X172426000Y-132949000D01*
X172426000Y-133801000D01*
X172426000Y-133801000D01*
G37*
G36*
X150557988Y-131016304D02*
X150727710Y-131050063D01*
X150910336Y-131125709D01*
X151074694Y-131235530D01*
X151214470Y-131375306D01*
X151324291Y-131539664D01*
X151399937Y-131722290D01*
X151438500Y-131916164D01*
X151438500Y-132113836D01*
X151399937Y-132307710D01*
X151324291Y-132490336D01*
X151214470Y-132654694D01*
X151074694Y-132794470D01*
X150910336Y-132904291D01*
X150727710Y-132979937D01*
X150557988Y-133013696D01*
X150533837Y-133018500D01*
X150336163Y-133018500D01*
X150312012Y-133013696D01*
X150142290Y-132979937D01*
X149959664Y-132904291D01*
X149795306Y-132794470D01*
X149655530Y-132654694D01*
X149545709Y-132490336D01*
X149470063Y-132307710D01*
X149431500Y-132113836D01*
X149431500Y-131916164D01*
X149470063Y-131722290D01*
X149545709Y-131539664D01*
X149655530Y-131375306D01*
X149795306Y-131235530D01*
X149959664Y-131125709D01*
X150142290Y-131050063D01*
X150312012Y-131016304D01*
X150336163Y-131011500D01*
X150533837Y-131011500D01*
X150557988Y-131016304D01*
X150557988Y-131016304D01*
G37*
G36*
X142937988Y-131016304D02*
X143107710Y-131050063D01*
X143290336Y-131125709D01*
X143454694Y-131235530D01*
X143594470Y-131375306D01*
X143704291Y-131539664D01*
X143779937Y-131722290D01*
X143818500Y-131916164D01*
X143818500Y-132113836D01*
X143779937Y-132307710D01*
X143704291Y-132490336D01*
X143594470Y-132654694D01*
X143454694Y-132794470D01*
X143290336Y-132904291D01*
X143107710Y-132979937D01*
X142937988Y-133013696D01*
X142913837Y-133018500D01*
X142716163Y-133018500D01*
X142692012Y-133013696D01*
X142522290Y-132979937D01*
X142339664Y-132904291D01*
X142175306Y-132794470D01*
X142035530Y-132654694D01*
X141925709Y-132490336D01*
X141850063Y-132307710D01*
X141811500Y-132113836D01*
X141811500Y-131916164D01*
X141850063Y-131722290D01*
X141925709Y-131539664D01*
X142035530Y-131375306D01*
X142175306Y-131235530D01*
X142339664Y-131125709D01*
X142522290Y-131050063D01*
X142692012Y-131016304D01*
X142716163Y-131011500D01*
X142913837Y-131011500D01*
X142937988Y-131016304D01*
X142937988Y-131016304D01*
G37*
G36*
X159716821Y-131291313D02*
X159716824Y-131291314D01*
X159716825Y-131291314D01*
X159877239Y-131339975D01*
X159877241Y-131339976D01*
X159877244Y-131339977D01*
X160025078Y-131418995D01*
X160154659Y-131525341D01*
X160261005Y-131654922D01*
X160340023Y-131802756D01*
X160388687Y-131963179D01*
X160405117Y-132130000D01*
X160388687Y-132296821D01*
X160388686Y-132296824D01*
X160388686Y-132296825D01*
X160361321Y-132387037D01*
X160340023Y-132457244D01*
X160261005Y-132605078D01*
X160154659Y-132734659D01*
X160025078Y-132841005D01*
X159877244Y-132920023D01*
X159877241Y-132920024D01*
X159877239Y-132920025D01*
X159716825Y-132968686D01*
X159716824Y-132968686D01*
X159716821Y-132968687D01*
X159591804Y-132981000D01*
X159508196Y-132981000D01*
X159383179Y-132968687D01*
X159383176Y-132968686D01*
X159383175Y-132968686D01*
X159222761Y-132920025D01*
X159222759Y-132920024D01*
X159222756Y-132920023D01*
X159074922Y-132841005D01*
X158945341Y-132734659D01*
X158838995Y-132605078D01*
X158759977Y-132457244D01*
X158738680Y-132387037D01*
X158711314Y-132296825D01*
X158711314Y-132296824D01*
X158711313Y-132296821D01*
X158694883Y-132130000D01*
X158711313Y-131963179D01*
X158759977Y-131802756D01*
X158838995Y-131654922D01*
X158945341Y-131525341D01*
X159074922Y-131418995D01*
X159222756Y-131339977D01*
X159222759Y-131339976D01*
X159222761Y-131339975D01*
X159383175Y-131291314D01*
X159383176Y-131291314D01*
X159383179Y-131291313D01*
X159508196Y-131279000D01*
X159591804Y-131279000D01*
X159716821Y-131291313D01*
X159716821Y-131291313D01*
G37*
G36*
X134266821Y-131216313D02*
X134266824Y-131216314D01*
X134266825Y-131216314D01*
X134427239Y-131264975D01*
X134427241Y-131264976D01*
X134427244Y-131264977D01*
X134575078Y-131343995D01*
X134704659Y-131450341D01*
X134811005Y-131579922D01*
X134890023Y-131727756D01*
X134938687Y-131888179D01*
X134955117Y-132055000D01*
X134938687Y-132221821D01*
X134938686Y-132221824D01*
X134938686Y-132221825D01*
X134912634Y-132307708D01*
X134890023Y-132382244D01*
X134811005Y-132530078D01*
X134704659Y-132659659D01*
X134575078Y-132766005D01*
X134427244Y-132845023D01*
X134427241Y-132845024D01*
X134427239Y-132845025D01*
X134266825Y-132893686D01*
X134266824Y-132893686D01*
X134266821Y-132893687D01*
X134141804Y-132906000D01*
X134058196Y-132906000D01*
X133933179Y-132893687D01*
X133933176Y-132893686D01*
X133933175Y-132893686D01*
X133772761Y-132845025D01*
X133772759Y-132845024D01*
X133772756Y-132845023D01*
X133624922Y-132766005D01*
X133495341Y-132659659D01*
X133388995Y-132530078D01*
X133309977Y-132382244D01*
X133287367Y-132307708D01*
X133261314Y-132221825D01*
X133261314Y-132221824D01*
X133261313Y-132221821D01*
X133244883Y-132055000D01*
X133261313Y-131888179D01*
X133309977Y-131727756D01*
X133388995Y-131579922D01*
X133495341Y-131450341D01*
X133624922Y-131343995D01*
X133772756Y-131264977D01*
X133772759Y-131264976D01*
X133772761Y-131264975D01*
X133933175Y-131216314D01*
X133933176Y-131216314D01*
X133933179Y-131216313D01*
X134058196Y-131204000D01*
X134141804Y-131204000D01*
X134266821Y-131216313D01*
X134266821Y-131216313D01*
G37*
G36*
X147727527Y-107928736D02*
X147827410Y-107948604D01*
X148109674Y-108065521D01*
X148363705Y-108235259D01*
X148579741Y-108451295D01*
X148749479Y-108705326D01*
X148866396Y-108987590D01*
X148926000Y-109287240D01*
X148926000Y-109592760D01*
X148866396Y-109892410D01*
X148749479Y-110174674D01*
X148579741Y-110428705D01*
X148363705Y-110644741D01*
X148109674Y-110814479D01*
X147827410Y-110931396D01*
X147727527Y-110951264D01*
X147527762Y-110991000D01*
X147222238Y-110991000D01*
X147022473Y-110951264D01*
X146922590Y-110931396D01*
X146640326Y-110814479D01*
X146386295Y-110644741D01*
X146170259Y-110428705D01*
X146000521Y-110174674D01*
X145883604Y-109892410D01*
X145824000Y-109592760D01*
X145824000Y-109287240D01*
X145883604Y-108987590D01*
X146000521Y-108705326D01*
X146170259Y-108451295D01*
X146386295Y-108235259D01*
X146640326Y-108065521D01*
X146922590Y-107948604D01*
X147022473Y-107928736D01*
X147222238Y-107889000D01*
X147527762Y-107889000D01*
X147727527Y-107928736D01*
X147727527Y-107928736D01*
G37*
G36*
X148926000Y-90501000D02*
X145824000Y-90501000D01*
X145824000Y-87399000D01*
X148926000Y-87399000D01*
X148926000Y-90501000D01*
X148926000Y-90501000D01*
G37*
G36*
X153026000Y-73326000D02*
X151124000Y-73326000D01*
X151124000Y-71424000D01*
X153026000Y-71424000D01*
X153026000Y-73326000D01*
X153026000Y-73326000D01*
G37*
G36*
X157432396Y-71460546D02*
X157605466Y-71532234D01*
X157761230Y-71636312D01*
X157893688Y-71768770D01*
X157997766Y-71924534D01*
X158069454Y-72097604D01*
X158106000Y-72281333D01*
X158106000Y-72468667D01*
X158069454Y-72652396D01*
X157997766Y-72825466D01*
X157893688Y-72981230D01*
X157761230Y-73113688D01*
X157605466Y-73217766D01*
X157432396Y-73289454D01*
X157248667Y-73326000D01*
X157061333Y-73326000D01*
X156877604Y-73289454D01*
X156704534Y-73217766D01*
X156548770Y-73113688D01*
X156416312Y-72981230D01*
X156312234Y-72825466D01*
X156240546Y-72652396D01*
X156204000Y-72468667D01*
X156204000Y-72281333D01*
X156240546Y-72097604D01*
X156312234Y-71924534D01*
X156416312Y-71768770D01*
X156548770Y-71636312D01*
X156704534Y-71532234D01*
X156877604Y-71460546D01*
X157061333Y-71424000D01*
X157248667Y-71424000D01*
X157432396Y-71460546D01*
X157432396Y-71460546D01*
G37*
G36*
X154892396Y-71460546D02*
X155065466Y-71532234D01*
X155221230Y-71636312D01*
X155353688Y-71768770D01*
X155457766Y-71924534D01*
X155529454Y-72097604D01*
X155566000Y-72281333D01*
X155566000Y-72468667D01*
X155529454Y-72652396D01*
X155457766Y-72825466D01*
X155353688Y-72981230D01*
X155221230Y-73113688D01*
X155065466Y-73217766D01*
X154892396Y-73289454D01*
X154708667Y-73326000D01*
X154521333Y-73326000D01*
X154337604Y-73289454D01*
X154164534Y-73217766D01*
X154008770Y-73113688D01*
X153876312Y-72981230D01*
X153772234Y-72825466D01*
X153700546Y-72652396D01*
X153664000Y-72468667D01*
X153664000Y-72281333D01*
X153700546Y-72097604D01*
X153772234Y-71924534D01*
X153876312Y-71768770D01*
X154008770Y-71636312D01*
X154164534Y-71532234D01*
X154337604Y-71460546D01*
X154521333Y-71424000D01*
X154708667Y-71424000D01*
X154892396Y-71460546D01*
X154892396Y-71460546D01*
G37*
G36*
X143307396Y-71260546D02*
X143480466Y-71332234D01*
X143636230Y-71436312D01*
X143768688Y-71568770D01*
X143872766Y-71724534D01*
X143944454Y-71897604D01*
X143981000Y-72081333D01*
X143981000Y-72268667D01*
X143944454Y-72452396D01*
X143872766Y-72625466D01*
X143768688Y-72781230D01*
X143636230Y-72913688D01*
X143480466Y-73017766D01*
X143307396Y-73089454D01*
X143123667Y-73126000D01*
X142936333Y-73126000D01*
X142752604Y-73089454D01*
X142579534Y-73017766D01*
X142423770Y-72913688D01*
X142291312Y-72781230D01*
X142187234Y-72625466D01*
X142115546Y-72452396D01*
X142079000Y-72268667D01*
X142079000Y-72081333D01*
X142115546Y-71897604D01*
X142187234Y-71724534D01*
X142291312Y-71568770D01*
X142423770Y-71436312D01*
X142579534Y-71332234D01*
X142752604Y-71260546D01*
X142936333Y-71224000D01*
X143123667Y-71224000D01*
X143307396Y-71260546D01*
X143307396Y-71260546D01*
G37*
G36*
X140767396Y-71260546D02*
X140940466Y-71332234D01*
X141096230Y-71436312D01*
X141228688Y-71568770D01*
X141332766Y-71724534D01*
X141404454Y-71897604D01*
X141441000Y-72081333D01*
X141441000Y-72268667D01*
X141404454Y-72452396D01*
X141332766Y-72625466D01*
X141228688Y-72781230D01*
X141096230Y-72913688D01*
X140940466Y-73017766D01*
X140767396Y-73089454D01*
X140583667Y-73126000D01*
X140396333Y-73126000D01*
X140212604Y-73089454D01*
X140039534Y-73017766D01*
X139883770Y-72913688D01*
X139751312Y-72781230D01*
X139647234Y-72625466D01*
X139575546Y-72452396D01*
X139539000Y-72268667D01*
X139539000Y-72081333D01*
X139575546Y-71897604D01*
X139647234Y-71724534D01*
X139751312Y-71568770D01*
X139883770Y-71436312D01*
X140039534Y-71332234D01*
X140212604Y-71260546D01*
X140396333Y-71224000D01*
X140583667Y-71224000D01*
X140767396Y-71260546D01*
X140767396Y-71260546D01*
G37*
G36*
X138901000Y-73126000D02*
X136999000Y-73126000D01*
X136999000Y-71224000D01*
X138901000Y-71224000D01*
X138901000Y-73126000D01*
X138901000Y-73126000D01*
G37*
G36*
X148056632Y-44379677D02*
X148488495Y-44558561D01*
X148793868Y-44685050D01*
X149452889Y-45125394D01*
X149457365Y-45128385D01*
X150021615Y-45692635D01*
X150021617Y-45692638D01*
X150464950Y-46356132D01*
X150464950Y-46356133D01*
X150770323Y-47093368D01*
X150926000Y-47876010D01*
X150926000Y-48673990D01*
X150770323Y-49456632D01*
X150591439Y-49888495D01*
X150464950Y-50193868D01*
X150024606Y-50852889D01*
X150021615Y-50857365D01*
X149457365Y-51421615D01*
X149457362Y-51421617D01*
X148793868Y-51864950D01*
X148488495Y-51991439D01*
X148056632Y-52170323D01*
X147273990Y-52326000D01*
X146476010Y-52326000D01*
X145693368Y-52170323D01*
X145261505Y-51991439D01*
X144956132Y-51864950D01*
X144292638Y-51421617D01*
X144292635Y-51421615D01*
X143728385Y-50857365D01*
X143725394Y-50852889D01*
X143285050Y-50193868D01*
X143158561Y-49888495D01*
X142979677Y-49456632D01*
X142824000Y-48673990D01*
X142824000Y-47876010D01*
X142979677Y-47093368D01*
X143285050Y-46356133D01*
X143285050Y-46356132D01*
X143728383Y-45692638D01*
X143728385Y-45692635D01*
X144292635Y-45128385D01*
X144297111Y-45125394D01*
X144956132Y-44685050D01*
X145261505Y-44558561D01*
X145693368Y-44379677D01*
X146476010Y-44224000D01*
X147273990Y-44224000D01*
X148056632Y-44379677D01*
X148056632Y-44379677D01*
G37*
M02*
