G04 #@! TF.GenerationSoftware,KiCad,Pcbnew,(5.0.2)-1*
G04 #@! TF.CreationDate,2019-08-06T06:47:22-04:00*
G04 #@! TF.ProjectId,LuffyBadge2019_BSides,4c756666-7942-4616-9467-65323031395f,rev?*
G04 #@! TF.SameCoordinates,Original*
G04 #@! TF.FileFunction,Soldermask,Top*
G04 #@! TF.FilePolarity,Negative*
%FSLAX46Y46*%
G04 Gerber Fmt 4.6, Leading zero omitted, Abs format (unit mm)*
G04 Created by KiCad (PCBNEW (5.0.2)-1) date 8/6/2019 6:47:22 AM*
%MOMM*%
%LPD*%
G01*
G04 APERTURE LIST*
%ADD10C,0.010000*%
%ADD11C,0.100000*%
G04 APERTURE END LIST*
D10*
G04 #@! TO.C,G\002A\002A\002A*
G36*
X138174432Y-84016781D02*
X138372411Y-84037055D01*
X138601029Y-84065352D01*
X138837039Y-84098675D01*
X139057198Y-84134027D01*
X139238261Y-84168411D01*
X139315902Y-84186650D01*
X139453822Y-84232817D01*
X139655703Y-84313295D01*
X139907634Y-84421396D01*
X140195703Y-84550434D01*
X140506000Y-84693721D01*
X140824613Y-84844571D01*
X141137631Y-84996298D01*
X141431141Y-85142213D01*
X141691233Y-85275630D01*
X141903996Y-85389862D01*
X142055517Y-85478223D01*
X142131886Y-85534025D01*
X142137990Y-85543167D01*
X142108321Y-85612166D01*
X141994609Y-85701551D01*
X141810424Y-85802807D01*
X141569340Y-85907420D01*
X141538427Y-85919339D01*
X141407576Y-85962995D01*
X141196415Y-86026111D01*
X140923409Y-86103503D01*
X140607023Y-86189984D01*
X140265721Y-86280368D01*
X140104039Y-86322187D01*
X139761587Y-86411847D01*
X139439389Y-86499527D01*
X139154927Y-86580211D01*
X138925682Y-86648884D01*
X138769138Y-86700526D01*
X138724044Y-86718194D01*
X138498477Y-86817972D01*
X138439377Y-87215332D01*
X138409611Y-87403923D01*
X138383504Y-87548843D01*
X138365731Y-87624656D01*
X138363168Y-87629802D01*
X138311642Y-87650920D01*
X138179791Y-87698577D01*
X137983856Y-87767078D01*
X137740079Y-87850727D01*
X137537132Y-87919469D01*
X137243781Y-88019354D01*
X136962729Y-88116931D01*
X136717553Y-88203879D01*
X136531831Y-88271880D01*
X136460972Y-88299229D01*
X136316010Y-88349077D01*
X136219388Y-88366219D01*
X136193738Y-88353876D01*
X136210990Y-88267870D01*
X136259041Y-88102545D01*
X136332330Y-87873672D01*
X136425296Y-87597023D01*
X136532378Y-87288367D01*
X136648016Y-86963478D01*
X136766650Y-86638124D01*
X136882718Y-86328078D01*
X136990661Y-86049109D01*
X137084917Y-85816990D01*
X137104243Y-85771497D01*
X137244363Y-85451593D01*
X137389325Y-85131862D01*
X137532172Y-84826548D01*
X137665947Y-84549898D01*
X137783693Y-84316156D01*
X137878453Y-84139568D01*
X137943270Y-84034380D01*
X137963366Y-84012286D01*
X138030335Y-84007526D01*
X138174432Y-84016781D01*
X138174432Y-84016781D01*
G37*
X138174432Y-84016781D02*
X138372411Y-84037055D01*
X138601029Y-84065352D01*
X138837039Y-84098675D01*
X139057198Y-84134027D01*
X139238261Y-84168411D01*
X139315902Y-84186650D01*
X139453822Y-84232817D01*
X139655703Y-84313295D01*
X139907634Y-84421396D01*
X140195703Y-84550434D01*
X140506000Y-84693721D01*
X140824613Y-84844571D01*
X141137631Y-84996298D01*
X141431141Y-85142213D01*
X141691233Y-85275630D01*
X141903996Y-85389862D01*
X142055517Y-85478223D01*
X142131886Y-85534025D01*
X142137990Y-85543167D01*
X142108321Y-85612166D01*
X141994609Y-85701551D01*
X141810424Y-85802807D01*
X141569340Y-85907420D01*
X141538427Y-85919339D01*
X141407576Y-85962995D01*
X141196415Y-86026111D01*
X140923409Y-86103503D01*
X140607023Y-86189984D01*
X140265721Y-86280368D01*
X140104039Y-86322187D01*
X139761587Y-86411847D01*
X139439389Y-86499527D01*
X139154927Y-86580211D01*
X138925682Y-86648884D01*
X138769138Y-86700526D01*
X138724044Y-86718194D01*
X138498477Y-86817972D01*
X138439377Y-87215332D01*
X138409611Y-87403923D01*
X138383504Y-87548843D01*
X138365731Y-87624656D01*
X138363168Y-87629802D01*
X138311642Y-87650920D01*
X138179791Y-87698577D01*
X137983856Y-87767078D01*
X137740079Y-87850727D01*
X137537132Y-87919469D01*
X137243781Y-88019354D01*
X136962729Y-88116931D01*
X136717553Y-88203879D01*
X136531831Y-88271880D01*
X136460972Y-88299229D01*
X136316010Y-88349077D01*
X136219388Y-88366219D01*
X136193738Y-88353876D01*
X136210990Y-88267870D01*
X136259041Y-88102545D01*
X136332330Y-87873672D01*
X136425296Y-87597023D01*
X136532378Y-87288367D01*
X136648016Y-86963478D01*
X136766650Y-86638124D01*
X136882718Y-86328078D01*
X136990661Y-86049109D01*
X137084917Y-85816990D01*
X137104243Y-85771497D01*
X137244363Y-85451593D01*
X137389325Y-85131862D01*
X137532172Y-84826548D01*
X137665947Y-84549898D01*
X137783693Y-84316156D01*
X137878453Y-84139568D01*
X137943270Y-84034380D01*
X137963366Y-84012286D01*
X138030335Y-84007526D01*
X138174432Y-84016781D01*
G36*
X157385258Y-87474596D02*
X158154269Y-87577555D01*
X158887138Y-87770346D01*
X159589871Y-88055588D01*
X160268476Y-88435897D01*
X160928961Y-88913890D01*
X161186661Y-89130606D01*
X161306770Y-89241611D01*
X161446453Y-89379614D01*
X161589863Y-89527654D01*
X161721154Y-89668768D01*
X161824479Y-89785994D01*
X161883990Y-89862369D01*
X161889247Y-89882645D01*
X161841194Y-89858961D01*
X161723030Y-89795907D01*
X161553589Y-89703635D01*
X161389948Y-89613488D01*
X161150649Y-89473476D01*
X160908734Y-89319275D01*
X160700950Y-89174814D01*
X160616438Y-89109739D01*
X160185074Y-88800681D01*
X159688332Y-88515917D01*
X159153961Y-88267496D01*
X158609715Y-88067463D01*
X158083344Y-87927867D01*
X157776103Y-87876704D01*
X157532902Y-87844739D01*
X157369064Y-87813763D01*
X157262604Y-87775120D01*
X157191539Y-87720156D01*
X157133886Y-87640218D01*
X157121058Y-87618827D01*
X157019864Y-87447316D01*
X157385258Y-87474596D01*
X157385258Y-87474596D01*
G37*
X157385258Y-87474596D02*
X158154269Y-87577555D01*
X158887138Y-87770346D01*
X159589871Y-88055588D01*
X160268476Y-88435897D01*
X160928961Y-88913890D01*
X161186661Y-89130606D01*
X161306770Y-89241611D01*
X161446453Y-89379614D01*
X161589863Y-89527654D01*
X161721154Y-89668768D01*
X161824479Y-89785994D01*
X161883990Y-89862369D01*
X161889247Y-89882645D01*
X161841194Y-89858961D01*
X161723030Y-89795907D01*
X161553589Y-89703635D01*
X161389948Y-89613488D01*
X161150649Y-89473476D01*
X160908734Y-89319275D01*
X160700950Y-89174814D01*
X160616438Y-89109739D01*
X160185074Y-88800681D01*
X159688332Y-88515917D01*
X159153961Y-88267496D01*
X158609715Y-88067463D01*
X158083344Y-87927867D01*
X157776103Y-87876704D01*
X157532902Y-87844739D01*
X157369064Y-87813763D01*
X157262604Y-87775120D01*
X157191539Y-87720156D01*
X157133886Y-87640218D01*
X157121058Y-87618827D01*
X157019864Y-87447316D01*
X157385258Y-87474596D01*
G36*
X177896742Y-57403598D02*
X178187472Y-57497061D01*
X178448738Y-57663282D01*
X178663681Y-57902340D01*
X178731043Y-58014820D01*
X178815688Y-58253343D01*
X178848638Y-58527626D01*
X178833022Y-58809699D01*
X178771967Y-59071589D01*
X178668601Y-59285325D01*
X178577556Y-59387395D01*
X178500797Y-59502900D01*
X178506785Y-59657968D01*
X178596745Y-59857698D01*
X178740694Y-60067104D01*
X178913947Y-60301656D01*
X179032901Y-60491169D01*
X179111098Y-60666508D01*
X179162085Y-60858534D01*
X179199407Y-61098110D01*
X179201932Y-61118047D01*
X179232876Y-61325647D01*
X179268209Y-61503530D01*
X179301353Y-61619703D01*
X179308165Y-61634687D01*
X179379697Y-61708213D01*
X179514516Y-61802698D01*
X179678520Y-61895078D01*
X180287448Y-62256686D01*
X180831370Y-62692288D01*
X181304690Y-63194242D01*
X181701808Y-63754904D01*
X182017126Y-64366630D01*
X182245047Y-65021779D01*
X182357775Y-65553006D01*
X182389963Y-65754821D01*
X182419242Y-65929514D01*
X182439709Y-66041951D01*
X182440953Y-66047990D01*
X182461291Y-66092687D01*
X182511240Y-66136551D01*
X182603859Y-66185282D01*
X182752208Y-66244579D01*
X182969346Y-66320141D01*
X183268332Y-66417668D01*
X183342175Y-66441292D01*
X183654092Y-66539623D01*
X183960343Y-66633962D01*
X184236442Y-66716922D01*
X184457900Y-66781117D01*
X184570026Y-66811638D01*
X184794449Y-66881275D01*
X184935969Y-66956169D01*
X185000662Y-67023822D01*
X185046176Y-67147646D01*
X185079624Y-67345580D01*
X185099760Y-67590507D01*
X185105338Y-67855309D01*
X185095112Y-68112870D01*
X185067836Y-68336073D01*
X185062268Y-68364573D01*
X185002880Y-68650647D01*
X184560333Y-68876316D01*
X184317662Y-68993055D01*
X184023746Y-69124079D01*
X183723347Y-69249812D01*
X183555376Y-69315803D01*
X182992966Y-69529620D01*
X182931603Y-76177879D01*
X182923950Y-76992056D01*
X182916293Y-77777896D01*
X182908705Y-78529415D01*
X182901256Y-79240627D01*
X182894019Y-79905548D01*
X182887065Y-80518192D01*
X182880466Y-81072576D01*
X182874294Y-81562713D01*
X182868620Y-81982620D01*
X182863517Y-82326311D01*
X182859056Y-82587801D01*
X182855308Y-82761106D01*
X182852347Y-82840240D01*
X182851680Y-82844696D01*
X182795801Y-82857677D01*
X182664122Y-82875538D01*
X182482309Y-82894919D01*
X182431966Y-82899614D01*
X182030812Y-82935972D01*
X181973120Y-83597695D01*
X181947932Y-83872194D01*
X181921743Y-84133345D01*
X181897613Y-84351991D01*
X181878603Y-84498974D01*
X181878262Y-84501202D01*
X181841096Y-84742986D01*
X181452387Y-84743217D01*
X181228273Y-84746565D01*
X180947197Y-84755363D01*
X180653758Y-84768062D01*
X180503758Y-84776121D01*
X179943838Y-84808793D01*
X179805516Y-85373986D01*
X179609930Y-86004520D01*
X179345519Y-86566193D01*
X179004958Y-87069713D01*
X178580922Y-87525788D01*
X178066089Y-87945128D01*
X178028832Y-87971705D01*
X177846013Y-88101649D01*
X177693382Y-88211145D01*
X177590740Y-88285933D01*
X177559633Y-88309657D01*
X177555796Y-88369041D01*
X177572600Y-88510067D01*
X177607212Y-88715319D01*
X177656799Y-88967377D01*
X177696835Y-89153082D01*
X177832968Y-89797665D01*
X177944815Y-90408009D01*
X178034207Y-91003241D01*
X178102978Y-91602486D01*
X178152961Y-92224871D01*
X178185989Y-92889521D01*
X178203895Y-93615563D01*
X178208511Y-94422122D01*
X178208361Y-94490681D01*
X178206280Y-94991627D01*
X178202580Y-95405136D01*
X178196625Y-95745570D01*
X178187775Y-96027293D01*
X178175391Y-96264666D01*
X178158836Y-96472052D01*
X178137471Y-96663813D01*
X178110658Y-96854312D01*
X178100369Y-96920201D01*
X178044154Y-97247129D01*
X177990355Y-97485750D01*
X177931900Y-97649118D01*
X177861713Y-97750285D01*
X177772721Y-97802304D01*
X177657849Y-97818230D01*
X177613907Y-97817817D01*
X177443673Y-97808263D01*
X177295325Y-97793418D01*
X177271493Y-97789871D01*
X176768986Y-97706184D01*
X176221606Y-97613755D01*
X175637759Y-97514086D01*
X175025851Y-97408682D01*
X174394286Y-97299045D01*
X173751470Y-97186679D01*
X173105808Y-97073088D01*
X172465707Y-96959774D01*
X171839571Y-96848242D01*
X171235806Y-96739994D01*
X170662818Y-96636533D01*
X170129011Y-96539365D01*
X169642791Y-96449990D01*
X169212564Y-96369914D01*
X168846736Y-96300640D01*
X168553711Y-96243670D01*
X168341894Y-96200508D01*
X168219693Y-96172658D01*
X168202895Y-96167877D01*
X168175219Y-96153726D01*
X168153580Y-96123342D01*
X168137235Y-96065374D01*
X168125439Y-95968467D01*
X168117452Y-95821267D01*
X168112530Y-95612420D01*
X168109929Y-95330573D01*
X168108907Y-94964373D01*
X168108751Y-94729035D01*
X168103157Y-94050307D01*
X168085240Y-93455237D01*
X168052652Y-92926167D01*
X168003044Y-92445440D01*
X167934068Y-91995398D01*
X167843376Y-91558387D01*
X167728619Y-91116747D01*
X167587449Y-90652823D01*
X167552267Y-90544966D01*
X167176678Y-89565659D01*
X166712334Y-88630002D01*
X166164722Y-87743703D01*
X165539334Y-86912467D01*
X164841660Y-86142001D01*
X164077187Y-85438011D01*
X163251408Y-84806205D01*
X162369810Y-84252289D01*
X161437884Y-83781970D01*
X160792524Y-83518120D01*
X160593350Y-83441520D01*
X160435867Y-83376153D01*
X160340571Y-83330804D01*
X160321682Y-83316337D01*
X160364655Y-83284919D01*
X160478545Y-83226753D01*
X160640038Y-83153618D01*
X160664780Y-83142999D01*
X161742003Y-82633048D01*
X162787911Y-82037689D01*
X163793600Y-81364615D01*
X164750166Y-80621515D01*
X165648708Y-79816081D01*
X166480321Y-78956004D01*
X167236101Y-78048975D01*
X167907147Y-77102685D01*
X168196555Y-76636749D01*
X168342599Y-76400362D01*
X168450785Y-76249140D01*
X168526598Y-76176132D01*
X168566037Y-76168714D01*
X168646867Y-76214325D01*
X168793568Y-76311533D01*
X168991480Y-76449657D01*
X169225940Y-76618016D01*
X169482288Y-76805928D01*
X169745862Y-77002713D01*
X170002002Y-77197690D01*
X170236046Y-77380178D01*
X170311749Y-77440501D01*
X170518587Y-77611347D01*
X170776896Y-77832160D01*
X171064011Y-78083138D01*
X171357267Y-78344478D01*
X171620967Y-78584370D01*
X172409518Y-79310436D01*
X172412161Y-79296493D01*
X175846243Y-79296493D01*
X179358467Y-79296493D01*
X179356896Y-75695190D01*
X179355960Y-75087944D01*
X179353766Y-74502441D01*
X179350429Y-73947927D01*
X179346065Y-73433643D01*
X179340787Y-72968832D01*
X179334711Y-72562739D01*
X179327952Y-72224606D01*
X179320626Y-71963677D01*
X179312846Y-71789193D01*
X179307507Y-71725789D01*
X179238262Y-71378510D01*
X179120642Y-71095600D01*
X178938332Y-70849228D01*
X178675013Y-70611558D01*
X178637068Y-70582203D01*
X178323840Y-70400854D01*
X177964691Y-70288120D01*
X177586796Y-70247014D01*
X177217327Y-70280549D01*
X176890122Y-70388487D01*
X176698012Y-70506189D01*
X176492551Y-70671828D01*
X176296398Y-70862537D01*
X176132210Y-71055447D01*
X176022648Y-71227691D01*
X175998335Y-71288493D01*
X175982929Y-71388904D01*
X175967417Y-71582373D01*
X175952008Y-71860154D01*
X175936913Y-72213501D01*
X175922341Y-72633669D01*
X175908503Y-73111912D01*
X175895609Y-73639484D01*
X175883870Y-74207641D01*
X175873496Y-74807636D01*
X175864696Y-75430723D01*
X175857681Y-76068158D01*
X175852662Y-76711194D01*
X175849849Y-77351087D01*
X175849572Y-77476753D01*
X175846243Y-79296493D01*
X172412161Y-79296493D01*
X172451856Y-79087132D01*
X172456200Y-79013525D01*
X172459771Y-78848469D01*
X172462605Y-78600598D01*
X172464734Y-78278542D01*
X172466192Y-77890935D01*
X172467014Y-77446407D01*
X172467232Y-76953593D01*
X172466882Y-76421123D01*
X172465996Y-75857630D01*
X172464609Y-75271746D01*
X172462753Y-74672103D01*
X172460464Y-74067334D01*
X172457775Y-73466070D01*
X172454720Y-72876945D01*
X172451332Y-72308589D01*
X172447646Y-71769636D01*
X172443695Y-71268718D01*
X172439513Y-70814466D01*
X172435133Y-70415513D01*
X172430591Y-70080491D01*
X172425918Y-69818033D01*
X172421150Y-69636770D01*
X172416320Y-69545335D01*
X172414440Y-69535899D01*
X172364385Y-69513995D01*
X172235130Y-69462623D01*
X172042802Y-69388051D01*
X171803526Y-69296550D01*
X171616189Y-69225576D01*
X171343937Y-69121739D01*
X171098166Y-69026005D01*
X170897851Y-68945920D01*
X170761968Y-68889027D01*
X170717886Y-68868435D01*
X170678310Y-68844180D01*
X170649105Y-68810374D01*
X170628711Y-68752754D01*
X170615564Y-68657053D01*
X170608102Y-68509006D01*
X170604764Y-68294349D01*
X170603986Y-67998816D01*
X170604060Y-67829071D01*
X170604762Y-66851002D01*
X171151254Y-66689709D01*
X171449531Y-66596541D01*
X171786993Y-66483200D01*
X172108731Y-66368387D01*
X172237109Y-66319926D01*
X172483481Y-66222732D01*
X172655825Y-66140530D01*
X172771415Y-66052085D01*
X172847525Y-65936162D01*
X172901430Y-65771523D01*
X172950403Y-65536935D01*
X172973166Y-65415076D01*
X173148722Y-64748249D01*
X173421256Y-64106087D01*
X173787559Y-63495189D01*
X174112525Y-63072532D01*
X174505738Y-62657116D01*
X174926863Y-62314828D01*
X175407260Y-62021285D01*
X175574288Y-61935796D01*
X176091311Y-61681291D01*
X176108757Y-61182679D01*
X176119758Y-60944383D01*
X176137086Y-60780131D01*
X176167101Y-60662160D01*
X176216161Y-60562710D01*
X176268715Y-60484368D01*
X176383088Y-60323836D01*
X176516949Y-60135586D01*
X176586851Y-60037133D01*
X176682810Y-59881770D01*
X176746601Y-59739955D01*
X176762475Y-59666643D01*
X176739993Y-59558090D01*
X176681413Y-59397571D01*
X176609770Y-59241182D01*
X176481018Y-58884966D01*
X176452741Y-58529276D01*
X176525029Y-58179999D01*
X176591195Y-58024871D01*
X176776362Y-57755735D01*
X177016359Y-57558961D01*
X177294327Y-57434627D01*
X177593408Y-57382813D01*
X177896742Y-57403598D01*
X177896742Y-57403598D01*
G37*
X177896742Y-57403598D02*
X178187472Y-57497061D01*
X178448738Y-57663282D01*
X178663681Y-57902340D01*
X178731043Y-58014820D01*
X178815688Y-58253343D01*
X178848638Y-58527626D01*
X178833022Y-58809699D01*
X178771967Y-59071589D01*
X178668601Y-59285325D01*
X178577556Y-59387395D01*
X178500797Y-59502900D01*
X178506785Y-59657968D01*
X178596745Y-59857698D01*
X178740694Y-60067104D01*
X178913947Y-60301656D01*
X179032901Y-60491169D01*
X179111098Y-60666508D01*
X179162085Y-60858534D01*
X179199407Y-61098110D01*
X179201932Y-61118047D01*
X179232876Y-61325647D01*
X179268209Y-61503530D01*
X179301353Y-61619703D01*
X179308165Y-61634687D01*
X179379697Y-61708213D01*
X179514516Y-61802698D01*
X179678520Y-61895078D01*
X180287448Y-62256686D01*
X180831370Y-62692288D01*
X181304690Y-63194242D01*
X181701808Y-63754904D01*
X182017126Y-64366630D01*
X182245047Y-65021779D01*
X182357775Y-65553006D01*
X182389963Y-65754821D01*
X182419242Y-65929514D01*
X182439709Y-66041951D01*
X182440953Y-66047990D01*
X182461291Y-66092687D01*
X182511240Y-66136551D01*
X182603859Y-66185282D01*
X182752208Y-66244579D01*
X182969346Y-66320141D01*
X183268332Y-66417668D01*
X183342175Y-66441292D01*
X183654092Y-66539623D01*
X183960343Y-66633962D01*
X184236442Y-66716922D01*
X184457900Y-66781117D01*
X184570026Y-66811638D01*
X184794449Y-66881275D01*
X184935969Y-66956169D01*
X185000662Y-67023822D01*
X185046176Y-67147646D01*
X185079624Y-67345580D01*
X185099760Y-67590507D01*
X185105338Y-67855309D01*
X185095112Y-68112870D01*
X185067836Y-68336073D01*
X185062268Y-68364573D01*
X185002880Y-68650647D01*
X184560333Y-68876316D01*
X184317662Y-68993055D01*
X184023746Y-69124079D01*
X183723347Y-69249812D01*
X183555376Y-69315803D01*
X182992966Y-69529620D01*
X182931603Y-76177879D01*
X182923950Y-76992056D01*
X182916293Y-77777896D01*
X182908705Y-78529415D01*
X182901256Y-79240627D01*
X182894019Y-79905548D01*
X182887065Y-80518192D01*
X182880466Y-81072576D01*
X182874294Y-81562713D01*
X182868620Y-81982620D01*
X182863517Y-82326311D01*
X182859056Y-82587801D01*
X182855308Y-82761106D01*
X182852347Y-82840240D01*
X182851680Y-82844696D01*
X182795801Y-82857677D01*
X182664122Y-82875538D01*
X182482309Y-82894919D01*
X182431966Y-82899614D01*
X182030812Y-82935972D01*
X181973120Y-83597695D01*
X181947932Y-83872194D01*
X181921743Y-84133345D01*
X181897613Y-84351991D01*
X181878603Y-84498974D01*
X181878262Y-84501202D01*
X181841096Y-84742986D01*
X181452387Y-84743217D01*
X181228273Y-84746565D01*
X180947197Y-84755363D01*
X180653758Y-84768062D01*
X180503758Y-84776121D01*
X179943838Y-84808793D01*
X179805516Y-85373986D01*
X179609930Y-86004520D01*
X179345519Y-86566193D01*
X179004958Y-87069713D01*
X178580922Y-87525788D01*
X178066089Y-87945128D01*
X178028832Y-87971705D01*
X177846013Y-88101649D01*
X177693382Y-88211145D01*
X177590740Y-88285933D01*
X177559633Y-88309657D01*
X177555796Y-88369041D01*
X177572600Y-88510067D01*
X177607212Y-88715319D01*
X177656799Y-88967377D01*
X177696835Y-89153082D01*
X177832968Y-89797665D01*
X177944815Y-90408009D01*
X178034207Y-91003241D01*
X178102978Y-91602486D01*
X178152961Y-92224871D01*
X178185989Y-92889521D01*
X178203895Y-93615563D01*
X178208511Y-94422122D01*
X178208361Y-94490681D01*
X178206280Y-94991627D01*
X178202580Y-95405136D01*
X178196625Y-95745570D01*
X178187775Y-96027293D01*
X178175391Y-96264666D01*
X178158836Y-96472052D01*
X178137471Y-96663813D01*
X178110658Y-96854312D01*
X178100369Y-96920201D01*
X178044154Y-97247129D01*
X177990355Y-97485750D01*
X177931900Y-97649118D01*
X177861713Y-97750285D01*
X177772721Y-97802304D01*
X177657849Y-97818230D01*
X177613907Y-97817817D01*
X177443673Y-97808263D01*
X177295325Y-97793418D01*
X177271493Y-97789871D01*
X176768986Y-97706184D01*
X176221606Y-97613755D01*
X175637759Y-97514086D01*
X175025851Y-97408682D01*
X174394286Y-97299045D01*
X173751470Y-97186679D01*
X173105808Y-97073088D01*
X172465707Y-96959774D01*
X171839571Y-96848242D01*
X171235806Y-96739994D01*
X170662818Y-96636533D01*
X170129011Y-96539365D01*
X169642791Y-96449990D01*
X169212564Y-96369914D01*
X168846736Y-96300640D01*
X168553711Y-96243670D01*
X168341894Y-96200508D01*
X168219693Y-96172658D01*
X168202895Y-96167877D01*
X168175219Y-96153726D01*
X168153580Y-96123342D01*
X168137235Y-96065374D01*
X168125439Y-95968467D01*
X168117452Y-95821267D01*
X168112530Y-95612420D01*
X168109929Y-95330573D01*
X168108907Y-94964373D01*
X168108751Y-94729035D01*
X168103157Y-94050307D01*
X168085240Y-93455237D01*
X168052652Y-92926167D01*
X168003044Y-92445440D01*
X167934068Y-91995398D01*
X167843376Y-91558387D01*
X167728619Y-91116747D01*
X167587449Y-90652823D01*
X167552267Y-90544966D01*
X167176678Y-89565659D01*
X166712334Y-88630002D01*
X166164722Y-87743703D01*
X165539334Y-86912467D01*
X164841660Y-86142001D01*
X164077187Y-85438011D01*
X163251408Y-84806205D01*
X162369810Y-84252289D01*
X161437884Y-83781970D01*
X160792524Y-83518120D01*
X160593350Y-83441520D01*
X160435867Y-83376153D01*
X160340571Y-83330804D01*
X160321682Y-83316337D01*
X160364655Y-83284919D01*
X160478545Y-83226753D01*
X160640038Y-83153618D01*
X160664780Y-83142999D01*
X161742003Y-82633048D01*
X162787911Y-82037689D01*
X163793600Y-81364615D01*
X164750166Y-80621515D01*
X165648708Y-79816081D01*
X166480321Y-78956004D01*
X167236101Y-78048975D01*
X167907147Y-77102685D01*
X168196555Y-76636749D01*
X168342599Y-76400362D01*
X168450785Y-76249140D01*
X168526598Y-76176132D01*
X168566037Y-76168714D01*
X168646867Y-76214325D01*
X168793568Y-76311533D01*
X168991480Y-76449657D01*
X169225940Y-76618016D01*
X169482288Y-76805928D01*
X169745862Y-77002713D01*
X170002002Y-77197690D01*
X170236046Y-77380178D01*
X170311749Y-77440501D01*
X170518587Y-77611347D01*
X170776896Y-77832160D01*
X171064011Y-78083138D01*
X171357267Y-78344478D01*
X171620967Y-78584370D01*
X172409518Y-79310436D01*
X172412161Y-79296493D01*
X175846243Y-79296493D01*
X179358467Y-79296493D01*
X179356896Y-75695190D01*
X179355960Y-75087944D01*
X179353766Y-74502441D01*
X179350429Y-73947927D01*
X179346065Y-73433643D01*
X179340787Y-72968832D01*
X179334711Y-72562739D01*
X179327952Y-72224606D01*
X179320626Y-71963677D01*
X179312846Y-71789193D01*
X179307507Y-71725789D01*
X179238262Y-71378510D01*
X179120642Y-71095600D01*
X178938332Y-70849228D01*
X178675013Y-70611558D01*
X178637068Y-70582203D01*
X178323840Y-70400854D01*
X177964691Y-70288120D01*
X177586796Y-70247014D01*
X177217327Y-70280549D01*
X176890122Y-70388487D01*
X176698012Y-70506189D01*
X176492551Y-70671828D01*
X176296398Y-70862537D01*
X176132210Y-71055447D01*
X176022648Y-71227691D01*
X175998335Y-71288493D01*
X175982929Y-71388904D01*
X175967417Y-71582373D01*
X175952008Y-71860154D01*
X175936913Y-72213501D01*
X175922341Y-72633669D01*
X175908503Y-73111912D01*
X175895609Y-73639484D01*
X175883870Y-74207641D01*
X175873496Y-74807636D01*
X175864696Y-75430723D01*
X175857681Y-76068158D01*
X175852662Y-76711194D01*
X175849849Y-77351087D01*
X175849572Y-77476753D01*
X175846243Y-79296493D01*
X172412161Y-79296493D01*
X172451856Y-79087132D01*
X172456200Y-79013525D01*
X172459771Y-78848469D01*
X172462605Y-78600598D01*
X172464734Y-78278542D01*
X172466192Y-77890935D01*
X172467014Y-77446407D01*
X172467232Y-76953593D01*
X172466882Y-76421123D01*
X172465996Y-75857630D01*
X172464609Y-75271746D01*
X172462753Y-74672103D01*
X172460464Y-74067334D01*
X172457775Y-73466070D01*
X172454720Y-72876945D01*
X172451332Y-72308589D01*
X172447646Y-71769636D01*
X172443695Y-71268718D01*
X172439513Y-70814466D01*
X172435133Y-70415513D01*
X172430591Y-70080491D01*
X172425918Y-69818033D01*
X172421150Y-69636770D01*
X172416320Y-69545335D01*
X172414440Y-69535899D01*
X172364385Y-69513995D01*
X172235130Y-69462623D01*
X172042802Y-69388051D01*
X171803526Y-69296550D01*
X171616189Y-69225576D01*
X171343937Y-69121739D01*
X171098166Y-69026005D01*
X170897851Y-68945920D01*
X170761968Y-68889027D01*
X170717886Y-68868435D01*
X170678310Y-68844180D01*
X170649105Y-68810374D01*
X170628711Y-68752754D01*
X170615564Y-68657053D01*
X170608102Y-68509006D01*
X170604764Y-68294349D01*
X170603986Y-67998816D01*
X170604060Y-67829071D01*
X170604762Y-66851002D01*
X171151254Y-66689709D01*
X171449531Y-66596541D01*
X171786993Y-66483200D01*
X172108731Y-66368387D01*
X172237109Y-66319926D01*
X172483481Y-66222732D01*
X172655825Y-66140530D01*
X172771415Y-66052085D01*
X172847525Y-65936162D01*
X172901430Y-65771523D01*
X172950403Y-65536935D01*
X172973166Y-65415076D01*
X173148722Y-64748249D01*
X173421256Y-64106087D01*
X173787559Y-63495189D01*
X174112525Y-63072532D01*
X174505738Y-62657116D01*
X174926863Y-62314828D01*
X175407260Y-62021285D01*
X175574288Y-61935796D01*
X176091311Y-61681291D01*
X176108757Y-61182679D01*
X176119758Y-60944383D01*
X176137086Y-60780131D01*
X176167101Y-60662160D01*
X176216161Y-60562710D01*
X176268715Y-60484368D01*
X176383088Y-60323836D01*
X176516949Y-60135586D01*
X176586851Y-60037133D01*
X176682810Y-59881770D01*
X176746601Y-59739955D01*
X176762475Y-59666643D01*
X176739993Y-59558090D01*
X176681413Y-59397571D01*
X176609770Y-59241182D01*
X176481018Y-58884966D01*
X176452741Y-58529276D01*
X176525029Y-58179999D01*
X176591195Y-58024871D01*
X176776362Y-57755735D01*
X177016359Y-57558961D01*
X177294327Y-57434627D01*
X177593408Y-57382813D01*
X177896742Y-57403598D01*
G36*
X158454429Y-95395617D02*
X158602404Y-95442186D01*
X158813320Y-95538488D01*
X159068700Y-95673141D01*
X159350068Y-95834762D01*
X159638950Y-96011968D01*
X159916867Y-96193374D01*
X160165345Y-96367599D01*
X160365907Y-96523259D01*
X160500077Y-96648970D01*
X160512649Y-96663701D01*
X160533063Y-96711102D01*
X160514900Y-96774805D01*
X160448387Y-96870705D01*
X160323753Y-97014695D01*
X160242112Y-97103726D01*
X160095424Y-97252597D01*
X159918398Y-97417965D01*
X159728646Y-97585098D01*
X159543783Y-97739266D01*
X159381419Y-97865738D01*
X159259170Y-97949780D01*
X159198067Y-97976965D01*
X159164136Y-97934781D01*
X159098245Y-97821762D01*
X159012341Y-97658922D01*
X158975582Y-97585617D01*
X158876725Y-97366277D01*
X158765680Y-97088455D01*
X158650543Y-96776012D01*
X158539410Y-96452808D01*
X158440376Y-96142705D01*
X158361539Y-95869563D01*
X158310995Y-95657243D01*
X158300825Y-95596995D01*
X158269101Y-95365543D01*
X158454429Y-95395617D01*
X158454429Y-95395617D01*
G37*
X158454429Y-95395617D02*
X158602404Y-95442186D01*
X158813320Y-95538488D01*
X159068700Y-95673141D01*
X159350068Y-95834762D01*
X159638950Y-96011968D01*
X159916867Y-96193374D01*
X160165345Y-96367599D01*
X160365907Y-96523259D01*
X160500077Y-96648970D01*
X160512649Y-96663701D01*
X160533063Y-96711102D01*
X160514900Y-96774805D01*
X160448387Y-96870705D01*
X160323753Y-97014695D01*
X160242112Y-97103726D01*
X160095424Y-97252597D01*
X159918398Y-97417965D01*
X159728646Y-97585098D01*
X159543783Y-97739266D01*
X159381419Y-97865738D01*
X159259170Y-97949780D01*
X159198067Y-97976965D01*
X159164136Y-97934781D01*
X159098245Y-97821762D01*
X159012341Y-97658922D01*
X158975582Y-97585617D01*
X158876725Y-97366277D01*
X158765680Y-97088455D01*
X158650543Y-96776012D01*
X158539410Y-96452808D01*
X158440376Y-96142705D01*
X158361539Y-95869563D01*
X158310995Y-95657243D01*
X158300825Y-95596995D01*
X158269101Y-95365543D01*
X158454429Y-95395617D01*
G36*
X161861298Y-98074261D02*
X161647765Y-98318543D01*
X161422629Y-98554469D01*
X161143894Y-98814358D01*
X160844799Y-99069040D01*
X160558582Y-99289348D01*
X160473898Y-99348667D01*
X160279647Y-99475057D01*
X160067664Y-99603985D01*
X159858895Y-99723779D01*
X159674285Y-99822762D01*
X159534779Y-99889263D01*
X159463696Y-99911723D01*
X159423943Y-99866757D01*
X159405244Y-99754705D01*
X159404960Y-99736997D01*
X159422904Y-99603683D01*
X159486690Y-99537829D01*
X159510175Y-99528877D01*
X159656028Y-99460788D01*
X159858984Y-99335905D01*
X160101876Y-99167060D01*
X160367535Y-98967087D01*
X160638795Y-98748818D01*
X160898488Y-98525086D01*
X161087152Y-98350045D01*
X161628784Y-97826761D01*
X161861298Y-98074261D01*
X161861298Y-98074261D01*
G37*
X161861298Y-98074261D02*
X161647765Y-98318543D01*
X161422629Y-98554469D01*
X161143894Y-98814358D01*
X160844799Y-99069040D01*
X160558582Y-99289348D01*
X160473898Y-99348667D01*
X160279647Y-99475057D01*
X160067664Y-99603985D01*
X159858895Y-99723779D01*
X159674285Y-99822762D01*
X159534779Y-99889263D01*
X159463696Y-99911723D01*
X159423943Y-99866757D01*
X159405244Y-99754705D01*
X159404960Y-99736997D01*
X159422904Y-99603683D01*
X159486690Y-99537829D01*
X159510175Y-99528877D01*
X159656028Y-99460788D01*
X159858984Y-99335905D01*
X160101876Y-99167060D01*
X160367535Y-98967087D01*
X160638795Y-98748818D01*
X160898488Y-98525086D01*
X161087152Y-98350045D01*
X161628784Y-97826761D01*
X161861298Y-98074261D01*
G36*
X137028757Y-94939952D02*
X136966545Y-95085903D01*
X136858906Y-95299448D01*
X136715772Y-95562746D01*
X136547076Y-95857954D01*
X136362750Y-96167231D01*
X136195302Y-96437175D01*
X136134087Y-96538079D01*
X136087454Y-96632253D01*
X136051309Y-96737987D01*
X136021559Y-96873572D01*
X135994110Y-97057297D01*
X135964870Y-97307454D01*
X135933288Y-97607916D01*
X135896350Y-97950297D01*
X135855310Y-98304161D01*
X135814018Y-98637937D01*
X135776327Y-98920056D01*
X135757815Y-99046393D01*
X135723006Y-99261547D01*
X135678505Y-99520591D01*
X135627595Y-99806129D01*
X135573562Y-100100764D01*
X135519692Y-100387102D01*
X135469268Y-100647747D01*
X135425576Y-100865303D01*
X135391902Y-101022373D01*
X135371530Y-101101563D01*
X135368597Y-101107463D01*
X135324934Y-101084104D01*
X135223799Y-101011300D01*
X135086307Y-100904322D01*
X135073898Y-100894366D01*
X134718468Y-100626989D01*
X134295317Y-100339215D01*
X133831300Y-100048325D01*
X133353272Y-99771597D01*
X133193028Y-99684184D01*
X132950752Y-99552496D01*
X132729882Y-99429317D01*
X132551524Y-99326637D01*
X132436785Y-99256445D01*
X132420410Y-99245304D01*
X132281568Y-99146440D01*
X132387004Y-98829182D01*
X132541465Y-98469331D01*
X132773086Y-98072688D01*
X133070292Y-97652363D01*
X133421509Y-97221468D01*
X133815165Y-96793117D01*
X134239685Y-96380420D01*
X134683497Y-95996490D01*
X135135026Y-95654440D01*
X135271724Y-95560976D01*
X135529676Y-95398044D01*
X135811839Y-95234538D01*
X136100200Y-95079390D01*
X136376749Y-94941530D01*
X136623473Y-94829888D01*
X136822361Y-94753395D01*
X136955402Y-94720981D01*
X136966901Y-94720471D01*
X137103791Y-94719739D01*
X137028757Y-94939952D01*
X137028757Y-94939952D01*
G37*
X137028757Y-94939952D02*
X136966545Y-95085903D01*
X136858906Y-95299448D01*
X136715772Y-95562746D01*
X136547076Y-95857954D01*
X136362750Y-96167231D01*
X136195302Y-96437175D01*
X136134087Y-96538079D01*
X136087454Y-96632253D01*
X136051309Y-96737987D01*
X136021559Y-96873572D01*
X135994110Y-97057297D01*
X135964870Y-97307454D01*
X135933288Y-97607916D01*
X135896350Y-97950297D01*
X135855310Y-98304161D01*
X135814018Y-98637937D01*
X135776327Y-98920056D01*
X135757815Y-99046393D01*
X135723006Y-99261547D01*
X135678505Y-99520591D01*
X135627595Y-99806129D01*
X135573562Y-100100764D01*
X135519692Y-100387102D01*
X135469268Y-100647747D01*
X135425576Y-100865303D01*
X135391902Y-101022373D01*
X135371530Y-101101563D01*
X135368597Y-101107463D01*
X135324934Y-101084104D01*
X135223799Y-101011300D01*
X135086307Y-100904322D01*
X135073898Y-100894366D01*
X134718468Y-100626989D01*
X134295317Y-100339215D01*
X133831300Y-100048325D01*
X133353272Y-99771597D01*
X133193028Y-99684184D01*
X132950752Y-99552496D01*
X132729882Y-99429317D01*
X132551524Y-99326637D01*
X132436785Y-99256445D01*
X132420410Y-99245304D01*
X132281568Y-99146440D01*
X132387004Y-98829182D01*
X132541465Y-98469331D01*
X132773086Y-98072688D01*
X133070292Y-97652363D01*
X133421509Y-97221468D01*
X133815165Y-96793117D01*
X134239685Y-96380420D01*
X134683497Y-95996490D01*
X135135026Y-95654440D01*
X135271724Y-95560976D01*
X135529676Y-95398044D01*
X135811839Y-95234538D01*
X136100200Y-95079390D01*
X136376749Y-94941530D01*
X136623473Y-94829888D01*
X136822361Y-94753395D01*
X136955402Y-94720981D01*
X136966901Y-94720471D01*
X137103791Y-94719739D01*
X137028757Y-94939952D01*
G36*
X131435302Y-104056768D02*
X131954085Y-104419514D01*
X132414593Y-104818135D01*
X132836593Y-105272409D01*
X133239852Y-105802114D01*
X133368158Y-105990771D01*
X133560897Y-106283548D01*
X133702243Y-106507581D01*
X133798323Y-106678121D01*
X133855260Y-106810424D01*
X133879182Y-106919740D01*
X133876213Y-107021325D01*
X133852479Y-107130430D01*
X133841495Y-107169436D01*
X133769104Y-107419739D01*
X133581795Y-107018457D01*
X133268561Y-106438835D01*
X132884818Y-105879728D01*
X132450332Y-105366524D01*
X131984866Y-104924614D01*
X131894140Y-104850475D01*
X131720166Y-104696900D01*
X131563765Y-104532526D01*
X131455912Y-104390245D01*
X131447974Y-104376700D01*
X131351356Y-104210333D01*
X131255321Y-104053551D01*
X131229098Y-104012904D01*
X131130773Y-103863784D01*
X131435302Y-104056768D01*
X131435302Y-104056768D01*
G37*
X131435302Y-104056768D02*
X131954085Y-104419514D01*
X132414593Y-104818135D01*
X132836593Y-105272409D01*
X133239852Y-105802114D01*
X133368158Y-105990771D01*
X133560897Y-106283548D01*
X133702243Y-106507581D01*
X133798323Y-106678121D01*
X133855260Y-106810424D01*
X133879182Y-106919740D01*
X133876213Y-107021325D01*
X133852479Y-107130430D01*
X133841495Y-107169436D01*
X133769104Y-107419739D01*
X133581795Y-107018457D01*
X133268561Y-106438835D01*
X132884818Y-105879728D01*
X132450332Y-105366524D01*
X131984866Y-104924614D01*
X131894140Y-104850475D01*
X131720166Y-104696900D01*
X131563765Y-104532526D01*
X131455912Y-104390245D01*
X131447974Y-104376700D01*
X131351356Y-104210333D01*
X131255321Y-104053551D01*
X131229098Y-104012904D01*
X131130773Y-103863784D01*
X131435302Y-104056768D01*
G36*
X132083772Y-107394666D02*
X132199117Y-107628902D01*
X132316964Y-107931348D01*
X132426779Y-108269250D01*
X132518028Y-108609853D01*
X132580174Y-108920402D01*
X132585051Y-108953213D01*
X132625060Y-109584258D01*
X132571888Y-110229123D01*
X132429554Y-110871373D01*
X132202083Y-111494574D01*
X131893495Y-112082291D01*
X131774386Y-112265883D01*
X131605778Y-112484692D01*
X131382943Y-112734973D01*
X131133908Y-112988214D01*
X130886700Y-113215904D01*
X130670892Y-113388432D01*
X130121092Y-113723468D01*
X129529956Y-113980630D01*
X128912931Y-114156795D01*
X128285464Y-114248840D01*
X127663004Y-114253639D01*
X127060998Y-114168070D01*
X126949057Y-114141042D01*
X126286257Y-113929493D01*
X125694557Y-113653382D01*
X125160979Y-113305548D01*
X124685932Y-112892123D01*
X124258973Y-112402330D01*
X123900774Y-111851815D01*
X123620850Y-111258978D01*
X123428717Y-110642218D01*
X123371667Y-110350698D01*
X123351589Y-110205032D01*
X123344323Y-110111235D01*
X123347646Y-110092084D01*
X123395658Y-110117383D01*
X123505458Y-110183750D01*
X123653399Y-110276886D01*
X123655293Y-110278098D01*
X124099098Y-110528172D01*
X124592066Y-110748640D01*
X125046243Y-110905653D01*
X125248433Y-110975800D01*
X125504247Y-111080735D01*
X125778559Y-111205366D01*
X125999698Y-111315339D01*
X126446820Y-111537265D01*
X126831732Y-111701865D01*
X127171859Y-111815238D01*
X127484620Y-111883486D01*
X127689888Y-111907181D01*
X128190957Y-111902107D01*
X128652518Y-111806760D01*
X128998987Y-111665076D01*
X129231423Y-111526390D01*
X129494255Y-111334203D01*
X129772986Y-111102873D01*
X130053121Y-110846759D01*
X130320164Y-110580218D01*
X130559619Y-110317610D01*
X130756990Y-110073292D01*
X130897782Y-109861622D01*
X130961127Y-109721549D01*
X130993055Y-109573804D01*
X130983764Y-109438840D01*
X130935238Y-109277607D01*
X130876068Y-109101355D01*
X130857858Y-108997075D01*
X130885207Y-108941650D01*
X130962714Y-108911965D01*
X131009992Y-108901879D01*
X131198122Y-108816973D01*
X131384771Y-108647649D01*
X131559033Y-108410854D01*
X131710004Y-108123536D01*
X131826781Y-107802644D01*
X131887419Y-107538137D01*
X131950124Y-107165986D01*
X132083772Y-107394666D01*
X132083772Y-107394666D01*
G37*
X132083772Y-107394666D02*
X132199117Y-107628902D01*
X132316964Y-107931348D01*
X132426779Y-108269250D01*
X132518028Y-108609853D01*
X132580174Y-108920402D01*
X132585051Y-108953213D01*
X132625060Y-109584258D01*
X132571888Y-110229123D01*
X132429554Y-110871373D01*
X132202083Y-111494574D01*
X131893495Y-112082291D01*
X131774386Y-112265883D01*
X131605778Y-112484692D01*
X131382943Y-112734973D01*
X131133908Y-112988214D01*
X130886700Y-113215904D01*
X130670892Y-113388432D01*
X130121092Y-113723468D01*
X129529956Y-113980630D01*
X128912931Y-114156795D01*
X128285464Y-114248840D01*
X127663004Y-114253639D01*
X127060998Y-114168070D01*
X126949057Y-114141042D01*
X126286257Y-113929493D01*
X125694557Y-113653382D01*
X125160979Y-113305548D01*
X124685932Y-112892123D01*
X124258973Y-112402330D01*
X123900774Y-111851815D01*
X123620850Y-111258978D01*
X123428717Y-110642218D01*
X123371667Y-110350698D01*
X123351589Y-110205032D01*
X123344323Y-110111235D01*
X123347646Y-110092084D01*
X123395658Y-110117383D01*
X123505458Y-110183750D01*
X123653399Y-110276886D01*
X123655293Y-110278098D01*
X124099098Y-110528172D01*
X124592066Y-110748640D01*
X125046243Y-110905653D01*
X125248433Y-110975800D01*
X125504247Y-111080735D01*
X125778559Y-111205366D01*
X125999698Y-111315339D01*
X126446820Y-111537265D01*
X126831732Y-111701865D01*
X127171859Y-111815238D01*
X127484620Y-111883486D01*
X127689888Y-111907181D01*
X128190957Y-111902107D01*
X128652518Y-111806760D01*
X128998987Y-111665076D01*
X129231423Y-111526390D01*
X129494255Y-111334203D01*
X129772986Y-111102873D01*
X130053121Y-110846759D01*
X130320164Y-110580218D01*
X130559619Y-110317610D01*
X130756990Y-110073292D01*
X130897782Y-109861622D01*
X130961127Y-109721549D01*
X130993055Y-109573804D01*
X130983764Y-109438840D01*
X130935238Y-109277607D01*
X130876068Y-109101355D01*
X130857858Y-108997075D01*
X130885207Y-108941650D01*
X130962714Y-108911965D01*
X131009992Y-108901879D01*
X131198122Y-108816973D01*
X131384771Y-108647649D01*
X131559033Y-108410854D01*
X131710004Y-108123536D01*
X131826781Y-107802644D01*
X131887419Y-107538137D01*
X131950124Y-107165986D01*
X132083772Y-107394666D01*
G36*
X121745076Y-108361423D02*
X121798942Y-108479138D01*
X121835121Y-108581580D01*
X121856179Y-108691702D01*
X121864679Y-108832459D01*
X121863186Y-109026803D01*
X121854263Y-109297689D01*
X121853110Y-109328557D01*
X121862912Y-110135182D01*
X121956685Y-110887683D01*
X122136957Y-111593016D01*
X122406255Y-112258139D01*
X122767107Y-112890007D01*
X123222039Y-113495578D01*
X123467122Y-113771000D01*
X124043995Y-114316183D01*
X124672244Y-114776256D01*
X125344408Y-115149189D01*
X126053028Y-115432953D01*
X126790645Y-115625517D01*
X127549801Y-115724853D01*
X128323034Y-115728931D01*
X129102887Y-115635722D01*
X129754660Y-115481621D01*
X130056769Y-115376111D01*
X130408650Y-115225424D01*
X130778618Y-115045451D01*
X131134991Y-114852081D01*
X131446087Y-114661208D01*
X131587125Y-114562517D01*
X132156852Y-114081203D01*
X132674758Y-113529747D01*
X133127642Y-112925315D01*
X133502307Y-112285075D01*
X133730832Y-111774258D01*
X133804639Y-111591888D01*
X133852514Y-111497224D01*
X133880379Y-111481284D01*
X133893355Y-111527740D01*
X133878267Y-111622220D01*
X133823728Y-111798284D01*
X133733557Y-112045366D01*
X133611573Y-112352899D01*
X133489468Y-112645164D01*
X133069932Y-113629759D01*
X132506685Y-114190164D01*
X131906173Y-114730945D01*
X131285355Y-115175724D01*
X130634749Y-115529723D01*
X129944876Y-115798168D01*
X129269830Y-115973559D01*
X129079446Y-116002685D01*
X128812513Y-116029861D01*
X128494286Y-116053086D01*
X128150019Y-116070362D01*
X127973097Y-116076223D01*
X127642519Y-116084437D01*
X127390785Y-116087421D01*
X127194988Y-116083252D01*
X127032221Y-116070007D01*
X126879577Y-116045764D01*
X126714149Y-116008601D01*
X126513033Y-115956594D01*
X126496944Y-115952326D01*
X125691080Y-115688618D01*
X124940451Y-115342286D01*
X124249442Y-114918009D01*
X123622442Y-114420465D01*
X123063837Y-113854334D01*
X122578014Y-113224294D01*
X122169361Y-112535023D01*
X121842265Y-111791199D01*
X121601111Y-110997502D01*
X121526815Y-110652004D01*
X121499493Y-110436528D01*
X121481636Y-110146527D01*
X121473035Y-109808818D01*
X121473479Y-109450219D01*
X121482760Y-109097547D01*
X121500666Y-108777620D01*
X121526989Y-108517255D01*
X121544332Y-108412325D01*
X121611282Y-108081463D01*
X121745076Y-108361423D01*
X121745076Y-108361423D01*
G37*
X121745076Y-108361423D02*
X121798942Y-108479138D01*
X121835121Y-108581580D01*
X121856179Y-108691702D01*
X121864679Y-108832459D01*
X121863186Y-109026803D01*
X121854263Y-109297689D01*
X121853110Y-109328557D01*
X121862912Y-110135182D01*
X121956685Y-110887683D01*
X122136957Y-111593016D01*
X122406255Y-112258139D01*
X122767107Y-112890007D01*
X123222039Y-113495578D01*
X123467122Y-113771000D01*
X124043995Y-114316183D01*
X124672244Y-114776256D01*
X125344408Y-115149189D01*
X126053028Y-115432953D01*
X126790645Y-115625517D01*
X127549801Y-115724853D01*
X128323034Y-115728931D01*
X129102887Y-115635722D01*
X129754660Y-115481621D01*
X130056769Y-115376111D01*
X130408650Y-115225424D01*
X130778618Y-115045451D01*
X131134991Y-114852081D01*
X131446087Y-114661208D01*
X131587125Y-114562517D01*
X132156852Y-114081203D01*
X132674758Y-113529747D01*
X133127642Y-112925315D01*
X133502307Y-112285075D01*
X133730832Y-111774258D01*
X133804639Y-111591888D01*
X133852514Y-111497224D01*
X133880379Y-111481284D01*
X133893355Y-111527740D01*
X133878267Y-111622220D01*
X133823728Y-111798284D01*
X133733557Y-112045366D01*
X133611573Y-112352899D01*
X133489468Y-112645164D01*
X133069932Y-113629759D01*
X132506685Y-114190164D01*
X131906173Y-114730945D01*
X131285355Y-115175724D01*
X130634749Y-115529723D01*
X129944876Y-115798168D01*
X129269830Y-115973559D01*
X129079446Y-116002685D01*
X128812513Y-116029861D01*
X128494286Y-116053086D01*
X128150019Y-116070362D01*
X127973097Y-116076223D01*
X127642519Y-116084437D01*
X127390785Y-116087421D01*
X127194988Y-116083252D01*
X127032221Y-116070007D01*
X126879577Y-116045764D01*
X126714149Y-116008601D01*
X126513033Y-115956594D01*
X126496944Y-115952326D01*
X125691080Y-115688618D01*
X124940451Y-115342286D01*
X124249442Y-114918009D01*
X123622442Y-114420465D01*
X123063837Y-113854334D01*
X122578014Y-113224294D01*
X122169361Y-112535023D01*
X121842265Y-111791199D01*
X121601111Y-110997502D01*
X121526815Y-110652004D01*
X121499493Y-110436528D01*
X121481636Y-110146527D01*
X121473035Y-109808818D01*
X121473479Y-109450219D01*
X121482760Y-109097547D01*
X121500666Y-108777620D01*
X121526989Y-108517255D01*
X121544332Y-108412325D01*
X121611282Y-108081463D01*
X121745076Y-108361423D01*
G36*
X147069947Y-117651570D02*
X147098112Y-117669062D01*
X147225748Y-117767904D01*
X147356779Y-117898469D01*
X147467682Y-118033540D01*
X147534931Y-118145901D01*
X147544840Y-118185898D01*
X147521321Y-118261949D01*
X147455659Y-118412783D01*
X147355196Y-118624215D01*
X147227275Y-118882063D01*
X147079240Y-119172142D01*
X146918433Y-119480268D01*
X146752196Y-119792257D01*
X146587872Y-120093926D01*
X146432805Y-120371090D01*
X146294336Y-120609565D01*
X146263925Y-120660235D01*
X146122728Y-120888836D01*
X145961859Y-121141510D01*
X145790771Y-121404272D01*
X145618921Y-121663137D01*
X145455763Y-121904118D01*
X145310754Y-122113230D01*
X145193349Y-122276488D01*
X145113002Y-122379905D01*
X145080723Y-122410321D01*
X145085510Y-122364047D01*
X145110453Y-122237917D01*
X145151529Y-122050963D01*
X145204717Y-121822219D01*
X145207098Y-121812224D01*
X145351448Y-121238544D01*
X145509689Y-120665463D01*
X145673164Y-120122517D01*
X145833214Y-119639241D01*
X145892342Y-119474653D01*
X146020506Y-119144967D01*
X146161131Y-118813232D01*
X146306511Y-118494933D01*
X146448939Y-118205552D01*
X146580707Y-117960574D01*
X146694107Y-117775480D01*
X146781432Y-117665756D01*
X146800366Y-117650513D01*
X146892627Y-117598738D01*
X146967064Y-117598130D01*
X147069947Y-117651570D01*
X147069947Y-117651570D01*
G37*
X147069947Y-117651570D02*
X147098112Y-117669062D01*
X147225748Y-117767904D01*
X147356779Y-117898469D01*
X147467682Y-118033540D01*
X147534931Y-118145901D01*
X147544840Y-118185898D01*
X147521321Y-118261949D01*
X147455659Y-118412783D01*
X147355196Y-118624215D01*
X147227275Y-118882063D01*
X147079240Y-119172142D01*
X146918433Y-119480268D01*
X146752196Y-119792257D01*
X146587872Y-120093926D01*
X146432805Y-120371090D01*
X146294336Y-120609565D01*
X146263925Y-120660235D01*
X146122728Y-120888836D01*
X145961859Y-121141510D01*
X145790771Y-121404272D01*
X145618921Y-121663137D01*
X145455763Y-121904118D01*
X145310754Y-122113230D01*
X145193349Y-122276488D01*
X145113002Y-122379905D01*
X145080723Y-122410321D01*
X145085510Y-122364047D01*
X145110453Y-122237917D01*
X145151529Y-122050963D01*
X145204717Y-121822219D01*
X145207098Y-121812224D01*
X145351448Y-121238544D01*
X145509689Y-120665463D01*
X145673164Y-120122517D01*
X145833214Y-119639241D01*
X145892342Y-119474653D01*
X146020506Y-119144967D01*
X146161131Y-118813232D01*
X146306511Y-118494933D01*
X146448939Y-118205552D01*
X146580707Y-117960574D01*
X146694107Y-117775480D01*
X146781432Y-117665756D01*
X146800366Y-117650513D01*
X146892627Y-117598738D01*
X146967064Y-117598130D01*
X147069947Y-117651570D01*
G36*
X113195180Y-128814383D02*
X113275121Y-128938631D01*
X113297125Y-129128775D01*
X113285262Y-129300418D01*
X113245269Y-129393451D01*
X113161501Y-129430300D01*
X113083621Y-129434769D01*
X112980006Y-129420320D01*
X112927654Y-129356778D01*
X112903551Y-129260592D01*
X112886581Y-129049581D01*
X112917838Y-128887002D01*
X112991601Y-128791068D01*
X113056680Y-128773046D01*
X113195180Y-128814383D01*
X113195180Y-128814383D01*
G37*
X113195180Y-128814383D02*
X113275121Y-128938631D01*
X113297125Y-129128775D01*
X113285262Y-129300418D01*
X113245269Y-129393451D01*
X113161501Y-129430300D01*
X113083621Y-129434769D01*
X112980006Y-129420320D01*
X112927654Y-129356778D01*
X112903551Y-129260592D01*
X112886581Y-129049581D01*
X112917838Y-128887002D01*
X112991601Y-128791068D01*
X113056680Y-128773046D01*
X113195180Y-128814383D01*
G36*
X110777184Y-97496059D02*
X110962803Y-97609749D01*
X111222462Y-97776438D01*
X111547327Y-97990002D01*
X111928559Y-98244320D01*
X112357323Y-98533269D01*
X112824783Y-98850727D01*
X113322101Y-99190572D01*
X113840442Y-99546680D01*
X114370968Y-99912930D01*
X114904844Y-100283199D01*
X115433233Y-100651365D01*
X115947298Y-101011306D01*
X116438203Y-101356898D01*
X116897112Y-101682020D01*
X117315187Y-101980549D01*
X117683593Y-102246363D01*
X117993493Y-102473339D01*
X118236051Y-102655355D01*
X118339930Y-102735960D01*
X118483242Y-102860119D01*
X118587568Y-102971236D01*
X118632227Y-103047003D01*
X118632616Y-103051665D01*
X118608165Y-103125996D01*
X118541410Y-103268033D01*
X118442243Y-103458077D01*
X118320557Y-103676432D01*
X118307039Y-103699918D01*
X117922670Y-104401639D01*
X117606883Y-105062272D01*
X117350460Y-105706388D01*
X117144181Y-106358556D01*
X116978829Y-107043346D01*
X116901338Y-107446468D01*
X116840733Y-107876857D01*
X116795428Y-108380286D01*
X116766017Y-108929058D01*
X116753093Y-109495477D01*
X116757251Y-110051848D01*
X116779085Y-110570473D01*
X116819190Y-111023657D01*
X116823812Y-111061050D01*
X117006682Y-112106552D01*
X117283414Y-113116904D01*
X117650992Y-114087240D01*
X118106399Y-115012692D01*
X118646617Y-115888394D01*
X119268631Y-116709480D01*
X119969423Y-117471083D01*
X120745976Y-118168336D01*
X121595274Y-118796374D01*
X121635822Y-118823373D01*
X122475815Y-119345385D01*
X123292347Y-119779373D01*
X124101309Y-120131200D01*
X124918591Y-120406732D01*
X125760086Y-120611835D01*
X126641682Y-120752374D01*
X126955060Y-120786655D01*
X127396680Y-120815175D01*
X127893545Y-120822733D01*
X128416078Y-120810680D01*
X128934701Y-120780364D01*
X129419837Y-120733134D01*
X129841908Y-120670340D01*
X129943972Y-120650316D01*
X130082382Y-120621358D01*
X130052408Y-120943194D01*
X130043895Y-121186574D01*
X130074112Y-121375539D01*
X130104880Y-121462128D01*
X130164477Y-121613920D01*
X130189641Y-121728166D01*
X130169697Y-121818559D01*
X130093971Y-121898789D01*
X129951790Y-121982550D01*
X129732479Y-122083534D01*
X129563778Y-122156228D01*
X129217471Y-122306570D01*
X128954872Y-122427152D01*
X128764841Y-122525195D01*
X128636238Y-122607922D01*
X128557921Y-122682554D01*
X128518752Y-122756313D01*
X128507588Y-122836423D01*
X128507565Y-122840958D01*
X128540975Y-123004239D01*
X128615898Y-123145135D01*
X128670369Y-123226895D01*
X128689732Y-123305578D01*
X128667235Y-123397401D01*
X128596129Y-123518580D01*
X128469662Y-123685333D01*
X128310531Y-123878685D01*
X128170040Y-124055927D01*
X128054720Y-124218376D01*
X127981486Y-124341409D01*
X127965974Y-124380297D01*
X127959544Y-124501776D01*
X127978032Y-124673475D01*
X127999996Y-124783291D01*
X128027580Y-124911079D01*
X128037753Y-125018903D01*
X128027218Y-125133507D01*
X127992674Y-125281635D01*
X127930823Y-125490032D01*
X127901015Y-125585668D01*
X127813119Y-125886664D01*
X127765933Y-126108718D01*
X127759802Y-126266344D01*
X127795073Y-126374060D01*
X127872094Y-126446384D01*
X127922195Y-126472009D01*
X128067879Y-126538504D01*
X128159594Y-126599862D01*
X128212786Y-126681716D01*
X128242900Y-126809699D01*
X128265382Y-127009442D01*
X128269105Y-127047739D01*
X128297107Y-127260525D01*
X128334567Y-127445641D01*
X128374525Y-127570483D01*
X128384759Y-127589506D01*
X128464650Y-127666349D01*
X128608912Y-127766007D01*
X128789181Y-127869293D01*
X128826827Y-127888580D01*
X129021893Y-127991019D01*
X129269766Y-128127755D01*
X129536515Y-128279792D01*
X129754660Y-128408007D01*
X129995440Y-128549386D01*
X130171189Y-128644108D01*
X130302481Y-128700614D01*
X130409892Y-128727342D01*
X130513997Y-128732734D01*
X130543638Y-128731654D01*
X130854789Y-128716837D01*
X131082416Y-128708720D01*
X131244690Y-128709327D01*
X131359784Y-128720680D01*
X131445868Y-128744804D01*
X131521115Y-128783720D01*
X131603696Y-128839453D01*
X131620993Y-128851603D01*
X131790435Y-128985010D01*
X131892205Y-129113373D01*
X131935001Y-129263179D01*
X131927523Y-129460912D01*
X131890837Y-129673149D01*
X131839565Y-129912980D01*
X131782338Y-130159448D01*
X131731534Y-130359246D01*
X131731475Y-130359462D01*
X131652456Y-130647881D01*
X131339830Y-130701711D01*
X130876780Y-130768927D01*
X130333876Y-130826743D01*
X129732715Y-130874267D01*
X129094892Y-130910603D01*
X128442001Y-130934858D01*
X127795638Y-130946138D01*
X127177398Y-130943549D01*
X126608876Y-130926196D01*
X126318788Y-130909594D01*
X125462765Y-130822917D01*
X124545846Y-130679192D01*
X123587819Y-130483451D01*
X122608475Y-130240725D01*
X121627602Y-129956045D01*
X120664990Y-129634442D01*
X119740429Y-129280947D01*
X119472495Y-129169029D01*
X118357532Y-128656711D01*
X117297848Y-128092323D01*
X116281312Y-127467449D01*
X115295797Y-126773673D01*
X114329173Y-126002579D01*
X113369311Y-125145751D01*
X112617260Y-124412241D01*
X112086468Y-123861547D01*
X111614164Y-123338096D01*
X111179980Y-122816578D01*
X110763545Y-122271684D01*
X110344491Y-121678106D01*
X109997989Y-121157802D01*
X109246919Y-119913601D01*
X108587208Y-118626607D01*
X108019698Y-117300614D01*
X107545229Y-115939416D01*
X107164642Y-114546808D01*
X106878778Y-113126583D01*
X106688478Y-111682537D01*
X106594583Y-110218462D01*
X106597934Y-108738154D01*
X106699371Y-107245406D01*
X106772755Y-106605310D01*
X106961845Y-105411228D01*
X107220093Y-104246137D01*
X107552249Y-103095045D01*
X107963062Y-101942960D01*
X108457281Y-100774886D01*
X108933234Y-99784469D01*
X109238953Y-99191720D01*
X109511527Y-98690191D01*
X109753535Y-98275771D01*
X109967555Y-97944349D01*
X110156166Y-97691815D01*
X110321945Y-97514059D01*
X110395420Y-97453160D01*
X110531572Y-97352472D01*
X110777184Y-97496059D01*
X110777184Y-97496059D01*
G37*
X110777184Y-97496059D02*
X110962803Y-97609749D01*
X111222462Y-97776438D01*
X111547327Y-97990002D01*
X111928559Y-98244320D01*
X112357323Y-98533269D01*
X112824783Y-98850727D01*
X113322101Y-99190572D01*
X113840442Y-99546680D01*
X114370968Y-99912930D01*
X114904844Y-100283199D01*
X115433233Y-100651365D01*
X115947298Y-101011306D01*
X116438203Y-101356898D01*
X116897112Y-101682020D01*
X117315187Y-101980549D01*
X117683593Y-102246363D01*
X117993493Y-102473339D01*
X118236051Y-102655355D01*
X118339930Y-102735960D01*
X118483242Y-102860119D01*
X118587568Y-102971236D01*
X118632227Y-103047003D01*
X118632616Y-103051665D01*
X118608165Y-103125996D01*
X118541410Y-103268033D01*
X118442243Y-103458077D01*
X118320557Y-103676432D01*
X118307039Y-103699918D01*
X117922670Y-104401639D01*
X117606883Y-105062272D01*
X117350460Y-105706388D01*
X117144181Y-106358556D01*
X116978829Y-107043346D01*
X116901338Y-107446468D01*
X116840733Y-107876857D01*
X116795428Y-108380286D01*
X116766017Y-108929058D01*
X116753093Y-109495477D01*
X116757251Y-110051848D01*
X116779085Y-110570473D01*
X116819190Y-111023657D01*
X116823812Y-111061050D01*
X117006682Y-112106552D01*
X117283414Y-113116904D01*
X117650992Y-114087240D01*
X118106399Y-115012692D01*
X118646617Y-115888394D01*
X119268631Y-116709480D01*
X119969423Y-117471083D01*
X120745976Y-118168336D01*
X121595274Y-118796374D01*
X121635822Y-118823373D01*
X122475815Y-119345385D01*
X123292347Y-119779373D01*
X124101309Y-120131200D01*
X124918591Y-120406732D01*
X125760086Y-120611835D01*
X126641682Y-120752374D01*
X126955060Y-120786655D01*
X127396680Y-120815175D01*
X127893545Y-120822733D01*
X128416078Y-120810680D01*
X128934701Y-120780364D01*
X129419837Y-120733134D01*
X129841908Y-120670340D01*
X129943972Y-120650316D01*
X130082382Y-120621358D01*
X130052408Y-120943194D01*
X130043895Y-121186574D01*
X130074112Y-121375539D01*
X130104880Y-121462128D01*
X130164477Y-121613920D01*
X130189641Y-121728166D01*
X130169697Y-121818559D01*
X130093971Y-121898789D01*
X129951790Y-121982550D01*
X129732479Y-122083534D01*
X129563778Y-122156228D01*
X129217471Y-122306570D01*
X128954872Y-122427152D01*
X128764841Y-122525195D01*
X128636238Y-122607922D01*
X128557921Y-122682554D01*
X128518752Y-122756313D01*
X128507588Y-122836423D01*
X128507565Y-122840958D01*
X128540975Y-123004239D01*
X128615898Y-123145135D01*
X128670369Y-123226895D01*
X128689732Y-123305578D01*
X128667235Y-123397401D01*
X128596129Y-123518580D01*
X128469662Y-123685333D01*
X128310531Y-123878685D01*
X128170040Y-124055927D01*
X128054720Y-124218376D01*
X127981486Y-124341409D01*
X127965974Y-124380297D01*
X127959544Y-124501776D01*
X127978032Y-124673475D01*
X127999996Y-124783291D01*
X128027580Y-124911079D01*
X128037753Y-125018903D01*
X128027218Y-125133507D01*
X127992674Y-125281635D01*
X127930823Y-125490032D01*
X127901015Y-125585668D01*
X127813119Y-125886664D01*
X127765933Y-126108718D01*
X127759802Y-126266344D01*
X127795073Y-126374060D01*
X127872094Y-126446384D01*
X127922195Y-126472009D01*
X128067879Y-126538504D01*
X128159594Y-126599862D01*
X128212786Y-126681716D01*
X128242900Y-126809699D01*
X128265382Y-127009442D01*
X128269105Y-127047739D01*
X128297107Y-127260525D01*
X128334567Y-127445641D01*
X128374525Y-127570483D01*
X128384759Y-127589506D01*
X128464650Y-127666349D01*
X128608912Y-127766007D01*
X128789181Y-127869293D01*
X128826827Y-127888580D01*
X129021893Y-127991019D01*
X129269766Y-128127755D01*
X129536515Y-128279792D01*
X129754660Y-128408007D01*
X129995440Y-128549386D01*
X130171189Y-128644108D01*
X130302481Y-128700614D01*
X130409892Y-128727342D01*
X130513997Y-128732734D01*
X130543638Y-128731654D01*
X130854789Y-128716837D01*
X131082416Y-128708720D01*
X131244690Y-128709327D01*
X131359784Y-128720680D01*
X131445868Y-128744804D01*
X131521115Y-128783720D01*
X131603696Y-128839453D01*
X131620993Y-128851603D01*
X131790435Y-128985010D01*
X131892205Y-129113373D01*
X131935001Y-129263179D01*
X131927523Y-129460912D01*
X131890837Y-129673149D01*
X131839565Y-129912980D01*
X131782338Y-130159448D01*
X131731534Y-130359246D01*
X131731475Y-130359462D01*
X131652456Y-130647881D01*
X131339830Y-130701711D01*
X130876780Y-130768927D01*
X130333876Y-130826743D01*
X129732715Y-130874267D01*
X129094892Y-130910603D01*
X128442001Y-130934858D01*
X127795638Y-130946138D01*
X127177398Y-130943549D01*
X126608876Y-130926196D01*
X126318788Y-130909594D01*
X125462765Y-130822917D01*
X124545846Y-130679192D01*
X123587819Y-130483451D01*
X122608475Y-130240725D01*
X121627602Y-129956045D01*
X120664990Y-129634442D01*
X119740429Y-129280947D01*
X119472495Y-129169029D01*
X118357532Y-128656711D01*
X117297848Y-128092323D01*
X116281312Y-127467449D01*
X115295797Y-126773673D01*
X114329173Y-126002579D01*
X113369311Y-125145751D01*
X112617260Y-124412241D01*
X112086468Y-123861547D01*
X111614164Y-123338096D01*
X111179980Y-122816578D01*
X110763545Y-122271684D01*
X110344491Y-121678106D01*
X109997989Y-121157802D01*
X109246919Y-119913601D01*
X108587208Y-118626607D01*
X108019698Y-117300614D01*
X107545229Y-115939416D01*
X107164642Y-114546808D01*
X106878778Y-113126583D01*
X106688478Y-111682537D01*
X106594583Y-110218462D01*
X106597934Y-108738154D01*
X106699371Y-107245406D01*
X106772755Y-106605310D01*
X106961845Y-105411228D01*
X107220093Y-104246137D01*
X107552249Y-103095045D01*
X107963062Y-101942960D01*
X108457281Y-100774886D01*
X108933234Y-99784469D01*
X109238953Y-99191720D01*
X109511527Y-98690191D01*
X109753535Y-98275771D01*
X109967555Y-97944349D01*
X110156166Y-97691815D01*
X110321945Y-97514059D01*
X110395420Y-97453160D01*
X110531572Y-97352472D01*
X110777184Y-97496059D01*
G36*
X113287926Y-132183467D02*
X112931614Y-132183467D01*
X112931614Y-129689278D01*
X113287926Y-129689278D01*
X113287926Y-132183467D01*
X113287926Y-132183467D01*
G37*
X113287926Y-132183467D02*
X112931614Y-132183467D01*
X112931614Y-129689278D01*
X113287926Y-129689278D01*
X113287926Y-132183467D01*
G36*
X112568704Y-129649616D02*
X112617722Y-129752335D01*
X112616051Y-129834564D01*
X112562235Y-129951726D01*
X112422061Y-130056872D01*
X112401484Y-130067979D01*
X112255244Y-130152537D01*
X112148159Y-130240969D01*
X112073749Y-130350614D01*
X112025531Y-130498809D01*
X111997025Y-130702894D01*
X111981748Y-130980207D01*
X111975871Y-131206504D01*
X111968262Y-131544181D01*
X111959293Y-131793469D01*
X111946025Y-131967769D01*
X111925521Y-132080481D01*
X111894842Y-132145007D01*
X111851050Y-132174749D01*
X111791208Y-132183108D01*
X111761693Y-132183467D01*
X111618113Y-132147461D01*
X111559056Y-132085010D01*
X111544169Y-132007512D01*
X111531477Y-131847127D01*
X111521159Y-131622752D01*
X111513392Y-131353283D01*
X111508356Y-131057616D01*
X111506230Y-130754648D01*
X111507191Y-130463275D01*
X111511419Y-130202395D01*
X111519092Y-129990903D01*
X111530388Y-129847696D01*
X111537525Y-129807329D01*
X111605816Y-129693298D01*
X111730580Y-129660302D01*
X111888522Y-129696352D01*
X112018148Y-129728127D01*
X112144509Y-129713716D01*
X112269124Y-129670073D01*
X112452014Y-129621963D01*
X112568704Y-129649616D01*
X112568704Y-129649616D01*
G37*
X112568704Y-129649616D02*
X112617722Y-129752335D01*
X112616051Y-129834564D01*
X112562235Y-129951726D01*
X112422061Y-130056872D01*
X112401484Y-130067979D01*
X112255244Y-130152537D01*
X112148159Y-130240969D01*
X112073749Y-130350614D01*
X112025531Y-130498809D01*
X111997025Y-130702894D01*
X111981748Y-130980207D01*
X111975871Y-131206504D01*
X111968262Y-131544181D01*
X111959293Y-131793469D01*
X111946025Y-131967769D01*
X111925521Y-132080481D01*
X111894842Y-132145007D01*
X111851050Y-132174749D01*
X111791208Y-132183108D01*
X111761693Y-132183467D01*
X111618113Y-132147461D01*
X111559056Y-132085010D01*
X111544169Y-132007512D01*
X111531477Y-131847127D01*
X111521159Y-131622752D01*
X111513392Y-131353283D01*
X111508356Y-131057616D01*
X111506230Y-130754648D01*
X111507191Y-130463275D01*
X111511419Y-130202395D01*
X111519092Y-129990903D01*
X111530388Y-129847696D01*
X111537525Y-129807329D01*
X111605816Y-129693298D01*
X111730580Y-129660302D01*
X111888522Y-129696352D01*
X112018148Y-129728127D01*
X112144509Y-129713716D01*
X112269124Y-129670073D01*
X112452014Y-129621963D01*
X112568704Y-129649616D01*
G36*
X110951234Y-129681339D02*
X110995554Y-129736834D01*
X111010114Y-129813639D01*
X111022642Y-129973715D01*
X111032967Y-130198546D01*
X111040919Y-130469614D01*
X111046326Y-130768405D01*
X111049019Y-131076402D01*
X111048827Y-131375089D01*
X111045580Y-131645949D01*
X111039106Y-131870467D01*
X111029235Y-132030127D01*
X111017350Y-132102951D01*
X110945295Y-132165764D01*
X110820996Y-132180201D01*
X110682955Y-132144031D01*
X110646898Y-132124415D01*
X110559634Y-132094539D01*
X110443606Y-132112856D01*
X110341147Y-132149866D01*
X110155763Y-132200162D01*
X109933335Y-132226726D01*
X109711023Y-132228505D01*
X109525984Y-132204443D01*
X109444840Y-132175305D01*
X109307658Y-132077753D01*
X109148058Y-131933434D01*
X108999064Y-131775247D01*
X108893702Y-131636091D01*
X108880725Y-131613349D01*
X108852182Y-131530180D01*
X108831609Y-131397054D01*
X108818092Y-131200910D01*
X108810718Y-130928687D01*
X108808567Y-130582588D01*
X108808567Y-129689278D01*
X109215782Y-129689278D01*
X109216805Y-130287375D01*
X109224382Y-130720668D01*
X109246498Y-131062421D01*
X109284705Y-131322065D01*
X109340557Y-131509034D01*
X109415605Y-131632757D01*
X109442675Y-131659454D01*
X109645331Y-131773511D01*
X109880940Y-131812928D01*
X110119605Y-131780706D01*
X110331430Y-131679846D01*
X110457195Y-131557620D01*
X110497157Y-131493933D01*
X110526847Y-131415407D01*
X110548573Y-131305001D01*
X110564646Y-131145672D01*
X110577373Y-130920380D01*
X110589063Y-130612083D01*
X110590293Y-130575142D01*
X110602927Y-130248296D01*
X110617037Y-130010069D01*
X110634151Y-129847276D01*
X110655798Y-129746731D01*
X110683506Y-129695249D01*
X110693166Y-129687440D01*
X110833772Y-129641273D01*
X110951234Y-129681339D01*
X110951234Y-129681339D01*
G37*
X110951234Y-129681339D02*
X110995554Y-129736834D01*
X111010114Y-129813639D01*
X111022642Y-129973715D01*
X111032967Y-130198546D01*
X111040919Y-130469614D01*
X111046326Y-130768405D01*
X111049019Y-131076402D01*
X111048827Y-131375089D01*
X111045580Y-131645949D01*
X111039106Y-131870467D01*
X111029235Y-132030127D01*
X111017350Y-132102951D01*
X110945295Y-132165764D01*
X110820996Y-132180201D01*
X110682955Y-132144031D01*
X110646898Y-132124415D01*
X110559634Y-132094539D01*
X110443606Y-132112856D01*
X110341147Y-132149866D01*
X110155763Y-132200162D01*
X109933335Y-132226726D01*
X109711023Y-132228505D01*
X109525984Y-132204443D01*
X109444840Y-132175305D01*
X109307658Y-132077753D01*
X109148058Y-131933434D01*
X108999064Y-131775247D01*
X108893702Y-131636091D01*
X108880725Y-131613349D01*
X108852182Y-131530180D01*
X108831609Y-131397054D01*
X108818092Y-131200910D01*
X108810718Y-130928687D01*
X108808567Y-130582588D01*
X108808567Y-129689278D01*
X109215782Y-129689278D01*
X109216805Y-130287375D01*
X109224382Y-130720668D01*
X109246498Y-131062421D01*
X109284705Y-131322065D01*
X109340557Y-131509034D01*
X109415605Y-131632757D01*
X109442675Y-131659454D01*
X109645331Y-131773511D01*
X109880940Y-131812928D01*
X110119605Y-131780706D01*
X110331430Y-131679846D01*
X110457195Y-131557620D01*
X110497157Y-131493933D01*
X110526847Y-131415407D01*
X110548573Y-131305001D01*
X110564646Y-131145672D01*
X110577373Y-130920380D01*
X110589063Y-130612083D01*
X110590293Y-130575142D01*
X110602927Y-130248296D01*
X110617037Y-130010069D01*
X110634151Y-129847276D01*
X110655798Y-129746731D01*
X110683506Y-129695249D01*
X110693166Y-129687440D01*
X110833772Y-129641273D01*
X110951234Y-129681339D01*
G36*
X107430650Y-129637524D02*
X107755989Y-129745893D01*
X107769663Y-129752825D01*
X107975975Y-129880268D01*
X108143465Y-130023566D01*
X108264020Y-130168970D01*
X108329527Y-130302731D01*
X108331875Y-130411100D01*
X108262949Y-130480329D01*
X108207535Y-130494907D01*
X108081255Y-130468135D01*
X107900093Y-130362142D01*
X107817259Y-130301085D01*
X107574538Y-130134418D01*
X107364205Y-130043292D01*
X107159010Y-130020742D01*
X106931704Y-130059805D01*
X106903889Y-130067649D01*
X106634236Y-130190042D01*
X106431583Y-130369823D01*
X106296991Y-130589975D01*
X106231520Y-130833478D01*
X106236230Y-131083316D01*
X106312184Y-131322469D01*
X106460441Y-131533921D01*
X106682061Y-131700651D01*
X106798796Y-131753832D01*
X107095583Y-131819671D01*
X107388780Y-131786701D01*
X107685211Y-131653881D01*
X107756189Y-131607992D01*
X107907087Y-131511330D01*
X108032761Y-131442125D01*
X108095942Y-131417984D01*
X108260492Y-131416035D01*
X108340720Y-131466226D01*
X108350451Y-131510931D01*
X108311968Y-131602863D01*
X108211345Y-131730435D01*
X108070827Y-131872332D01*
X107912654Y-132007242D01*
X107759069Y-132113849D01*
X107677637Y-132155669D01*
X107479541Y-132206683D01*
X107227511Y-132229103D01*
X106963572Y-132223016D01*
X106729750Y-132188507D01*
X106619790Y-132153506D01*
X106433514Y-132041127D01*
X106231837Y-131869580D01*
X106046661Y-131669842D01*
X105909890Y-131472890D01*
X105900294Y-131454910D01*
X105813895Y-131185439D01*
X105801358Y-130879447D01*
X105857759Y-130564884D01*
X105978172Y-130269702D01*
X106151677Y-130028119D01*
X106420586Y-129814938D01*
X106739210Y-129676086D01*
X107083810Y-129615601D01*
X107430650Y-129637524D01*
X107430650Y-129637524D01*
G37*
X107430650Y-129637524D02*
X107755989Y-129745893D01*
X107769663Y-129752825D01*
X107975975Y-129880268D01*
X108143465Y-130023566D01*
X108264020Y-130168970D01*
X108329527Y-130302731D01*
X108331875Y-130411100D01*
X108262949Y-130480329D01*
X108207535Y-130494907D01*
X108081255Y-130468135D01*
X107900093Y-130362142D01*
X107817259Y-130301085D01*
X107574538Y-130134418D01*
X107364205Y-130043292D01*
X107159010Y-130020742D01*
X106931704Y-130059805D01*
X106903889Y-130067649D01*
X106634236Y-130190042D01*
X106431583Y-130369823D01*
X106296991Y-130589975D01*
X106231520Y-130833478D01*
X106236230Y-131083316D01*
X106312184Y-131322469D01*
X106460441Y-131533921D01*
X106682061Y-131700651D01*
X106798796Y-131753832D01*
X107095583Y-131819671D01*
X107388780Y-131786701D01*
X107685211Y-131653881D01*
X107756189Y-131607992D01*
X107907087Y-131511330D01*
X108032761Y-131442125D01*
X108095942Y-131417984D01*
X108260492Y-131416035D01*
X108340720Y-131466226D01*
X108350451Y-131510931D01*
X108311968Y-131602863D01*
X108211345Y-131730435D01*
X108070827Y-131872332D01*
X107912654Y-132007242D01*
X107759069Y-132113849D01*
X107677637Y-132155669D01*
X107479541Y-132206683D01*
X107227511Y-132229103D01*
X106963572Y-132223016D01*
X106729750Y-132188507D01*
X106619790Y-132153506D01*
X106433514Y-132041127D01*
X106231837Y-131869580D01*
X106046661Y-131669842D01*
X105909890Y-131472890D01*
X105900294Y-131454910D01*
X105813895Y-131185439D01*
X105801358Y-130879447D01*
X105857759Y-130564884D01*
X105978172Y-130269702D01*
X106151677Y-130028119D01*
X106420586Y-129814938D01*
X106739210Y-129676086D01*
X107083810Y-129615601D01*
X107430650Y-129637524D01*
G36*
X104493070Y-129642999D02*
X104800918Y-129765558D01*
X105066227Y-129964029D01*
X105276341Y-130229815D01*
X105418607Y-130554320D01*
X105468807Y-130793470D01*
X105502681Y-131057781D01*
X104460260Y-131073430D01*
X104049036Y-131082244D01*
X103736179Y-131094985D01*
X103518319Y-131111883D01*
X103392088Y-131133170D01*
X103358051Y-131148979D01*
X103331861Y-131212143D01*
X103364807Y-131310973D01*
X103410111Y-131389852D01*
X103605322Y-131620762D01*
X103848757Y-131766329D01*
X104047862Y-131814420D01*
X104346143Y-131801659D01*
X104627609Y-131692006D01*
X104869074Y-131511335D01*
X105020426Y-131387281D01*
X105139127Y-131331681D01*
X105229234Y-131327187D01*
X105340720Y-131365678D01*
X105387187Y-131424712D01*
X105361269Y-131514784D01*
X105272580Y-131643828D01*
X105140914Y-131791259D01*
X104986065Y-131936495D01*
X104827829Y-132058954D01*
X104712086Y-132126696D01*
X104438635Y-132209964D01*
X104127576Y-132233925D01*
X103822979Y-132198203D01*
X103633815Y-132135953D01*
X103344570Y-131954308D01*
X103110174Y-131706089D01*
X102951012Y-131414280D01*
X102925383Y-131337272D01*
X102865728Y-130971017D01*
X102897093Y-130621347D01*
X102911926Y-130580233D01*
X103362075Y-130580233D01*
X103372164Y-130621857D01*
X103411553Y-130652330D01*
X103493924Y-130673538D01*
X103632959Y-130687366D01*
X103842339Y-130695698D01*
X104135748Y-130700420D01*
X104241728Y-130701410D01*
X104527565Y-130702252D01*
X104727370Y-130698089D01*
X104856859Y-130687324D01*
X104931748Y-130668361D01*
X104967751Y-130639601D01*
X104974050Y-130626987D01*
X104964572Y-130522314D01*
X104883605Y-130388086D01*
X104747297Y-130246547D01*
X104635137Y-130160120D01*
X104444021Y-130078978D01*
X104205510Y-130044868D01*
X103963533Y-130059830D01*
X103772824Y-130120116D01*
X103644903Y-130208696D01*
X103516698Y-130331807D01*
X103414270Y-130460254D01*
X103363679Y-130564846D01*
X103362075Y-130580233D01*
X102911926Y-130580233D01*
X103012312Y-130301998D01*
X103204220Y-130026704D01*
X103465652Y-129809202D01*
X103789443Y-129663226D01*
X103800366Y-129660002D01*
X104155335Y-129604949D01*
X104493070Y-129642999D01*
X104493070Y-129642999D01*
G37*
X104493070Y-129642999D02*
X104800918Y-129765558D01*
X105066227Y-129964029D01*
X105276341Y-130229815D01*
X105418607Y-130554320D01*
X105468807Y-130793470D01*
X105502681Y-131057781D01*
X104460260Y-131073430D01*
X104049036Y-131082244D01*
X103736179Y-131094985D01*
X103518319Y-131111883D01*
X103392088Y-131133170D01*
X103358051Y-131148979D01*
X103331861Y-131212143D01*
X103364807Y-131310973D01*
X103410111Y-131389852D01*
X103605322Y-131620762D01*
X103848757Y-131766329D01*
X104047862Y-131814420D01*
X104346143Y-131801659D01*
X104627609Y-131692006D01*
X104869074Y-131511335D01*
X105020426Y-131387281D01*
X105139127Y-131331681D01*
X105229234Y-131327187D01*
X105340720Y-131365678D01*
X105387187Y-131424712D01*
X105361269Y-131514784D01*
X105272580Y-131643828D01*
X105140914Y-131791259D01*
X104986065Y-131936495D01*
X104827829Y-132058954D01*
X104712086Y-132126696D01*
X104438635Y-132209964D01*
X104127576Y-132233925D01*
X103822979Y-132198203D01*
X103633815Y-132135953D01*
X103344570Y-131954308D01*
X103110174Y-131706089D01*
X102951012Y-131414280D01*
X102925383Y-131337272D01*
X102865728Y-130971017D01*
X102897093Y-130621347D01*
X102911926Y-130580233D01*
X103362075Y-130580233D01*
X103372164Y-130621857D01*
X103411553Y-130652330D01*
X103493924Y-130673538D01*
X103632959Y-130687366D01*
X103842339Y-130695698D01*
X104135748Y-130700420D01*
X104241728Y-130701410D01*
X104527565Y-130702252D01*
X104727370Y-130698089D01*
X104856859Y-130687324D01*
X104931748Y-130668361D01*
X104967751Y-130639601D01*
X104974050Y-130626987D01*
X104964572Y-130522314D01*
X104883605Y-130388086D01*
X104747297Y-130246547D01*
X104635137Y-130160120D01*
X104444021Y-130078978D01*
X104205510Y-130044868D01*
X103963533Y-130059830D01*
X103772824Y-130120116D01*
X103644903Y-130208696D01*
X103516698Y-130331807D01*
X103414270Y-130460254D01*
X103363679Y-130564846D01*
X103362075Y-130580233D01*
X102911926Y-130580233D01*
X103012312Y-130301998D01*
X103204220Y-130026704D01*
X103465652Y-129809202D01*
X103789443Y-129663226D01*
X103800366Y-129660002D01*
X104155335Y-129604949D01*
X104493070Y-129642999D01*
G36*
X101907473Y-128810785D02*
X102159619Y-128917127D01*
X102350040Y-129081759D01*
X102465987Y-129294370D01*
X102496554Y-129492951D01*
X102469036Y-129649330D01*
X102395969Y-129723276D01*
X102292189Y-129714316D01*
X102172534Y-129621975D01*
X102086384Y-129506034D01*
X101933184Y-129312171D01*
X101760757Y-129207816D01*
X101576050Y-129180260D01*
X101362300Y-129224870D01*
X101196994Y-129347914D01*
X101100303Y-129533213D01*
X101092441Y-129568125D01*
X101078360Y-129735817D01*
X101113762Y-129871640D01*
X101209772Y-129986229D01*
X101377516Y-130090215D01*
X101628123Y-130194231D01*
X101814788Y-130258424D01*
X102141814Y-130407263D01*
X102390886Y-130609520D01*
X102556499Y-130857450D01*
X102633145Y-131143307D01*
X102625924Y-131399394D01*
X102537302Y-131673436D01*
X102371364Y-131902791D01*
X102145925Y-132079010D01*
X101878803Y-132193648D01*
X101587814Y-132238256D01*
X101290776Y-132204390D01*
X101087406Y-132128782D01*
X100909179Y-132009940D01*
X100751725Y-131850156D01*
X100627455Y-131670604D01*
X100548783Y-131492456D01*
X100528121Y-131336883D01*
X100565357Y-131238312D01*
X100679257Y-131166292D01*
X100808068Y-131180561D01*
X100924443Y-131274787D01*
X100959332Y-131329512D01*
X101119678Y-131571779D01*
X101300205Y-131739352D01*
X101487498Y-131820975D01*
X101552498Y-131827154D01*
X101797806Y-131787542D01*
X101997281Y-131678353D01*
X102133913Y-131514055D01*
X102190692Y-131309117D01*
X102191333Y-131283754D01*
X102160047Y-131063697D01*
X102059884Y-130887138D01*
X101881391Y-130744796D01*
X101615110Y-130627394D01*
X101478708Y-130584412D01*
X101155904Y-130464868D01*
X100921091Y-130315922D01*
X100765765Y-130135134D01*
X100645654Y-129853875D01*
X100622043Y-129572280D01*
X100694062Y-129304131D01*
X100831425Y-129095237D01*
X101032130Y-128915454D01*
X101262723Y-128811978D01*
X101549620Y-128773825D01*
X101606355Y-128773046D01*
X101907473Y-128810785D01*
X101907473Y-128810785D01*
G37*
X101907473Y-128810785D02*
X102159619Y-128917127D01*
X102350040Y-129081759D01*
X102465987Y-129294370D01*
X102496554Y-129492951D01*
X102469036Y-129649330D01*
X102395969Y-129723276D01*
X102292189Y-129714316D01*
X102172534Y-129621975D01*
X102086384Y-129506034D01*
X101933184Y-129312171D01*
X101760757Y-129207816D01*
X101576050Y-129180260D01*
X101362300Y-129224870D01*
X101196994Y-129347914D01*
X101100303Y-129533213D01*
X101092441Y-129568125D01*
X101078360Y-129735817D01*
X101113762Y-129871640D01*
X101209772Y-129986229D01*
X101377516Y-130090215D01*
X101628123Y-130194231D01*
X101814788Y-130258424D01*
X102141814Y-130407263D01*
X102390886Y-130609520D01*
X102556499Y-130857450D01*
X102633145Y-131143307D01*
X102625924Y-131399394D01*
X102537302Y-131673436D01*
X102371364Y-131902791D01*
X102145925Y-132079010D01*
X101878803Y-132193648D01*
X101587814Y-132238256D01*
X101290776Y-132204390D01*
X101087406Y-132128782D01*
X100909179Y-132009940D01*
X100751725Y-131850156D01*
X100627455Y-131670604D01*
X100548783Y-131492456D01*
X100528121Y-131336883D01*
X100565357Y-131238312D01*
X100679257Y-131166292D01*
X100808068Y-131180561D01*
X100924443Y-131274787D01*
X100959332Y-131329512D01*
X101119678Y-131571779D01*
X101300205Y-131739352D01*
X101487498Y-131820975D01*
X101552498Y-131827154D01*
X101797806Y-131787542D01*
X101997281Y-131678353D01*
X102133913Y-131514055D01*
X102190692Y-131309117D01*
X102191333Y-131283754D01*
X102160047Y-131063697D01*
X102059884Y-130887138D01*
X101881391Y-130744796D01*
X101615110Y-130627394D01*
X101478708Y-130584412D01*
X101155904Y-130464868D01*
X100921091Y-130315922D01*
X100765765Y-130135134D01*
X100645654Y-129853875D01*
X100622043Y-129572280D01*
X100694062Y-129304131D01*
X100831425Y-129095237D01*
X101032130Y-128915454D01*
X101262723Y-128811978D01*
X101549620Y-128773825D01*
X101606355Y-128773046D01*
X101907473Y-128810785D01*
G36*
X114344707Y-128789936D02*
X114422193Y-128848222D01*
X114471435Y-128975212D01*
X114501471Y-129185781D01*
X114506016Y-129239835D01*
X114535020Y-129612926D01*
X114984432Y-129639852D01*
X115164470Y-129651370D01*
X115302863Y-129669615D01*
X115411040Y-129706919D01*
X115500428Y-129775610D01*
X115582455Y-129888020D01*
X115668550Y-130056476D01*
X115770142Y-130293311D01*
X115898657Y-130610852D01*
X115909598Y-130638014D01*
X116013704Y-130889243D01*
X116107849Y-131103203D01*
X116184473Y-131263714D01*
X116236017Y-131354593D01*
X116251121Y-131369038D01*
X116290745Y-131324782D01*
X116361607Y-131202903D01*
X116455748Y-131019736D01*
X116565213Y-130791612D01*
X116682044Y-130534866D01*
X116798283Y-130265830D01*
X116852865Y-130133848D01*
X116980186Y-129869744D01*
X117107874Y-129705256D01*
X117238518Y-129638220D01*
X117374707Y-129666472D01*
X117396612Y-129679326D01*
X117400403Y-129739912D01*
X117364232Y-129884987D01*
X117291099Y-130106744D01*
X117184005Y-130397377D01*
X117045949Y-130749080D01*
X116879932Y-131154047D01*
X116688953Y-131604473D01*
X116476014Y-132092550D01*
X116424422Y-132208918D01*
X116277812Y-132532452D01*
X116160796Y-132771687D01*
X116065233Y-132936874D01*
X115982984Y-133038267D01*
X115905909Y-133086117D01*
X115825868Y-133090677D01*
X115743938Y-133065988D01*
X115700662Y-133035067D01*
X115686467Y-132976950D01*
X115704135Y-132874741D01*
X115756444Y-132711544D01*
X115838699Y-132490014D01*
X115997087Y-132075238D01*
X115576034Y-131009513D01*
X115427997Y-130640227D01*
X115309440Y-130358819D01*
X115215745Y-130157246D01*
X115142289Y-130027461D01*
X115084453Y-129961422D01*
X115037617Y-129951084D01*
X114997159Y-129988404D01*
X114993137Y-129994689D01*
X114926967Y-130026089D01*
X114798605Y-130043996D01*
X114743515Y-130045591D01*
X114525352Y-130045591D01*
X114492010Y-130740814D01*
X114479160Y-131037786D01*
X114468608Y-131336924D01*
X114461422Y-131603991D01*
X114458671Y-131804750D01*
X114458668Y-131809751D01*
X114458668Y-132183467D01*
X114102355Y-132183467D01*
X114102355Y-131350691D01*
X114100387Y-131049556D01*
X114094959Y-130765857D01*
X114086785Y-130523351D01*
X114076576Y-130345799D01*
X114070343Y-130284360D01*
X114046335Y-130141872D01*
X114007170Y-130071453D01*
X113924762Y-130044192D01*
X113828559Y-130035472D01*
X113693358Y-130017900D01*
X113628877Y-129976768D01*
X113604038Y-129889788D01*
X113601986Y-129872958D01*
X113613460Y-129740841D01*
X113693656Y-129666480D01*
X113854939Y-129639696D01*
X113886022Y-129639156D01*
X113982308Y-129634222D01*
X114032046Y-129603451D01*
X114051690Y-129521125D01*
X114057476Y-129371142D01*
X114072793Y-129100911D01*
X114106534Y-128920369D01*
X114161930Y-128818540D01*
X114229937Y-128785480D01*
X114344707Y-128789936D01*
X114344707Y-128789936D01*
G37*
X114344707Y-128789936D02*
X114422193Y-128848222D01*
X114471435Y-128975212D01*
X114501471Y-129185781D01*
X114506016Y-129239835D01*
X114535020Y-129612926D01*
X114984432Y-129639852D01*
X115164470Y-129651370D01*
X115302863Y-129669615D01*
X115411040Y-129706919D01*
X115500428Y-129775610D01*
X115582455Y-129888020D01*
X115668550Y-130056476D01*
X115770142Y-130293311D01*
X115898657Y-130610852D01*
X115909598Y-130638014D01*
X116013704Y-130889243D01*
X116107849Y-131103203D01*
X116184473Y-131263714D01*
X116236017Y-131354593D01*
X116251121Y-131369038D01*
X116290745Y-131324782D01*
X116361607Y-131202903D01*
X116455748Y-131019736D01*
X116565213Y-130791612D01*
X116682044Y-130534866D01*
X116798283Y-130265830D01*
X116852865Y-130133848D01*
X116980186Y-129869744D01*
X117107874Y-129705256D01*
X117238518Y-129638220D01*
X117374707Y-129666472D01*
X117396612Y-129679326D01*
X117400403Y-129739912D01*
X117364232Y-129884987D01*
X117291099Y-130106744D01*
X117184005Y-130397377D01*
X117045949Y-130749080D01*
X116879932Y-131154047D01*
X116688953Y-131604473D01*
X116476014Y-132092550D01*
X116424422Y-132208918D01*
X116277812Y-132532452D01*
X116160796Y-132771687D01*
X116065233Y-132936874D01*
X115982984Y-133038267D01*
X115905909Y-133086117D01*
X115825868Y-133090677D01*
X115743938Y-133065988D01*
X115700662Y-133035067D01*
X115686467Y-132976950D01*
X115704135Y-132874741D01*
X115756444Y-132711544D01*
X115838699Y-132490014D01*
X115997087Y-132075238D01*
X115576034Y-131009513D01*
X115427997Y-130640227D01*
X115309440Y-130358819D01*
X115215745Y-130157246D01*
X115142289Y-130027461D01*
X115084453Y-129961422D01*
X115037617Y-129951084D01*
X114997159Y-129988404D01*
X114993137Y-129994689D01*
X114926967Y-130026089D01*
X114798605Y-130043996D01*
X114743515Y-130045591D01*
X114525352Y-130045591D01*
X114492010Y-130740814D01*
X114479160Y-131037786D01*
X114468608Y-131336924D01*
X114461422Y-131603991D01*
X114458671Y-131804750D01*
X114458668Y-131809751D01*
X114458668Y-132183467D01*
X114102355Y-132183467D01*
X114102355Y-131350691D01*
X114100387Y-131049556D01*
X114094959Y-130765857D01*
X114086785Y-130523351D01*
X114076576Y-130345799D01*
X114070343Y-130284360D01*
X114046335Y-130141872D01*
X114007170Y-130071453D01*
X113924762Y-130044192D01*
X113828559Y-130035472D01*
X113693358Y-130017900D01*
X113628877Y-129976768D01*
X113604038Y-129889788D01*
X113601986Y-129872958D01*
X113613460Y-129740841D01*
X113693656Y-129666480D01*
X113854939Y-129639696D01*
X113886022Y-129639156D01*
X113982308Y-129634222D01*
X114032046Y-129603451D01*
X114051690Y-129521125D01*
X114057476Y-129371142D01*
X114072793Y-129100911D01*
X114106534Y-128920369D01*
X114161930Y-128818540D01*
X114229937Y-128785480D01*
X114344707Y-128789936D01*
G36*
X107343959Y-133209887D02*
X107418509Y-133244332D01*
X107453038Y-133316032D01*
X107476045Y-133460932D01*
X107482537Y-133633206D01*
X107473044Y-133791185D01*
X107448094Y-133893198D01*
X107445655Y-133897367D01*
X107360084Y-133956269D01*
X107222700Y-133989388D01*
X107082393Y-133985873D01*
X107065181Y-133981808D01*
X107018441Y-133953346D01*
X106991224Y-133885133D01*
X106978731Y-133755495D01*
X106976103Y-133579534D01*
X106976103Y-133201503D01*
X107199224Y-133201503D01*
X107343959Y-133209887D01*
X107343959Y-133209887D01*
G37*
X107343959Y-133209887D02*
X107418509Y-133244332D01*
X107453038Y-133316032D01*
X107476045Y-133460932D01*
X107482537Y-133633206D01*
X107473044Y-133791185D01*
X107448094Y-133893198D01*
X107445655Y-133897367D01*
X107360084Y-133956269D01*
X107222700Y-133989388D01*
X107082393Y-133985873D01*
X107065181Y-133981808D01*
X107018441Y-133953346D01*
X106991224Y-133885133D01*
X106978731Y-133755495D01*
X106976103Y-133579534D01*
X106976103Y-133201503D01*
X107199224Y-133201503D01*
X107343959Y-133209887D01*
G36*
X181835271Y-126339503D02*
X182357020Y-126340751D01*
X182832982Y-126342567D01*
X183254646Y-126344899D01*
X183613502Y-126347695D01*
X183901037Y-126350902D01*
X184108739Y-126354469D01*
X184228097Y-126358344D01*
X184253511Y-126360717D01*
X184329323Y-126422543D01*
X184390724Y-126535103D01*
X184416322Y-126646347D01*
X184444310Y-126830714D01*
X184473220Y-127069960D01*
X184501587Y-127345843D01*
X184527945Y-127640120D01*
X184550828Y-127934549D01*
X184568769Y-128210887D01*
X184580302Y-128450891D01*
X184583961Y-128636319D01*
X184578280Y-128748928D01*
X184570603Y-128773255D01*
X184492805Y-128794564D01*
X184318420Y-128798471D01*
X184045928Y-128784974D01*
X183892534Y-128773357D01*
X183549978Y-128748133D01*
X183170349Y-128724902D01*
X182768509Y-128704124D01*
X182359321Y-128686258D01*
X181957648Y-128671763D01*
X181578351Y-128661097D01*
X181236294Y-128654721D01*
X180946339Y-128653093D01*
X180723348Y-128656672D01*
X180582184Y-128665917D01*
X180556023Y-128670305D01*
X180410311Y-128715964D01*
X180313935Y-128786384D01*
X180257202Y-128900819D01*
X180230416Y-129078523D01*
X180223877Y-129329969D01*
X180243143Y-129666884D01*
X180302885Y-129917841D01*
X180406230Y-130091585D01*
X180529209Y-130184352D01*
X180622103Y-130203636D01*
X180802436Y-130217037D01*
X181056028Y-130224750D01*
X181368695Y-130226975D01*
X181726257Y-130223909D01*
X182114531Y-130215749D01*
X182519335Y-130202693D01*
X182926488Y-130184938D01*
X183321807Y-130162682D01*
X183627537Y-130141186D01*
X183886620Y-130124386D01*
X184105748Y-130116590D01*
X184265631Y-130118041D01*
X184346978Y-130128985D01*
X184351824Y-130132013D01*
X184363330Y-130197406D01*
X184361753Y-130343421D01*
X184347976Y-130549844D01*
X184322877Y-130796454D01*
X184322865Y-130796562D01*
X184288605Y-131120636D01*
X184255190Y-131491224D01*
X184227373Y-131853111D01*
X184214912Y-132050850D01*
X184198855Y-132329031D01*
X184179321Y-132520152D01*
X184144848Y-132638643D01*
X184083969Y-132698934D01*
X183985220Y-132715455D01*
X183837136Y-132702635D01*
X183710571Y-132685615D01*
X183579527Y-132673667D01*
X183363210Y-132660567D01*
X183078136Y-132647022D01*
X182740819Y-132633737D01*
X182367774Y-132621419D01*
X181975515Y-132610776D01*
X181944405Y-132610032D01*
X181477322Y-132598359D01*
X181102165Y-132590536D01*
X180809058Y-132590714D01*
X180588125Y-132603041D01*
X180429488Y-132631664D01*
X180323271Y-132680735D01*
X180259597Y-132754400D01*
X180228590Y-132856809D01*
X180220374Y-132992111D01*
X180225071Y-133164454D01*
X180231419Y-133329589D01*
X180241235Y-133584066D01*
X180254440Y-133758619D01*
X180275408Y-133875123D01*
X180308512Y-133955450D01*
X180358125Y-134021477D01*
X180372965Y-134037616D01*
X180510302Y-134144501D01*
X180672406Y-134222047D01*
X180678134Y-134223825D01*
X180856043Y-134258637D01*
X181118658Y-134284321D01*
X181449278Y-134300716D01*
X181831200Y-134307658D01*
X182247723Y-134304983D01*
X182682145Y-134292528D01*
X183117763Y-134270130D01*
X183391073Y-134250371D01*
X183795170Y-134217813D01*
X184109813Y-134194002D01*
X184346990Y-134179133D01*
X184518690Y-134173403D01*
X184636903Y-134177010D01*
X184713618Y-134190151D01*
X184760823Y-134213020D01*
X184790509Y-134245817D01*
X184806650Y-134273598D01*
X184824425Y-134372450D01*
X184823731Y-134552312D01*
X184807282Y-134794618D01*
X184777793Y-135080802D01*
X184737978Y-135392298D01*
X184690551Y-135710542D01*
X184638226Y-136016967D01*
X184583719Y-136293009D01*
X184529742Y-136520100D01*
X184479012Y-136679676D01*
X184445647Y-136742794D01*
X184367214Y-136780104D01*
X184227568Y-136806244D01*
X184065638Y-136818498D01*
X183920356Y-136814148D01*
X183830653Y-136790477D01*
X183825346Y-136786084D01*
X183770661Y-136780463D01*
X183622773Y-136774146D01*
X183390281Y-136767300D01*
X183081782Y-136760089D01*
X182705874Y-136752680D01*
X182271155Y-136745238D01*
X181786222Y-136737929D01*
X181259674Y-136730918D01*
X180700107Y-136724370D01*
X180520971Y-136722457D01*
X177246042Y-136688276D01*
X177230013Y-136306513D01*
X177228653Y-136162255D01*
X177232299Y-135931865D01*
X177240443Y-135630866D01*
X177252576Y-135274779D01*
X177268191Y-134879128D01*
X177286780Y-134459433D01*
X177298307Y-134219539D01*
X177363977Y-132248631D01*
X177367267Y-130240593D01*
X177308047Y-128178943D01*
X177240854Y-126882685D01*
X177208237Y-126341223D01*
X180688462Y-126338918D01*
X181276248Y-126338874D01*
X181835271Y-126339503D01*
X181835271Y-126339503D01*
G37*
X181835271Y-126339503D02*
X182357020Y-126340751D01*
X182832982Y-126342567D01*
X183254646Y-126344899D01*
X183613502Y-126347695D01*
X183901037Y-126350902D01*
X184108739Y-126354469D01*
X184228097Y-126358344D01*
X184253511Y-126360717D01*
X184329323Y-126422543D01*
X184390724Y-126535103D01*
X184416322Y-126646347D01*
X184444310Y-126830714D01*
X184473220Y-127069960D01*
X184501587Y-127345843D01*
X184527945Y-127640120D01*
X184550828Y-127934549D01*
X184568769Y-128210887D01*
X184580302Y-128450891D01*
X184583961Y-128636319D01*
X184578280Y-128748928D01*
X184570603Y-128773255D01*
X184492805Y-128794564D01*
X184318420Y-128798471D01*
X184045928Y-128784974D01*
X183892534Y-128773357D01*
X183549978Y-128748133D01*
X183170349Y-128724902D01*
X182768509Y-128704124D01*
X182359321Y-128686258D01*
X181957648Y-128671763D01*
X181578351Y-128661097D01*
X181236294Y-128654721D01*
X180946339Y-128653093D01*
X180723348Y-128656672D01*
X180582184Y-128665917D01*
X180556023Y-128670305D01*
X180410311Y-128715964D01*
X180313935Y-128786384D01*
X180257202Y-128900819D01*
X180230416Y-129078523D01*
X180223877Y-129329969D01*
X180243143Y-129666884D01*
X180302885Y-129917841D01*
X180406230Y-130091585D01*
X180529209Y-130184352D01*
X180622103Y-130203636D01*
X180802436Y-130217037D01*
X181056028Y-130224750D01*
X181368695Y-130226975D01*
X181726257Y-130223909D01*
X182114531Y-130215749D01*
X182519335Y-130202693D01*
X182926488Y-130184938D01*
X183321807Y-130162682D01*
X183627537Y-130141186D01*
X183886620Y-130124386D01*
X184105748Y-130116590D01*
X184265631Y-130118041D01*
X184346978Y-130128985D01*
X184351824Y-130132013D01*
X184363330Y-130197406D01*
X184361753Y-130343421D01*
X184347976Y-130549844D01*
X184322877Y-130796454D01*
X184322865Y-130796562D01*
X184288605Y-131120636D01*
X184255190Y-131491224D01*
X184227373Y-131853111D01*
X184214912Y-132050850D01*
X184198855Y-132329031D01*
X184179321Y-132520152D01*
X184144848Y-132638643D01*
X184083969Y-132698934D01*
X183985220Y-132715455D01*
X183837136Y-132702635D01*
X183710571Y-132685615D01*
X183579527Y-132673667D01*
X183363210Y-132660567D01*
X183078136Y-132647022D01*
X182740819Y-132633737D01*
X182367774Y-132621419D01*
X181975515Y-132610776D01*
X181944405Y-132610032D01*
X181477322Y-132598359D01*
X181102165Y-132590536D01*
X180809058Y-132590714D01*
X180588125Y-132603041D01*
X180429488Y-132631664D01*
X180323271Y-132680735D01*
X180259597Y-132754400D01*
X180228590Y-132856809D01*
X180220374Y-132992111D01*
X180225071Y-133164454D01*
X180231419Y-133329589D01*
X180241235Y-133584066D01*
X180254440Y-133758619D01*
X180275408Y-133875123D01*
X180308512Y-133955450D01*
X180358125Y-134021477D01*
X180372965Y-134037616D01*
X180510302Y-134144501D01*
X180672406Y-134222047D01*
X180678134Y-134223825D01*
X180856043Y-134258637D01*
X181118658Y-134284321D01*
X181449278Y-134300716D01*
X181831200Y-134307658D01*
X182247723Y-134304983D01*
X182682145Y-134292528D01*
X183117763Y-134270130D01*
X183391073Y-134250371D01*
X183795170Y-134217813D01*
X184109813Y-134194002D01*
X184346990Y-134179133D01*
X184518690Y-134173403D01*
X184636903Y-134177010D01*
X184713618Y-134190151D01*
X184760823Y-134213020D01*
X184790509Y-134245817D01*
X184806650Y-134273598D01*
X184824425Y-134372450D01*
X184823731Y-134552312D01*
X184807282Y-134794618D01*
X184777793Y-135080802D01*
X184737978Y-135392298D01*
X184690551Y-135710542D01*
X184638226Y-136016967D01*
X184583719Y-136293009D01*
X184529742Y-136520100D01*
X184479012Y-136679676D01*
X184445647Y-136742794D01*
X184367214Y-136780104D01*
X184227568Y-136806244D01*
X184065638Y-136818498D01*
X183920356Y-136814148D01*
X183830653Y-136790477D01*
X183825346Y-136786084D01*
X183770661Y-136780463D01*
X183622773Y-136774146D01*
X183390281Y-136767300D01*
X183081782Y-136760089D01*
X182705874Y-136752680D01*
X182271155Y-136745238D01*
X181786222Y-136737929D01*
X181259674Y-136730918D01*
X180700107Y-136724370D01*
X180520971Y-136722457D01*
X177246042Y-136688276D01*
X177230013Y-136306513D01*
X177228653Y-136162255D01*
X177232299Y-135931865D01*
X177240443Y-135630866D01*
X177252576Y-135274779D01*
X177268191Y-134879128D01*
X177286780Y-134459433D01*
X177298307Y-134219539D01*
X177363977Y-132248631D01*
X177367267Y-130240593D01*
X177308047Y-128178943D01*
X177240854Y-126882685D01*
X177208237Y-126341223D01*
X180688462Y-126338918D01*
X181276248Y-126338874D01*
X181835271Y-126339503D01*
G36*
X189107908Y-127581866D02*
X189258868Y-127598810D01*
X189801154Y-127704559D01*
X190307064Y-127868914D01*
X190764432Y-128084893D01*
X191161095Y-128345512D01*
X191484889Y-128643789D01*
X191723651Y-128972741D01*
X191755253Y-129031889D01*
X191901139Y-129427489D01*
X191963663Y-129858998D01*
X191942771Y-130303813D01*
X191838411Y-130739333D01*
X191759738Y-130936080D01*
X191594644Y-131245858D01*
X191400491Y-131498309D01*
X191147198Y-131730434D01*
X191057557Y-131799855D01*
X190756715Y-132026002D01*
X191038434Y-132159277D01*
X191436384Y-132400720D01*
X191765811Y-132710014D01*
X192022282Y-133075907D01*
X192201361Y-133487148D01*
X192298614Y-133932488D01*
X192309606Y-134400675D01*
X192229902Y-134880460D01*
X192178747Y-135052078D01*
X192080457Y-135311963D01*
X191968093Y-135522176D01*
X191813339Y-135733119D01*
X191759975Y-135797495D01*
X191483224Y-136066862D01*
X191128384Y-136320721D01*
X190719157Y-136545112D01*
X190279245Y-136726075D01*
X190073297Y-136790839D01*
X189882723Y-136827968D01*
X189611892Y-136857995D01*
X189282128Y-136880526D01*
X188914754Y-136895165D01*
X188531098Y-136901518D01*
X188152481Y-136899190D01*
X187800231Y-136887786D01*
X187495670Y-136866910D01*
X187295507Y-136842290D01*
X186939022Y-136776991D01*
X186584453Y-136698668D01*
X186248292Y-136612224D01*
X185947033Y-136522558D01*
X185697170Y-136434570D01*
X185515198Y-136353162D01*
X185418789Y-136284686D01*
X185400108Y-136225937D01*
X185413690Y-136120215D01*
X185463019Y-135951664D01*
X185538525Y-135739414D01*
X185632828Y-135469279D01*
X185727524Y-135171239D01*
X185805908Y-134898566D01*
X185823574Y-134830361D01*
X185880498Y-134625687D01*
X185938634Y-134454596D01*
X185988139Y-134344916D01*
X186002105Y-134325667D01*
X186043344Y-134299737D01*
X186109143Y-134294789D01*
X186216135Y-134314164D01*
X186380948Y-134361208D01*
X186620214Y-134439262D01*
X186698546Y-134465684D01*
X187131967Y-134601485D01*
X187499487Y-134690237D01*
X187823567Y-134735456D01*
X188126667Y-134740655D01*
X188338682Y-134722327D01*
X188709122Y-134649266D01*
X188992066Y-134530801D01*
X189193515Y-134361806D01*
X189319471Y-134137153D01*
X189375936Y-133851714D01*
X189377081Y-133835164D01*
X189383960Y-133655851D01*
X189368505Y-133537894D01*
X189319231Y-133441424D01*
X189233437Y-133336557D01*
X189118111Y-133223435D01*
X188985960Y-133136266D01*
X188823069Y-133072190D01*
X188615520Y-133028345D01*
X188349395Y-133001872D01*
X188010779Y-132989908D01*
X187585754Y-132989594D01*
X187547461Y-132989988D01*
X187231157Y-132990701D01*
X186946340Y-132986168D01*
X186711156Y-132977059D01*
X186543751Y-132964046D01*
X186467220Y-132950017D01*
X186389908Y-132908102D01*
X186336484Y-132840943D01*
X186304732Y-132733776D01*
X186292437Y-132571832D01*
X186297383Y-132340347D01*
X186317354Y-132024552D01*
X186321009Y-131975601D01*
X186348120Y-131667217D01*
X186376865Y-131448523D01*
X186409351Y-131307406D01*
X186447689Y-131231752D01*
X186451157Y-131228081D01*
X186490393Y-131198770D01*
X186549027Y-131180387D01*
X186642979Y-131172719D01*
X186788172Y-131175551D01*
X187000526Y-131188670D01*
X187295963Y-131211863D01*
X187346978Y-131216078D01*
X187755937Y-131243783D01*
X188077361Y-131248180D01*
X188323750Y-131224853D01*
X188507606Y-131169387D01*
X188641429Y-131077368D01*
X188737719Y-130944381D01*
X188808976Y-130766010D01*
X188830273Y-130692197D01*
X188856376Y-130419324D01*
X188790182Y-130168703D01*
X188640799Y-129953556D01*
X188417333Y-129787109D01*
X188136087Y-129684171D01*
X187858327Y-129649147D01*
X187514097Y-129647924D01*
X187132252Y-129678559D01*
X186741645Y-129739114D01*
X186492365Y-129794703D01*
X186261009Y-129850900D01*
X186098656Y-129873828D01*
X185991677Y-129851173D01*
X185926447Y-129770622D01*
X185889337Y-129619858D01*
X185866719Y-129386570D01*
X185855561Y-129219260D01*
X185837748Y-128967943D01*
X185817921Y-128726426D01*
X185799172Y-128530982D01*
X185790701Y-128458264D01*
X185778069Y-128304246D01*
X185800178Y-128205563D01*
X185870208Y-128118056D01*
X185900945Y-128088850D01*
X186071943Y-127978087D01*
X186327997Y-127875281D01*
X186652513Y-127782853D01*
X187028893Y-127703226D01*
X187440542Y-127638821D01*
X187870864Y-127592061D01*
X188303263Y-127565367D01*
X188721143Y-127561161D01*
X189107908Y-127581866D01*
X189107908Y-127581866D01*
G37*
X189107908Y-127581866D02*
X189258868Y-127598810D01*
X189801154Y-127704559D01*
X190307064Y-127868914D01*
X190764432Y-128084893D01*
X191161095Y-128345512D01*
X191484889Y-128643789D01*
X191723651Y-128972741D01*
X191755253Y-129031889D01*
X191901139Y-129427489D01*
X191963663Y-129858998D01*
X191942771Y-130303813D01*
X191838411Y-130739333D01*
X191759738Y-130936080D01*
X191594644Y-131245858D01*
X191400491Y-131498309D01*
X191147198Y-131730434D01*
X191057557Y-131799855D01*
X190756715Y-132026002D01*
X191038434Y-132159277D01*
X191436384Y-132400720D01*
X191765811Y-132710014D01*
X192022282Y-133075907D01*
X192201361Y-133487148D01*
X192298614Y-133932488D01*
X192309606Y-134400675D01*
X192229902Y-134880460D01*
X192178747Y-135052078D01*
X192080457Y-135311963D01*
X191968093Y-135522176D01*
X191813339Y-135733119D01*
X191759975Y-135797495D01*
X191483224Y-136066862D01*
X191128384Y-136320721D01*
X190719157Y-136545112D01*
X190279245Y-136726075D01*
X190073297Y-136790839D01*
X189882723Y-136827968D01*
X189611892Y-136857995D01*
X189282128Y-136880526D01*
X188914754Y-136895165D01*
X188531098Y-136901518D01*
X188152481Y-136899190D01*
X187800231Y-136887786D01*
X187495670Y-136866910D01*
X187295507Y-136842290D01*
X186939022Y-136776991D01*
X186584453Y-136698668D01*
X186248292Y-136612224D01*
X185947033Y-136522558D01*
X185697170Y-136434570D01*
X185515198Y-136353162D01*
X185418789Y-136284686D01*
X185400108Y-136225937D01*
X185413690Y-136120215D01*
X185463019Y-135951664D01*
X185538525Y-135739414D01*
X185632828Y-135469279D01*
X185727524Y-135171239D01*
X185805908Y-134898566D01*
X185823574Y-134830361D01*
X185880498Y-134625687D01*
X185938634Y-134454596D01*
X185988139Y-134344916D01*
X186002105Y-134325667D01*
X186043344Y-134299737D01*
X186109143Y-134294789D01*
X186216135Y-134314164D01*
X186380948Y-134361208D01*
X186620214Y-134439262D01*
X186698546Y-134465684D01*
X187131967Y-134601485D01*
X187499487Y-134690237D01*
X187823567Y-134735456D01*
X188126667Y-134740655D01*
X188338682Y-134722327D01*
X188709122Y-134649266D01*
X188992066Y-134530801D01*
X189193515Y-134361806D01*
X189319471Y-134137153D01*
X189375936Y-133851714D01*
X189377081Y-133835164D01*
X189383960Y-133655851D01*
X189368505Y-133537894D01*
X189319231Y-133441424D01*
X189233437Y-133336557D01*
X189118111Y-133223435D01*
X188985960Y-133136266D01*
X188823069Y-133072190D01*
X188615520Y-133028345D01*
X188349395Y-133001872D01*
X188010779Y-132989908D01*
X187585754Y-132989594D01*
X187547461Y-132989988D01*
X187231157Y-132990701D01*
X186946340Y-132986168D01*
X186711156Y-132977059D01*
X186543751Y-132964046D01*
X186467220Y-132950017D01*
X186389908Y-132908102D01*
X186336484Y-132840943D01*
X186304732Y-132733776D01*
X186292437Y-132571832D01*
X186297383Y-132340347D01*
X186317354Y-132024552D01*
X186321009Y-131975601D01*
X186348120Y-131667217D01*
X186376865Y-131448523D01*
X186409351Y-131307406D01*
X186447689Y-131231752D01*
X186451157Y-131228081D01*
X186490393Y-131198770D01*
X186549027Y-131180387D01*
X186642979Y-131172719D01*
X186788172Y-131175551D01*
X187000526Y-131188670D01*
X187295963Y-131211863D01*
X187346978Y-131216078D01*
X187755937Y-131243783D01*
X188077361Y-131248180D01*
X188323750Y-131224853D01*
X188507606Y-131169387D01*
X188641429Y-131077368D01*
X188737719Y-130944381D01*
X188808976Y-130766010D01*
X188830273Y-130692197D01*
X188856376Y-130419324D01*
X188790182Y-130168703D01*
X188640799Y-129953556D01*
X188417333Y-129787109D01*
X188136087Y-129684171D01*
X187858327Y-129649147D01*
X187514097Y-129647924D01*
X187132252Y-129678559D01*
X186741645Y-129739114D01*
X186492365Y-129794703D01*
X186261009Y-129850900D01*
X186098656Y-129873828D01*
X185991677Y-129851173D01*
X185926447Y-129770622D01*
X185889337Y-129619858D01*
X185866719Y-129386570D01*
X185855561Y-129219260D01*
X185837748Y-128967943D01*
X185817921Y-128726426D01*
X185799172Y-128530982D01*
X185790701Y-128458264D01*
X185778069Y-128304246D01*
X185800178Y-128205563D01*
X185870208Y-128118056D01*
X185900945Y-128088850D01*
X186071943Y-127978087D01*
X186327997Y-127875281D01*
X186652513Y-127782853D01*
X187028893Y-127703226D01*
X187440542Y-127638821D01*
X187870864Y-127592061D01*
X188303263Y-127565367D01*
X188721143Y-127561161D01*
X189107908Y-127581866D01*
G36*
X170331075Y-127520281D02*
X170695556Y-127552731D01*
X170966958Y-127581538D01*
X171280356Y-127609255D01*
X171693038Y-127634028D01*
X172202527Y-127655760D01*
X172806343Y-127674354D01*
X173502007Y-127689711D01*
X173878359Y-127696067D01*
X174406095Y-127704259D01*
X174841397Y-127711512D01*
X175193622Y-127718429D01*
X175472126Y-127725613D01*
X175686266Y-127733667D01*
X175845400Y-127743195D01*
X175958885Y-127754800D01*
X176036079Y-127769086D01*
X176086337Y-127786655D01*
X176119018Y-127808112D01*
X176143478Y-127834058D01*
X176150412Y-127842562D01*
X176189870Y-127910146D01*
X176219943Y-128012996D01*
X176243306Y-128168246D01*
X176262634Y-128393031D01*
X176278482Y-128663016D01*
X176292811Y-128967815D01*
X176295535Y-129192844D01*
X176280930Y-129359968D01*
X176243273Y-129491050D01*
X176176839Y-129607955D01*
X176075905Y-129732547D01*
X175967356Y-129851493D01*
X175772434Y-130082548D01*
X175576640Y-130358838D01*
X175370895Y-130694748D01*
X175146120Y-131104664D01*
X175011550Y-131365971D01*
X174578487Y-132312487D01*
X174227680Y-133281489D01*
X173954525Y-134288674D01*
X173754415Y-135349740D01*
X173680687Y-135902174D01*
X173642362Y-136212132D01*
X173607306Y-136437297D01*
X173570265Y-136594322D01*
X173525982Y-136699859D01*
X173469203Y-136770562D01*
X173394672Y-136823083D01*
X173389064Y-136826278D01*
X173305168Y-136845681D01*
X173137686Y-136862990D01*
X172904820Y-136877870D01*
X172624771Y-136889986D01*
X172315743Y-136899000D01*
X171995937Y-136904579D01*
X171683555Y-136906386D01*
X171396800Y-136904086D01*
X171153874Y-136897342D01*
X170972979Y-136885821D01*
X170883317Y-136872474D01*
X170704872Y-136821711D01*
X170590917Y-136765425D01*
X170528934Y-136681880D01*
X170506405Y-136549338D01*
X170510809Y-136346063D01*
X170517490Y-136237272D01*
X170580573Y-135738523D01*
X170709321Y-135184991D01*
X170905133Y-134572363D01*
X171169406Y-133896326D01*
X171503539Y-133152570D01*
X171547907Y-133059583D01*
X171698976Y-132748389D01*
X171841886Y-132462982D01*
X171986707Y-132184792D01*
X172143509Y-131895248D01*
X172322361Y-131575780D01*
X172533334Y-131207817D01*
X172786496Y-130772788D01*
X172806116Y-130739247D01*
X172950725Y-130487272D01*
X173045702Y-130308378D01*
X173096506Y-130190036D01*
X173108597Y-130119718D01*
X173090446Y-130086824D01*
X173012166Y-130069566D01*
X172850345Y-130060475D01*
X172622955Y-130060013D01*
X172359469Y-130068121D01*
X172101496Y-130078696D01*
X171769484Y-130090986D01*
X171391164Y-130104040D01*
X170994265Y-130116906D01*
X170606517Y-130128632D01*
X170548193Y-130130309D01*
X170174584Y-130140345D01*
X169890244Y-130145992D01*
X169682710Y-130146729D01*
X169539519Y-130142034D01*
X169448211Y-130131384D01*
X169396322Y-130114258D01*
X169371391Y-130090134D01*
X169367066Y-130080839D01*
X169361211Y-129996570D01*
X169371870Y-129839386D01*
X169396756Y-129636424D01*
X169413896Y-129525782D01*
X169446226Y-129286975D01*
X169476517Y-128984853D01*
X169501401Y-128657897D01*
X169517510Y-128344588D01*
X169517661Y-128340381D01*
X169530368Y-128043600D01*
X169545358Y-127833078D01*
X169564778Y-127693267D01*
X169590772Y-127608624D01*
X169624802Y-127564128D01*
X169707796Y-127527368D01*
X169846782Y-127507724D01*
X170051346Y-127505320D01*
X170331075Y-127520281D01*
X170331075Y-127520281D01*
G37*
X170331075Y-127520281D02*
X170695556Y-127552731D01*
X170966958Y-127581538D01*
X171280356Y-127609255D01*
X171693038Y-127634028D01*
X172202527Y-127655760D01*
X172806343Y-127674354D01*
X173502007Y-127689711D01*
X173878359Y-127696067D01*
X174406095Y-127704259D01*
X174841397Y-127711512D01*
X175193622Y-127718429D01*
X175472126Y-127725613D01*
X175686266Y-127733667D01*
X175845400Y-127743195D01*
X175958885Y-127754800D01*
X176036079Y-127769086D01*
X176086337Y-127786655D01*
X176119018Y-127808112D01*
X176143478Y-127834058D01*
X176150412Y-127842562D01*
X176189870Y-127910146D01*
X176219943Y-128012996D01*
X176243306Y-128168246D01*
X176262634Y-128393031D01*
X176278482Y-128663016D01*
X176292811Y-128967815D01*
X176295535Y-129192844D01*
X176280930Y-129359968D01*
X176243273Y-129491050D01*
X176176839Y-129607955D01*
X176075905Y-129732547D01*
X175967356Y-129851493D01*
X175772434Y-130082548D01*
X175576640Y-130358838D01*
X175370895Y-130694748D01*
X175146120Y-131104664D01*
X175011550Y-131365971D01*
X174578487Y-132312487D01*
X174227680Y-133281489D01*
X173954525Y-134288674D01*
X173754415Y-135349740D01*
X173680687Y-135902174D01*
X173642362Y-136212132D01*
X173607306Y-136437297D01*
X173570265Y-136594322D01*
X173525982Y-136699859D01*
X173469203Y-136770562D01*
X173394672Y-136823083D01*
X173389064Y-136826278D01*
X173305168Y-136845681D01*
X173137686Y-136862990D01*
X172904820Y-136877870D01*
X172624771Y-136889986D01*
X172315743Y-136899000D01*
X171995937Y-136904579D01*
X171683555Y-136906386D01*
X171396800Y-136904086D01*
X171153874Y-136897342D01*
X170972979Y-136885821D01*
X170883317Y-136872474D01*
X170704872Y-136821711D01*
X170590917Y-136765425D01*
X170528934Y-136681880D01*
X170506405Y-136549338D01*
X170510809Y-136346063D01*
X170517490Y-136237272D01*
X170580573Y-135738523D01*
X170709321Y-135184991D01*
X170905133Y-134572363D01*
X171169406Y-133896326D01*
X171503539Y-133152570D01*
X171547907Y-133059583D01*
X171698976Y-132748389D01*
X171841886Y-132462982D01*
X171986707Y-132184792D01*
X172143509Y-131895248D01*
X172322361Y-131575780D01*
X172533334Y-131207817D01*
X172786496Y-130772788D01*
X172806116Y-130739247D01*
X172950725Y-130487272D01*
X173045702Y-130308378D01*
X173096506Y-130190036D01*
X173108597Y-130119718D01*
X173090446Y-130086824D01*
X173012166Y-130069566D01*
X172850345Y-130060475D01*
X172622955Y-130060013D01*
X172359469Y-130068121D01*
X172101496Y-130078696D01*
X171769484Y-130090986D01*
X171391164Y-130104040D01*
X170994265Y-130116906D01*
X170606517Y-130128632D01*
X170548193Y-130130309D01*
X170174584Y-130140345D01*
X169890244Y-130145992D01*
X169682710Y-130146729D01*
X169539519Y-130142034D01*
X169448211Y-130131384D01*
X169396322Y-130114258D01*
X169371391Y-130090134D01*
X169367066Y-130080839D01*
X169361211Y-129996570D01*
X169371870Y-129839386D01*
X169396756Y-129636424D01*
X169413896Y-129525782D01*
X169446226Y-129286975D01*
X169476517Y-128984853D01*
X169501401Y-128657897D01*
X169517510Y-128344588D01*
X169517661Y-128340381D01*
X169530368Y-128043600D01*
X169545358Y-127833078D01*
X169564778Y-127693267D01*
X169590772Y-127608624D01*
X169624802Y-127564128D01*
X169707796Y-127527368D01*
X169846782Y-127507724D01*
X170051346Y-127505320D01*
X170331075Y-127520281D01*
G36*
X107452201Y-134710786D02*
X107462953Y-134893246D01*
X107470975Y-135141563D01*
X107476347Y-135438142D01*
X107479149Y-135765391D01*
X107479460Y-136105714D01*
X107477361Y-136441519D01*
X107472931Y-136755210D01*
X107466250Y-137029195D01*
X107457399Y-137245878D01*
X107446458Y-137387666D01*
X107439860Y-137426353D01*
X107390189Y-137519258D01*
X107287928Y-137561269D01*
X107226782Y-137568755D01*
X107097766Y-137569449D01*
X107017055Y-137551151D01*
X107012460Y-137547546D01*
X107003518Y-137489489D01*
X106995375Y-137342177D01*
X106988309Y-137118156D01*
X106982601Y-136829973D01*
X106978529Y-136490176D01*
X106976374Y-136111312D01*
X106976103Y-135916266D01*
X106976103Y-134321343D01*
X107419281Y-134321343D01*
X107452201Y-134710786D01*
X107452201Y-134710786D01*
G37*
X107452201Y-134710786D02*
X107462953Y-134893246D01*
X107470975Y-135141563D01*
X107476347Y-135438142D01*
X107479149Y-135765391D01*
X107479460Y-136105714D01*
X107477361Y-136441519D01*
X107472931Y-136755210D01*
X107466250Y-137029195D01*
X107457399Y-137245878D01*
X107446458Y-137387666D01*
X107439860Y-137426353D01*
X107390189Y-137519258D01*
X107287928Y-137561269D01*
X107226782Y-137568755D01*
X107097766Y-137569449D01*
X107017055Y-137551151D01*
X107012460Y-137547546D01*
X107003518Y-137489489D01*
X106995375Y-137342177D01*
X106988309Y-137118156D01*
X106982601Y-136829973D01*
X106978529Y-136490176D01*
X106976374Y-136111312D01*
X106976103Y-135916266D01*
X106976103Y-134321343D01*
X107419281Y-134321343D01*
X107452201Y-134710786D01*
G36*
X101626553Y-133210524D02*
X101946805Y-133218334D01*
X102183768Y-133228167D01*
X102355958Y-133242299D01*
X102481889Y-133263009D01*
X102580077Y-133292574D01*
X102669036Y-133333273D01*
X102682702Y-133340465D01*
X102954919Y-133537622D01*
X103151991Y-133788943D01*
X103270196Y-134077188D01*
X103305814Y-134385115D01*
X103255124Y-134695484D01*
X103114404Y-134991054D01*
X103056300Y-135071442D01*
X102951424Y-135204770D01*
X103151214Y-135412054D01*
X103283942Y-135565306D01*
X103399326Y-135724628D01*
X103442229Y-135797495D01*
X103504148Y-135994378D01*
X103530048Y-136245790D01*
X103519853Y-136511012D01*
X103473486Y-136749323D01*
X103444165Y-136829430D01*
X103319099Y-137036605D01*
X103142164Y-137233771D01*
X102943664Y-137391884D01*
X102767284Y-137478121D01*
X102652553Y-137498991D01*
X102457320Y-137519960D01*
X102202871Y-137539344D01*
X101910492Y-137555455D01*
X101677586Y-137564425D01*
X101353766Y-137573735D01*
X101117306Y-137577835D01*
X100953852Y-137575811D01*
X100849049Y-137566746D01*
X100788545Y-137549727D01*
X100757986Y-137523836D01*
X100748628Y-137505189D01*
X100739758Y-137431656D01*
X100732309Y-137270301D01*
X100726278Y-137035095D01*
X100721666Y-136740009D01*
X100718472Y-136399016D01*
X100717990Y-136297611D01*
X101275101Y-136297611D01*
X101275603Y-136591301D01*
X101278625Y-136798786D01*
X101286433Y-136935668D01*
X101301298Y-137017545D01*
X101325488Y-137060017D01*
X101361272Y-137078683D01*
X101389630Y-137085019D01*
X101669695Y-137111239D01*
X102017421Y-137092767D01*
X102205940Y-137068972D01*
X102476772Y-137014263D01*
X102670135Y-136932720D01*
X102809525Y-136810535D01*
X102906891Y-136657078D01*
X102994522Y-136388973D01*
X102980599Y-136127457D01*
X102910927Y-135949406D01*
X102814295Y-135802633D01*
X102693832Y-135696659D01*
X102531907Y-135624702D01*
X102310886Y-135579983D01*
X102013135Y-135555722D01*
X101873197Y-135550364D01*
X101275101Y-135532263D01*
X101275101Y-136297611D01*
X100717990Y-136297611D01*
X100716696Y-136026087D01*
X100716336Y-135635193D01*
X100717392Y-135240305D01*
X100719864Y-134855395D01*
X100722553Y-134605610D01*
X101282758Y-134605610D01*
X101288411Y-134805200D01*
X101304107Y-134928883D01*
X101330809Y-134989445D01*
X101337091Y-134994792D01*
X101431700Y-135018740D01*
X101596177Y-135023407D01*
X101801009Y-135011603D01*
X102016684Y-134986132D01*
X102213692Y-134949803D01*
X102362521Y-134905422D01*
X102385417Y-134895081D01*
X102601321Y-134742168D01*
X102726235Y-134543996D01*
X102760510Y-134326127D01*
X102714540Y-134079268D01*
X102584950Y-133889556D01*
X102372821Y-133757667D01*
X102079237Y-133684274D01*
X101706979Y-133669989D01*
X101300551Y-133685070D01*
X101286189Y-134317327D01*
X101282758Y-134605610D01*
X100722553Y-134605610D01*
X100723751Y-134494435D01*
X100729051Y-134171395D01*
X100735766Y-133900248D01*
X100743893Y-133694965D01*
X100748802Y-133617279D01*
X100781814Y-133193175D01*
X101626553Y-133210524D01*
X101626553Y-133210524D01*
G37*
X101626553Y-133210524D02*
X101946805Y-133218334D01*
X102183768Y-133228167D01*
X102355958Y-133242299D01*
X102481889Y-133263009D01*
X102580077Y-133292574D01*
X102669036Y-133333273D01*
X102682702Y-133340465D01*
X102954919Y-133537622D01*
X103151991Y-133788943D01*
X103270196Y-134077188D01*
X103305814Y-134385115D01*
X103255124Y-134695484D01*
X103114404Y-134991054D01*
X103056300Y-135071442D01*
X102951424Y-135204770D01*
X103151214Y-135412054D01*
X103283942Y-135565306D01*
X103399326Y-135724628D01*
X103442229Y-135797495D01*
X103504148Y-135994378D01*
X103530048Y-136245790D01*
X103519853Y-136511012D01*
X103473486Y-136749323D01*
X103444165Y-136829430D01*
X103319099Y-137036605D01*
X103142164Y-137233771D01*
X102943664Y-137391884D01*
X102767284Y-137478121D01*
X102652553Y-137498991D01*
X102457320Y-137519960D01*
X102202871Y-137539344D01*
X101910492Y-137555455D01*
X101677586Y-137564425D01*
X101353766Y-137573735D01*
X101117306Y-137577835D01*
X100953852Y-137575811D01*
X100849049Y-137566746D01*
X100788545Y-137549727D01*
X100757986Y-137523836D01*
X100748628Y-137505189D01*
X100739758Y-137431656D01*
X100732309Y-137270301D01*
X100726278Y-137035095D01*
X100721666Y-136740009D01*
X100718472Y-136399016D01*
X100717990Y-136297611D01*
X101275101Y-136297611D01*
X101275603Y-136591301D01*
X101278625Y-136798786D01*
X101286433Y-136935668D01*
X101301298Y-137017545D01*
X101325488Y-137060017D01*
X101361272Y-137078683D01*
X101389630Y-137085019D01*
X101669695Y-137111239D01*
X102017421Y-137092767D01*
X102205940Y-137068972D01*
X102476772Y-137014263D01*
X102670135Y-136932720D01*
X102809525Y-136810535D01*
X102906891Y-136657078D01*
X102994522Y-136388973D01*
X102980599Y-136127457D01*
X102910927Y-135949406D01*
X102814295Y-135802633D01*
X102693832Y-135696659D01*
X102531907Y-135624702D01*
X102310886Y-135579983D01*
X102013135Y-135555722D01*
X101873197Y-135550364D01*
X101275101Y-135532263D01*
X101275101Y-136297611D01*
X100717990Y-136297611D01*
X100716696Y-136026087D01*
X100716336Y-135635193D01*
X100717392Y-135240305D01*
X100719864Y-134855395D01*
X100722553Y-134605610D01*
X101282758Y-134605610D01*
X101288411Y-134805200D01*
X101304107Y-134928883D01*
X101330809Y-134989445D01*
X101337091Y-134994792D01*
X101431700Y-135018740D01*
X101596177Y-135023407D01*
X101801009Y-135011603D01*
X102016684Y-134986132D01*
X102213692Y-134949803D01*
X102362521Y-134905422D01*
X102385417Y-134895081D01*
X102601321Y-134742168D01*
X102726235Y-134543996D01*
X102760510Y-134326127D01*
X102714540Y-134079268D01*
X102584950Y-133889556D01*
X102372821Y-133757667D01*
X102079237Y-133684274D01*
X101706979Y-133669989D01*
X101300551Y-133685070D01*
X101286189Y-134317327D01*
X101282758Y-134605610D01*
X100722553Y-134605610D01*
X100723751Y-134494435D01*
X100729051Y-134171395D01*
X100735766Y-133900248D01*
X100743893Y-133694965D01*
X100748802Y-133617279D01*
X100781814Y-133193175D01*
X101626553Y-133210524D01*
G36*
X116979113Y-134284003D02*
X117193138Y-134343131D01*
X117365004Y-134468396D01*
X117515678Y-134664978D01*
X117629653Y-134880083D01*
X117660912Y-135037040D01*
X117609094Y-135137541D01*
X117473841Y-135183284D01*
X117404910Y-135186673D01*
X117318497Y-135151867D01*
X117194523Y-135061426D01*
X117082752Y-134957615D01*
X116888172Y-134797069D01*
X116712921Y-134732364D01*
X116561757Y-134763345D01*
X116439439Y-134889857D01*
X116394151Y-134980133D01*
X116349942Y-135117059D01*
X116351088Y-135230102D01*
X116407910Y-135332176D01*
X116530729Y-135436195D01*
X116729867Y-135555077D01*
X116941118Y-135664574D01*
X117164340Y-135781259D01*
X117360576Y-135892375D01*
X117507686Y-135984842D01*
X117580995Y-136042625D01*
X117685970Y-136226153D01*
X117739378Y-136465516D01*
X117740820Y-136728540D01*
X117689900Y-136983051D01*
X117595119Y-137184027D01*
X117387361Y-137409766D01*
X117125837Y-137568254D01*
X116834349Y-137651277D01*
X116536697Y-137650627D01*
X116367485Y-137607546D01*
X116187650Y-137508331D01*
X116004466Y-137352599D01*
X115844273Y-137168775D01*
X115733410Y-136985284D01*
X115701913Y-136889269D01*
X115684928Y-136712385D01*
X115723762Y-136610522D01*
X115829365Y-136567315D01*
X115920497Y-136562631D01*
X116042400Y-136573585D01*
X116127104Y-136619553D01*
X116208821Y-136724001D01*
X116248414Y-136787540D01*
X116418402Y-137009877D01*
X116598130Y-137131133D01*
X116789001Y-137151686D01*
X116992421Y-137071918D01*
X117077720Y-137011924D01*
X117172988Y-136903817D01*
X117206338Y-136757804D01*
X117207365Y-136713938D01*
X117163363Y-136498940D01*
X117029136Y-136318425D01*
X116801357Y-136168764D01*
X116646540Y-136102567D01*
X116289572Y-135935648D01*
X116026557Y-135738102D01*
X115858718Y-135512011D01*
X115787282Y-135259457D01*
X115813471Y-134982520D01*
X115879496Y-134799001D01*
X116036862Y-134553760D01*
X116253170Y-134387810D01*
X116534649Y-134297193D01*
X116697720Y-134279121D01*
X116979113Y-134284003D01*
X116979113Y-134284003D01*
G37*
X116979113Y-134284003D02*
X117193138Y-134343131D01*
X117365004Y-134468396D01*
X117515678Y-134664978D01*
X117629653Y-134880083D01*
X117660912Y-135037040D01*
X117609094Y-135137541D01*
X117473841Y-135183284D01*
X117404910Y-135186673D01*
X117318497Y-135151867D01*
X117194523Y-135061426D01*
X117082752Y-134957615D01*
X116888172Y-134797069D01*
X116712921Y-134732364D01*
X116561757Y-134763345D01*
X116439439Y-134889857D01*
X116394151Y-134980133D01*
X116349942Y-135117059D01*
X116351088Y-135230102D01*
X116407910Y-135332176D01*
X116530729Y-135436195D01*
X116729867Y-135555077D01*
X116941118Y-135664574D01*
X117164340Y-135781259D01*
X117360576Y-135892375D01*
X117507686Y-135984842D01*
X117580995Y-136042625D01*
X117685970Y-136226153D01*
X117739378Y-136465516D01*
X117740820Y-136728540D01*
X117689900Y-136983051D01*
X117595119Y-137184027D01*
X117387361Y-137409766D01*
X117125837Y-137568254D01*
X116834349Y-137651277D01*
X116536697Y-137650627D01*
X116367485Y-137607546D01*
X116187650Y-137508331D01*
X116004466Y-137352599D01*
X115844273Y-137168775D01*
X115733410Y-136985284D01*
X115701913Y-136889269D01*
X115684928Y-136712385D01*
X115723762Y-136610522D01*
X115829365Y-136567315D01*
X115920497Y-136562631D01*
X116042400Y-136573585D01*
X116127104Y-136619553D01*
X116208821Y-136724001D01*
X116248414Y-136787540D01*
X116418402Y-137009877D01*
X116598130Y-137131133D01*
X116789001Y-137151686D01*
X116992421Y-137071918D01*
X117077720Y-137011924D01*
X117172988Y-136903817D01*
X117206338Y-136757804D01*
X117207365Y-136713938D01*
X117163363Y-136498940D01*
X117029136Y-136318425D01*
X116801357Y-136168764D01*
X116646540Y-136102567D01*
X116289572Y-135935648D01*
X116026557Y-135738102D01*
X115858718Y-135512011D01*
X115787282Y-135259457D01*
X115813471Y-134982520D01*
X115879496Y-134799001D01*
X116036862Y-134553760D01*
X116253170Y-134387810D01*
X116534649Y-134297193D01*
X116697720Y-134279121D01*
X116979113Y-134284003D01*
G36*
X113947129Y-134250040D02*
X114009276Y-134259990D01*
X114381345Y-134377578D01*
X114713764Y-134576505D01*
X114993839Y-134842290D01*
X115208874Y-135160456D01*
X115346173Y-135516524D01*
X115392247Y-135837268D01*
X115400351Y-136077455D01*
X114458668Y-136109133D01*
X114117830Y-136120063D01*
X113773530Y-136130161D01*
X113454099Y-136138661D01*
X113187868Y-136144799D01*
X113046143Y-136147310D01*
X112807200Y-136153953D01*
X112657768Y-136172826D01*
X112585575Y-136214262D01*
X112578346Y-136288591D01*
X112623807Y-136406144D01*
X112657465Y-136474472D01*
X112854254Y-136762797D01*
X113109269Y-136972790D01*
X113411486Y-137097457D01*
X113692543Y-137131122D01*
X113969201Y-137106839D01*
X114211349Y-137025459D01*
X114447881Y-136874184D01*
X114629556Y-136716100D01*
X114796345Y-136569882D01*
X114924086Y-136489313D01*
X115036823Y-136460152D01*
X115063280Y-136459218D01*
X115201577Y-136485751D01*
X115257239Y-136542217D01*
X115253368Y-136660434D01*
X115179805Y-136819474D01*
X115048597Y-136999480D01*
X114871794Y-137180589D01*
X114867797Y-137184156D01*
X114521087Y-137433490D01*
X114148937Y-137592018D01*
X113763238Y-137656591D01*
X113375879Y-137624062D01*
X113287926Y-137602548D01*
X112907724Y-137449462D01*
X112588348Y-137224762D01*
X112334640Y-136941860D01*
X112151444Y-136614171D01*
X112043602Y-136255108D01*
X112015956Y-135878086D01*
X112072912Y-135499425D01*
X112603818Y-135499425D01*
X112616502Y-135555411D01*
X112664380Y-135589811D01*
X112740482Y-135605984D01*
X112896261Y-135619370D01*
X113113248Y-135629868D01*
X113372971Y-135637383D01*
X113656959Y-135641814D01*
X113946743Y-135643066D01*
X114223850Y-135641038D01*
X114469810Y-135635635D01*
X114666153Y-135626756D01*
X114794407Y-135614305D01*
X114835829Y-135601334D01*
X114828734Y-135527115D01*
X114766456Y-135405813D01*
X114666528Y-135261588D01*
X114546488Y-135118602D01*
X114423871Y-135001015D01*
X114372311Y-134962684D01*
X114195841Y-134867982D01*
X113993788Y-134788205D01*
X113939089Y-134772026D01*
X113781309Y-134739043D01*
X113645934Y-134739993D01*
X113483347Y-134777408D01*
X113413149Y-134798855D01*
X113154374Y-134915069D01*
X112912948Y-135084927D01*
X112721578Y-135282864D01*
X112648359Y-135396652D01*
X112603818Y-135499425D01*
X112072912Y-135499425D01*
X112073350Y-135496518D01*
X112220625Y-135123817D01*
X112328822Y-134945943D01*
X112565874Y-134685128D01*
X112871313Y-134474891D01*
X113220057Y-134325472D01*
X113587024Y-134247109D01*
X113947129Y-134250040D01*
X113947129Y-134250040D01*
G37*
X113947129Y-134250040D02*
X114009276Y-134259990D01*
X114381345Y-134377578D01*
X114713764Y-134576505D01*
X114993839Y-134842290D01*
X115208874Y-135160456D01*
X115346173Y-135516524D01*
X115392247Y-135837268D01*
X115400351Y-136077455D01*
X114458668Y-136109133D01*
X114117830Y-136120063D01*
X113773530Y-136130161D01*
X113454099Y-136138661D01*
X113187868Y-136144799D01*
X113046143Y-136147310D01*
X112807200Y-136153953D01*
X112657768Y-136172826D01*
X112585575Y-136214262D01*
X112578346Y-136288591D01*
X112623807Y-136406144D01*
X112657465Y-136474472D01*
X112854254Y-136762797D01*
X113109269Y-136972790D01*
X113411486Y-137097457D01*
X113692543Y-137131122D01*
X113969201Y-137106839D01*
X114211349Y-137025459D01*
X114447881Y-136874184D01*
X114629556Y-136716100D01*
X114796345Y-136569882D01*
X114924086Y-136489313D01*
X115036823Y-136460152D01*
X115063280Y-136459218D01*
X115201577Y-136485751D01*
X115257239Y-136542217D01*
X115253368Y-136660434D01*
X115179805Y-136819474D01*
X115048597Y-136999480D01*
X114871794Y-137180589D01*
X114867797Y-137184156D01*
X114521087Y-137433490D01*
X114148937Y-137592018D01*
X113763238Y-137656591D01*
X113375879Y-137624062D01*
X113287926Y-137602548D01*
X112907724Y-137449462D01*
X112588348Y-137224762D01*
X112334640Y-136941860D01*
X112151444Y-136614171D01*
X112043602Y-136255108D01*
X112015956Y-135878086D01*
X112072912Y-135499425D01*
X112603818Y-135499425D01*
X112616502Y-135555411D01*
X112664380Y-135589811D01*
X112740482Y-135605984D01*
X112896261Y-135619370D01*
X113113248Y-135629868D01*
X113372971Y-135637383D01*
X113656959Y-135641814D01*
X113946743Y-135643066D01*
X114223850Y-135641038D01*
X114469810Y-135635635D01*
X114666153Y-135626756D01*
X114794407Y-135614305D01*
X114835829Y-135601334D01*
X114828734Y-135527115D01*
X114766456Y-135405813D01*
X114666528Y-135261588D01*
X114546488Y-135118602D01*
X114423871Y-135001015D01*
X114372311Y-134962684D01*
X114195841Y-134867982D01*
X113993788Y-134788205D01*
X113939089Y-134772026D01*
X113781309Y-134739043D01*
X113645934Y-134739993D01*
X113483347Y-134777408D01*
X113413149Y-134798855D01*
X113154374Y-134915069D01*
X112912948Y-135084927D01*
X112721578Y-135282864D01*
X112648359Y-135396652D01*
X112603818Y-135499425D01*
X112072912Y-135499425D01*
X112073350Y-135496518D01*
X112220625Y-135123817D01*
X112328822Y-134945943D01*
X112565874Y-134685128D01*
X112871313Y-134474891D01*
X113220057Y-134325472D01*
X113587024Y-134247109D01*
X113947129Y-134250040D01*
G36*
X111455461Y-135359036D02*
X111454323Y-135962596D01*
X111450876Y-136466324D01*
X111445073Y-136872164D01*
X111436864Y-137182065D01*
X111426204Y-137397971D01*
X111413042Y-137521830D01*
X111401257Y-137555648D01*
X111301956Y-137576599D01*
X111174991Y-137558265D01*
X111060601Y-137512469D01*
X110999027Y-137451030D01*
X110996566Y-137436772D01*
X110978940Y-137313542D01*
X110921163Y-137265459D01*
X110811537Y-137290556D01*
X110651374Y-137378733D01*
X110426913Y-137492682D01*
X110163654Y-137588217D01*
X109902200Y-137653045D01*
X109683154Y-137674878D01*
X109673898Y-137674615D01*
X109542235Y-137660375D01*
X109373765Y-137630808D01*
X109330487Y-137621548D01*
X109120896Y-137544516D01*
X108879239Y-137409843D01*
X108637251Y-137239221D01*
X108426666Y-137054341D01*
X108313891Y-136926678D01*
X108133901Y-136609504D01*
X108028734Y-136248398D01*
X108000749Y-135869741D01*
X108007223Y-135823298D01*
X108563244Y-135823298D01*
X108570092Y-136147385D01*
X108642619Y-136414969D01*
X108789707Y-136654039D01*
X108849062Y-136723676D01*
X109123323Y-136963930D01*
X109420675Y-137105569D01*
X109737067Y-137147810D01*
X110068449Y-137089871D01*
X110284250Y-137001000D01*
X110545693Y-136815696D01*
X110745762Y-136563458D01*
X110875360Y-136264712D01*
X110925391Y-135939879D01*
X110893018Y-135634271D01*
X110774899Y-135347982D01*
X110579250Y-135104401D01*
X110325611Y-134915555D01*
X110033521Y-134793469D01*
X109722523Y-134750172D01*
X109496627Y-134774811D01*
X109162208Y-134894960D01*
X108893948Y-135086280D01*
X108699586Y-135340078D01*
X108586861Y-135647662D01*
X108563244Y-135823298D01*
X108007223Y-135823298D01*
X108052307Y-135499915D01*
X108160481Y-135212124D01*
X108387217Y-134874451D01*
X108681609Y-134599013D01*
X109026817Y-134396358D01*
X109405996Y-134277029D01*
X109699349Y-134248570D01*
X110037545Y-134275236D01*
X110355919Y-134351982D01*
X110622629Y-134469882D01*
X110717186Y-134533887D01*
X110815764Y-134595957D01*
X110879299Y-134608183D01*
X110882597Y-134605763D01*
X110896718Y-134545417D01*
X110912341Y-134403273D01*
X110927742Y-134199285D01*
X110941199Y-133953408D01*
X110943544Y-133900060D01*
X110971894Y-133226954D01*
X111213678Y-133211439D01*
X111455461Y-133195925D01*
X111455461Y-135359036D01*
X111455461Y-135359036D01*
G37*
X111455461Y-135359036D02*
X111454323Y-135962596D01*
X111450876Y-136466324D01*
X111445073Y-136872164D01*
X111436864Y-137182065D01*
X111426204Y-137397971D01*
X111413042Y-137521830D01*
X111401257Y-137555648D01*
X111301956Y-137576599D01*
X111174991Y-137558265D01*
X111060601Y-137512469D01*
X110999027Y-137451030D01*
X110996566Y-137436772D01*
X110978940Y-137313542D01*
X110921163Y-137265459D01*
X110811537Y-137290556D01*
X110651374Y-137378733D01*
X110426913Y-137492682D01*
X110163654Y-137588217D01*
X109902200Y-137653045D01*
X109683154Y-137674878D01*
X109673898Y-137674615D01*
X109542235Y-137660375D01*
X109373765Y-137630808D01*
X109330487Y-137621548D01*
X109120896Y-137544516D01*
X108879239Y-137409843D01*
X108637251Y-137239221D01*
X108426666Y-137054341D01*
X108313891Y-136926678D01*
X108133901Y-136609504D01*
X108028734Y-136248398D01*
X108000749Y-135869741D01*
X108007223Y-135823298D01*
X108563244Y-135823298D01*
X108570092Y-136147385D01*
X108642619Y-136414969D01*
X108789707Y-136654039D01*
X108849062Y-136723676D01*
X109123323Y-136963930D01*
X109420675Y-137105569D01*
X109737067Y-137147810D01*
X110068449Y-137089871D01*
X110284250Y-137001000D01*
X110545693Y-136815696D01*
X110745762Y-136563458D01*
X110875360Y-136264712D01*
X110925391Y-135939879D01*
X110893018Y-135634271D01*
X110774899Y-135347982D01*
X110579250Y-135104401D01*
X110325611Y-134915555D01*
X110033521Y-134793469D01*
X109722523Y-134750172D01*
X109496627Y-134774811D01*
X109162208Y-134894960D01*
X108893948Y-135086280D01*
X108699586Y-135340078D01*
X108586861Y-135647662D01*
X108563244Y-135823298D01*
X108007223Y-135823298D01*
X108052307Y-135499915D01*
X108160481Y-135212124D01*
X108387217Y-134874451D01*
X108681609Y-134599013D01*
X109026817Y-134396358D01*
X109405996Y-134277029D01*
X109699349Y-134248570D01*
X110037545Y-134275236D01*
X110355919Y-134351982D01*
X110622629Y-134469882D01*
X110717186Y-134533887D01*
X110815764Y-134595957D01*
X110879299Y-134608183D01*
X110882597Y-134605763D01*
X110896718Y-134545417D01*
X110912341Y-134403273D01*
X110927742Y-134199285D01*
X110941199Y-133953408D01*
X110943544Y-133900060D01*
X110971894Y-133226954D01*
X111213678Y-133211439D01*
X111455461Y-133195925D01*
X111455461Y-135359036D01*
G36*
X105436203Y-133144744D02*
X105694165Y-133219026D01*
X105736265Y-133239435D01*
X105952385Y-133390816D01*
X106152529Y-133596303D01*
X106307779Y-133822402D01*
X106375837Y-133980191D01*
X106406573Y-134166360D01*
X106363552Y-134284601D01*
X106243461Y-134340484D01*
X106157677Y-134346793D01*
X106056394Y-134336511D01*
X105975406Y-134292453D01*
X105889264Y-134194799D01*
X105803809Y-134071212D01*
X105615583Y-133841753D01*
X105409431Y-133684767D01*
X105202348Y-133612255D01*
X105148904Y-133608717D01*
X104993746Y-133643471D01*
X104818929Y-133731833D01*
X104661168Y-133849957D01*
X104557174Y-133973997D01*
X104544569Y-134001261D01*
X104483914Y-134173362D01*
X104458032Y-134290299D01*
X104462369Y-134390812D01*
X104486722Y-134493386D01*
X104542328Y-134628909D01*
X104636387Y-134740987D01*
X104784758Y-134840583D01*
X105003299Y-134938661D01*
X105266493Y-135032502D01*
X105638950Y-135171443D01*
X105924888Y-135314374D01*
X106139432Y-135470989D01*
X106297707Y-135650980D01*
X106343358Y-135722571D01*
X106475924Y-136040577D01*
X106515527Y-136366435D01*
X106468403Y-136685098D01*
X106340783Y-136981517D01*
X106138902Y-137240645D01*
X105868991Y-137447433D01*
X105575839Y-137575500D01*
X105330174Y-137643432D01*
X105139498Y-137671154D01*
X104965617Y-137659463D01*
X104770340Y-137609157D01*
X104721725Y-137593323D01*
X104428631Y-137448813D01*
X104167052Y-137231985D01*
X103958282Y-136966124D01*
X103823609Y-136674514D01*
X103801042Y-136586473D01*
X103793194Y-136429483D01*
X103856579Y-136331734D01*
X103935162Y-136291503D01*
X104088517Y-136285391D01*
X104239445Y-136378585D01*
X104384321Y-136568591D01*
X104413385Y-136620093D01*
X104578706Y-136869687D01*
X104763234Y-137027291D01*
X104982812Y-137102662D01*
X105207949Y-137109424D01*
X105503883Y-137048624D01*
X105734737Y-136916803D01*
X105892888Y-136721408D01*
X105970711Y-136469888D01*
X105977644Y-136357415D01*
X105963548Y-136179035D01*
X105913807Y-136029307D01*
X105817245Y-135898715D01*
X105662684Y-135777742D01*
X105438947Y-135656871D01*
X105134857Y-135526586D01*
X104892998Y-135433901D01*
X104510706Y-135257702D01*
X104224112Y-135048389D01*
X104031980Y-134803959D01*
X103933076Y-134522411D01*
X103926163Y-134201743D01*
X103976567Y-133948702D01*
X104073393Y-133741970D01*
X104238302Y-133529460D01*
X104444277Y-133341715D01*
X104605696Y-133237505D01*
X104850612Y-133153912D01*
X105141233Y-133123016D01*
X105436203Y-133144744D01*
X105436203Y-133144744D01*
G37*
X105436203Y-133144744D02*
X105694165Y-133219026D01*
X105736265Y-133239435D01*
X105952385Y-133390816D01*
X106152529Y-133596303D01*
X106307779Y-133822402D01*
X106375837Y-133980191D01*
X106406573Y-134166360D01*
X106363552Y-134284601D01*
X106243461Y-134340484D01*
X106157677Y-134346793D01*
X106056394Y-134336511D01*
X105975406Y-134292453D01*
X105889264Y-134194799D01*
X105803809Y-134071212D01*
X105615583Y-133841753D01*
X105409431Y-133684767D01*
X105202348Y-133612255D01*
X105148904Y-133608717D01*
X104993746Y-133643471D01*
X104818929Y-133731833D01*
X104661168Y-133849957D01*
X104557174Y-133973997D01*
X104544569Y-134001261D01*
X104483914Y-134173362D01*
X104458032Y-134290299D01*
X104462369Y-134390812D01*
X104486722Y-134493386D01*
X104542328Y-134628909D01*
X104636387Y-134740987D01*
X104784758Y-134840583D01*
X105003299Y-134938661D01*
X105266493Y-135032502D01*
X105638950Y-135171443D01*
X105924888Y-135314374D01*
X106139432Y-135470989D01*
X106297707Y-135650980D01*
X106343358Y-135722571D01*
X106475924Y-136040577D01*
X106515527Y-136366435D01*
X106468403Y-136685098D01*
X106340783Y-136981517D01*
X106138902Y-137240645D01*
X105868991Y-137447433D01*
X105575839Y-137575500D01*
X105330174Y-137643432D01*
X105139498Y-137671154D01*
X104965617Y-137659463D01*
X104770340Y-137609157D01*
X104721725Y-137593323D01*
X104428631Y-137448813D01*
X104167052Y-137231985D01*
X103958282Y-136966124D01*
X103823609Y-136674514D01*
X103801042Y-136586473D01*
X103793194Y-136429483D01*
X103856579Y-136331734D01*
X103935162Y-136291503D01*
X104088517Y-136285391D01*
X104239445Y-136378585D01*
X104384321Y-136568591D01*
X104413385Y-136620093D01*
X104578706Y-136869687D01*
X104763234Y-137027291D01*
X104982812Y-137102662D01*
X105207949Y-137109424D01*
X105503883Y-137048624D01*
X105734737Y-136916803D01*
X105892888Y-136721408D01*
X105970711Y-136469888D01*
X105977644Y-136357415D01*
X105963548Y-136179035D01*
X105913807Y-136029307D01*
X105817245Y-135898715D01*
X105662684Y-135777742D01*
X105438947Y-135656871D01*
X105134857Y-135526586D01*
X104892998Y-135433901D01*
X104510706Y-135257702D01*
X104224112Y-135048389D01*
X104031980Y-134803959D01*
X103933076Y-134522411D01*
X103926163Y-134201743D01*
X103976567Y-133948702D01*
X104073393Y-133741970D01*
X104238302Y-133529460D01*
X104444277Y-133341715D01*
X104605696Y-133237505D01*
X104850612Y-133153912D01*
X105141233Y-133123016D01*
X105436203Y-133144744D01*
G36*
X113475444Y-138707920D02*
X113552540Y-138779089D01*
X113574412Y-138834031D01*
X113576610Y-138966981D01*
X113528544Y-139079620D01*
X113450172Y-139148807D01*
X113361448Y-139151404D01*
X113323620Y-139124839D01*
X113293688Y-139040628D01*
X113291618Y-138909155D01*
X113318118Y-138781271D01*
X113318823Y-138779413D01*
X113385816Y-138705523D01*
X113475444Y-138707920D01*
X113475444Y-138707920D01*
G37*
X113475444Y-138707920D02*
X113552540Y-138779089D01*
X113574412Y-138834031D01*
X113576610Y-138966981D01*
X113528544Y-139079620D01*
X113450172Y-139148807D01*
X113361448Y-139151404D01*
X113323620Y-139124839D01*
X113293688Y-139040628D01*
X113291618Y-138909155D01*
X113318118Y-138781271D01*
X113318823Y-138779413D01*
X113385816Y-138705523D01*
X113475444Y-138707920D01*
G36*
X117107489Y-139323993D02*
X117367828Y-139479165D01*
X117484872Y-139584548D01*
X117663340Y-139825203D01*
X117745189Y-140086549D01*
X117730799Y-140358363D01*
X117620550Y-140630421D01*
X117437257Y-140869567D01*
X117321457Y-140986068D01*
X117230433Y-141052335D01*
X117128109Y-141082519D01*
X116978410Y-141090770D01*
X116872503Y-141091092D01*
X116625942Y-141078527D01*
X116451032Y-141037717D01*
X116367485Y-140996577D01*
X116146614Y-140810984D01*
X115983757Y-140574745D01*
X115895743Y-140316011D01*
X115885036Y-140189410D01*
X115888646Y-140171119D01*
X116251940Y-140171119D01*
X116262777Y-140388158D01*
X116289707Y-140477019D01*
X116413791Y-140655871D01*
X116596193Y-140769154D01*
X116812599Y-140810762D01*
X117038694Y-140774588D01*
X117186048Y-140702130D01*
X117314826Y-140562341D01*
X117392375Y-140365906D01*
X117414613Y-140146402D01*
X117377462Y-139937409D01*
X117296443Y-139793460D01*
X117122320Y-139663372D01*
X116908089Y-139606983D01*
X116684099Y-139624504D01*
X116480695Y-139716149D01*
X116398684Y-139787168D01*
X116299611Y-139955799D01*
X116251940Y-140171119D01*
X115888646Y-140171119D01*
X115930025Y-139961470D01*
X116048101Y-139728840D01*
X116218988Y-139527415D01*
X116293247Y-139466745D01*
X116568390Y-139317604D01*
X116840407Y-139270080D01*
X117107489Y-139323993D01*
X117107489Y-139323993D01*
G37*
X117107489Y-139323993D02*
X117367828Y-139479165D01*
X117484872Y-139584548D01*
X117663340Y-139825203D01*
X117745189Y-140086549D01*
X117730799Y-140358363D01*
X117620550Y-140630421D01*
X117437257Y-140869567D01*
X117321457Y-140986068D01*
X117230433Y-141052335D01*
X117128109Y-141082519D01*
X116978410Y-141090770D01*
X116872503Y-141091092D01*
X116625942Y-141078527D01*
X116451032Y-141037717D01*
X116367485Y-140996577D01*
X116146614Y-140810984D01*
X115983757Y-140574745D01*
X115895743Y-140316011D01*
X115885036Y-140189410D01*
X115888646Y-140171119D01*
X116251940Y-140171119D01*
X116262777Y-140388158D01*
X116289707Y-140477019D01*
X116413791Y-140655871D01*
X116596193Y-140769154D01*
X116812599Y-140810762D01*
X117038694Y-140774588D01*
X117186048Y-140702130D01*
X117314826Y-140562341D01*
X117392375Y-140365906D01*
X117414613Y-140146402D01*
X117377462Y-139937409D01*
X117296443Y-139793460D01*
X117122320Y-139663372D01*
X116908089Y-139606983D01*
X116684099Y-139624504D01*
X116480695Y-139716149D01*
X116398684Y-139787168D01*
X116299611Y-139955799D01*
X116251940Y-140171119D01*
X115888646Y-140171119D01*
X115930025Y-139961470D01*
X116048101Y-139728840D01*
X116218988Y-139527415D01*
X116293247Y-139466745D01*
X116568390Y-139317604D01*
X116840407Y-139270080D01*
X117107489Y-139323993D01*
G36*
X113504452Y-139331622D02*
X113535064Y-139363316D01*
X113555298Y-139431549D01*
X113568172Y-139552957D01*
X113576707Y-139744174D01*
X113583343Y-139996894D01*
X113588487Y-140377544D01*
X113583043Y-140666259D01*
X113565807Y-140872473D01*
X113535578Y-141005622D01*
X113491152Y-141075140D01*
X113443875Y-141091282D01*
X113362438Y-141046908D01*
X113319740Y-140932214D01*
X113304250Y-140795033D01*
X113294253Y-140585416D01*
X113289722Y-140332580D01*
X113290631Y-140065745D01*
X113296955Y-139814127D01*
X113308667Y-139606945D01*
X113321021Y-139497989D01*
X113352048Y-139370848D01*
X113400398Y-139321034D01*
X113460441Y-139319833D01*
X113504452Y-139331622D01*
X113504452Y-139331622D01*
G37*
X113504452Y-139331622D02*
X113535064Y-139363316D01*
X113555298Y-139431549D01*
X113568172Y-139552957D01*
X113576707Y-139744174D01*
X113583343Y-139996894D01*
X113588487Y-140377544D01*
X113583043Y-140666259D01*
X113565807Y-140872473D01*
X113535578Y-141005622D01*
X113491152Y-141075140D01*
X113443875Y-141091282D01*
X113362438Y-141046908D01*
X113319740Y-140932214D01*
X113304250Y-140795033D01*
X113294253Y-140585416D01*
X113289722Y-140332580D01*
X113290631Y-140065745D01*
X113296955Y-139814127D01*
X113308667Y-139606945D01*
X113321021Y-139497989D01*
X113352048Y-139370848D01*
X113400398Y-139321034D01*
X113460441Y-139319833D01*
X113504452Y-139331622D01*
G36*
X111977205Y-138709213D02*
X112303015Y-138734284D01*
X112545840Y-138780074D01*
X112723519Y-138853224D01*
X112853893Y-138960376D01*
X112929326Y-139063685D01*
X113042892Y-139325156D01*
X113056308Y-139573308D01*
X112969128Y-139810276D01*
X112780906Y-140038195D01*
X112713549Y-140097754D01*
X112484248Y-140289425D01*
X112737876Y-140637040D01*
X112874506Y-140837726D01*
X112941792Y-140974229D01*
X112941599Y-141055118D01*
X112875793Y-141088964D01*
X112836791Y-141091282D01*
X112754722Y-141052978D01*
X112634218Y-140950728D01*
X112490915Y-140803523D01*
X112340447Y-140630358D01*
X112198450Y-140450224D01*
X112080559Y-140282115D01*
X112002410Y-140145024D01*
X111979638Y-140057942D01*
X111981258Y-140052040D01*
X112043435Y-140004192D01*
X112170024Y-139962443D01*
X112235894Y-139949934D01*
X112461129Y-139878503D01*
X112623160Y-139752205D01*
X112713373Y-139588780D01*
X112723153Y-139405968D01*
X112643884Y-139221509D01*
X112610428Y-139178704D01*
X112531566Y-139103412D01*
X112434531Y-139056133D01*
X112289052Y-139026210D01*
X112126861Y-139008464D01*
X111760872Y-138974917D01*
X111755838Y-139740415D01*
X111749857Y-140171534D01*
X111737645Y-140508902D01*
X111718314Y-140760431D01*
X111690977Y-140934033D01*
X111654748Y-141037621D01*
X111608740Y-141079106D01*
X111605685Y-141079786D01*
X111515172Y-141073355D01*
X111491155Y-141059108D01*
X111480963Y-141000061D01*
X111471904Y-140854018D01*
X111464419Y-140635784D01*
X111458945Y-140360163D01*
X111455921Y-140041961D01*
X111455461Y-139854483D01*
X111455461Y-138685553D01*
X111977205Y-138709213D01*
X111977205Y-138709213D01*
G37*
X111977205Y-138709213D02*
X112303015Y-138734284D01*
X112545840Y-138780074D01*
X112723519Y-138853224D01*
X112853893Y-138960376D01*
X112929326Y-139063685D01*
X113042892Y-139325156D01*
X113056308Y-139573308D01*
X112969128Y-139810276D01*
X112780906Y-140038195D01*
X112713549Y-140097754D01*
X112484248Y-140289425D01*
X112737876Y-140637040D01*
X112874506Y-140837726D01*
X112941792Y-140974229D01*
X112941599Y-141055118D01*
X112875793Y-141088964D01*
X112836791Y-141091282D01*
X112754722Y-141052978D01*
X112634218Y-140950728D01*
X112490915Y-140803523D01*
X112340447Y-140630358D01*
X112198450Y-140450224D01*
X112080559Y-140282115D01*
X112002410Y-140145024D01*
X111979638Y-140057942D01*
X111981258Y-140052040D01*
X112043435Y-140004192D01*
X112170024Y-139962443D01*
X112235894Y-139949934D01*
X112461129Y-139878503D01*
X112623160Y-139752205D01*
X112713373Y-139588780D01*
X112723153Y-139405968D01*
X112643884Y-139221509D01*
X112610428Y-139178704D01*
X112531566Y-139103412D01*
X112434531Y-139056133D01*
X112289052Y-139026210D01*
X112126861Y-139008464D01*
X111760872Y-138974917D01*
X111755838Y-139740415D01*
X111749857Y-140171534D01*
X111737645Y-140508902D01*
X111718314Y-140760431D01*
X111690977Y-140934033D01*
X111654748Y-141037621D01*
X111608740Y-141079106D01*
X111605685Y-141079786D01*
X111515172Y-141073355D01*
X111491155Y-141059108D01*
X111480963Y-141000061D01*
X111471904Y-140854018D01*
X111464419Y-140635784D01*
X111458945Y-140360163D01*
X111455921Y-140041961D01*
X111455461Y-139854483D01*
X111455461Y-138685553D01*
X111977205Y-138709213D01*
G36*
X107823014Y-138745968D02*
X107876401Y-138881804D01*
X107891640Y-139057755D01*
X107929545Y-139210807D01*
X108031750Y-139296932D01*
X108107720Y-139309719D01*
X108201322Y-139346577D01*
X108230489Y-139386720D01*
X108225169Y-139492651D01*
X108145497Y-139578279D01*
X108018591Y-139615077D01*
X108013357Y-139615130D01*
X107958117Y-139619018D01*
X107922913Y-139643157D01*
X107903232Y-139706258D01*
X107894563Y-139827032D01*
X107892394Y-140024190D01*
X107892335Y-140117044D01*
X107887260Y-140483308D01*
X107871212Y-140756032D01*
X107842956Y-140943016D01*
X107801260Y-141052056D01*
X107744889Y-141090950D01*
X107738157Y-141091282D01*
X107681204Y-141080915D01*
X107640436Y-141040380D01*
X107613239Y-140955524D01*
X107596999Y-140812196D01*
X107589100Y-140596245D01*
X107586929Y-140293517D01*
X107586924Y-140272690D01*
X107586924Y-139615130D01*
X107304534Y-139615130D01*
X107127580Y-139622992D01*
X107012922Y-139655148D01*
X106921696Y-139724451D01*
X106897319Y-139749817D01*
X106818638Y-139859080D01*
X106779213Y-139992425D01*
X106766971Y-140169757D01*
X106752681Y-140517862D01*
X106725489Y-140788668D01*
X106686577Y-140974988D01*
X106637126Y-141069632D01*
X106617308Y-141079815D01*
X106526791Y-141073356D01*
X106502779Y-141059108D01*
X106490948Y-140998711D01*
X106480774Y-140854078D01*
X106472961Y-140642773D01*
X106468212Y-140382358D01*
X106467085Y-140168288D01*
X106467085Y-139313163D01*
X107014279Y-139298716D01*
X107561473Y-139284268D01*
X107575214Y-139106112D01*
X107599049Y-138893662D01*
X107634664Y-138766410D01*
X107688507Y-138707888D01*
X107734663Y-138698898D01*
X107823014Y-138745968D01*
X107823014Y-138745968D01*
G37*
X107823014Y-138745968D02*
X107876401Y-138881804D01*
X107891640Y-139057755D01*
X107929545Y-139210807D01*
X108031750Y-139296932D01*
X108107720Y-139309719D01*
X108201322Y-139346577D01*
X108230489Y-139386720D01*
X108225169Y-139492651D01*
X108145497Y-139578279D01*
X108018591Y-139615077D01*
X108013357Y-139615130D01*
X107958117Y-139619018D01*
X107922913Y-139643157D01*
X107903232Y-139706258D01*
X107894563Y-139827032D01*
X107892394Y-140024190D01*
X107892335Y-140117044D01*
X107887260Y-140483308D01*
X107871212Y-140756032D01*
X107842956Y-140943016D01*
X107801260Y-141052056D01*
X107744889Y-141090950D01*
X107738157Y-141091282D01*
X107681204Y-141080915D01*
X107640436Y-141040380D01*
X107613239Y-140955524D01*
X107596999Y-140812196D01*
X107589100Y-140596245D01*
X107586929Y-140293517D01*
X107586924Y-140272690D01*
X107586924Y-139615130D01*
X107304534Y-139615130D01*
X107127580Y-139622992D01*
X107012922Y-139655148D01*
X106921696Y-139724451D01*
X106897319Y-139749817D01*
X106818638Y-139859080D01*
X106779213Y-139992425D01*
X106766971Y-140169757D01*
X106752681Y-140517862D01*
X106725489Y-140788668D01*
X106686577Y-140974988D01*
X106637126Y-141069632D01*
X106617308Y-141079815D01*
X106526791Y-141073356D01*
X106502779Y-141059108D01*
X106490948Y-140998711D01*
X106480774Y-140854078D01*
X106472961Y-140642773D01*
X106468212Y-140382358D01*
X106467085Y-140168288D01*
X106467085Y-139313163D01*
X107014279Y-139298716D01*
X107561473Y-139284268D01*
X107575214Y-139106112D01*
X107599049Y-138893662D01*
X107634664Y-138766410D01*
X107688507Y-138707888D01*
X107734663Y-138698898D01*
X107823014Y-138745968D01*
G36*
X105435923Y-139295192D02*
X105699350Y-139396375D01*
X105745728Y-139425154D01*
X105931910Y-139590798D01*
X106071175Y-139797327D01*
X106145880Y-140013667D01*
X106151894Y-140140620D01*
X106136223Y-140302304D01*
X105440428Y-140327755D01*
X105183826Y-140339501D01*
X104964587Y-140353989D01*
X104802391Y-140369585D01*
X104716924Y-140384654D01*
X104709524Y-140388452D01*
X104713069Y-140448242D01*
X104766273Y-140551527D01*
X104783966Y-140577547D01*
X104946578Y-140725770D01*
X105153630Y-140795611D01*
X105383854Y-140786449D01*
X105615982Y-140697660D01*
X105747501Y-140605759D01*
X105900960Y-140507084D01*
X106009075Y-140492198D01*
X106059502Y-140548584D01*
X106039898Y-140663722D01*
X105949520Y-140810626D01*
X105766005Y-140969864D01*
X105515052Y-141062520D01*
X105203702Y-141091282D01*
X104985854Y-141077288D01*
X104824350Y-141028388D01*
X104735017Y-140976753D01*
X104561194Y-140808409D01*
X104422810Y-140580363D01*
X104341616Y-140333794D01*
X104329209Y-140208566D01*
X104366090Y-139971362D01*
X104710923Y-139971362D01*
X104772855Y-139993147D01*
X104915447Y-140010083D01*
X105117598Y-140020260D01*
X105273896Y-140022345D01*
X105519407Y-140019720D01*
X105678955Y-140010412D01*
X105768280Y-139992265D01*
X105803123Y-139963128D01*
X105805361Y-139949628D01*
X105759692Y-139838208D01*
X105642109Y-139730402D01*
X105481748Y-139642190D01*
X105307745Y-139589548D01*
X105149235Y-139588456D01*
X105147470Y-139588837D01*
X105031674Y-139636970D01*
X104905033Y-139721800D01*
X104792870Y-139821136D01*
X104720507Y-139912791D01*
X104710923Y-139971362D01*
X104366090Y-139971362D01*
X104373851Y-139921454D01*
X104496657Y-139675995D01*
X104680948Y-139481415D01*
X104910042Y-139346937D01*
X105167261Y-139281788D01*
X105435923Y-139295192D01*
X105435923Y-139295192D01*
G37*
X105435923Y-139295192D02*
X105699350Y-139396375D01*
X105745728Y-139425154D01*
X105931910Y-139590798D01*
X106071175Y-139797327D01*
X106145880Y-140013667D01*
X106151894Y-140140620D01*
X106136223Y-140302304D01*
X105440428Y-140327755D01*
X105183826Y-140339501D01*
X104964587Y-140353989D01*
X104802391Y-140369585D01*
X104716924Y-140384654D01*
X104709524Y-140388452D01*
X104713069Y-140448242D01*
X104766273Y-140551527D01*
X104783966Y-140577547D01*
X104946578Y-140725770D01*
X105153630Y-140795611D01*
X105383854Y-140786449D01*
X105615982Y-140697660D01*
X105747501Y-140605759D01*
X105900960Y-140507084D01*
X106009075Y-140492198D01*
X106059502Y-140548584D01*
X106039898Y-140663722D01*
X105949520Y-140810626D01*
X105766005Y-140969864D01*
X105515052Y-141062520D01*
X105203702Y-141091282D01*
X104985854Y-141077288D01*
X104824350Y-141028388D01*
X104735017Y-140976753D01*
X104561194Y-140808409D01*
X104422810Y-140580363D01*
X104341616Y-140333794D01*
X104329209Y-140208566D01*
X104366090Y-139971362D01*
X104710923Y-139971362D01*
X104772855Y-139993147D01*
X104915447Y-140010083D01*
X105117598Y-140020260D01*
X105273896Y-140022345D01*
X105519407Y-140019720D01*
X105678955Y-140010412D01*
X105768280Y-139992265D01*
X105803123Y-139963128D01*
X105805361Y-139949628D01*
X105759692Y-139838208D01*
X105642109Y-139730402D01*
X105481748Y-139642190D01*
X105307745Y-139589548D01*
X105149235Y-139588456D01*
X105147470Y-139588837D01*
X105031674Y-139636970D01*
X104905033Y-139721800D01*
X104792870Y-139821136D01*
X104720507Y-139912791D01*
X104710923Y-139971362D01*
X104366090Y-139971362D01*
X104373851Y-139921454D01*
X104496657Y-139675995D01*
X104680948Y-139481415D01*
X104910042Y-139346937D01*
X105167261Y-139281788D01*
X105435923Y-139295192D01*
G36*
X101198748Y-138724619D02*
X101487119Y-138733011D01*
X101717518Y-138756397D01*
X101868720Y-138792583D01*
X101872747Y-138794235D01*
X102058363Y-138921453D01*
X102179434Y-139104977D01*
X102235913Y-139322346D01*
X102227750Y-139551101D01*
X102154898Y-139768780D01*
X102017309Y-139952923D01*
X101875448Y-140053532D01*
X101737964Y-140101338D01*
X101541777Y-140141480D01*
X101338728Y-140164501D01*
X100969690Y-140188438D01*
X100968995Y-140525331D01*
X100961528Y-140785684D01*
X100938030Y-140958000D01*
X100894945Y-141055280D01*
X100828716Y-141090524D01*
X100814166Y-141091282D01*
X100748367Y-141063951D01*
X100707262Y-140967938D01*
X100690343Y-140874950D01*
X100681231Y-140755214D01*
X100674846Y-140554348D01*
X100671466Y-140292993D01*
X100671366Y-139991792D01*
X100674499Y-139691483D01*
X100685321Y-139004308D01*
X100969690Y-139004308D01*
X100969690Y-139881127D01*
X101332139Y-139860647D01*
X101530060Y-139845002D01*
X101656954Y-139818763D01*
X101743597Y-139771666D01*
X101815706Y-139699359D01*
X101898042Y-139565875D01*
X101935038Y-139431009D01*
X101935205Y-139421410D01*
X101892153Y-139235365D01*
X101766847Y-139104607D01*
X101557485Y-139027990D01*
X101278447Y-139004308D01*
X100969690Y-139004308D01*
X100685321Y-139004308D01*
X100689730Y-138724349D01*
X101198748Y-138724619D01*
X101198748Y-138724619D01*
G37*
X101198748Y-138724619D02*
X101487119Y-138733011D01*
X101717518Y-138756397D01*
X101868720Y-138792583D01*
X101872747Y-138794235D01*
X102058363Y-138921453D01*
X102179434Y-139104977D01*
X102235913Y-139322346D01*
X102227750Y-139551101D01*
X102154898Y-139768780D01*
X102017309Y-139952923D01*
X101875448Y-140053532D01*
X101737964Y-140101338D01*
X101541777Y-140141480D01*
X101338728Y-140164501D01*
X100969690Y-140188438D01*
X100968995Y-140525331D01*
X100961528Y-140785684D01*
X100938030Y-140958000D01*
X100894945Y-141055280D01*
X100828716Y-141090524D01*
X100814166Y-141091282D01*
X100748367Y-141063951D01*
X100707262Y-140967938D01*
X100690343Y-140874950D01*
X100681231Y-140755214D01*
X100674846Y-140554348D01*
X100671466Y-140292993D01*
X100671366Y-139991792D01*
X100674499Y-139691483D01*
X100685321Y-139004308D01*
X100969690Y-139004308D01*
X100969690Y-139881127D01*
X101332139Y-139860647D01*
X101530060Y-139845002D01*
X101656954Y-139818763D01*
X101743597Y-139771666D01*
X101815706Y-139699359D01*
X101898042Y-139565875D01*
X101935038Y-139431009D01*
X101935205Y-139421410D01*
X101892153Y-139235365D01*
X101766847Y-139104607D01*
X101557485Y-139027990D01*
X101278447Y-139004308D01*
X100969690Y-139004308D01*
X100685321Y-139004308D01*
X100689730Y-138724349D01*
X101198748Y-138724619D01*
G36*
X115032159Y-139303185D02*
X115306472Y-139425362D01*
X115481550Y-139562996D01*
X115603239Y-139706015D01*
X115639424Y-139810218D01*
X115601394Y-139868344D01*
X115500436Y-139873133D01*
X115347835Y-139817324D01*
X115212802Y-139735875D01*
X114982870Y-139624996D01*
X114749352Y-139598323D01*
X114536276Y-139657150D01*
X114473884Y-139696028D01*
X114295704Y-139879407D01*
X114206102Y-140089057D01*
X114202716Y-140305481D01*
X114283188Y-140509186D01*
X114445158Y-140680675D01*
X114603921Y-140770332D01*
X114829236Y-140815650D01*
X115067538Y-140764008D01*
X115272187Y-140651789D01*
X115441935Y-140557573D01*
X115561608Y-140536174D01*
X115622986Y-140588021D01*
X115629409Y-140633166D01*
X115582084Y-140778507D01*
X115453979Y-140907904D01*
X115265902Y-141012066D01*
X115038657Y-141081705D01*
X114793053Y-141107529D01*
X114603029Y-141091444D01*
X114336481Y-140996709D01*
X114122655Y-140829834D01*
X113969761Y-140609918D01*
X113886006Y-140356061D01*
X113879599Y-140087362D01*
X113958749Y-139822920D01*
X114015314Y-139723955D01*
X114226315Y-139485760D01*
X114476506Y-139335093D01*
X114750312Y-139273665D01*
X115032159Y-139303185D01*
X115032159Y-139303185D01*
G37*
X115032159Y-139303185D02*
X115306472Y-139425362D01*
X115481550Y-139562996D01*
X115603239Y-139706015D01*
X115639424Y-139810218D01*
X115601394Y-139868344D01*
X115500436Y-139873133D01*
X115347835Y-139817324D01*
X115212802Y-139735875D01*
X114982870Y-139624996D01*
X114749352Y-139598323D01*
X114536276Y-139657150D01*
X114473884Y-139696028D01*
X114295704Y-139879407D01*
X114206102Y-140089057D01*
X114202716Y-140305481D01*
X114283188Y-140509186D01*
X114445158Y-140680675D01*
X114603921Y-140770332D01*
X114829236Y-140815650D01*
X115067538Y-140764008D01*
X115272187Y-140651789D01*
X115441935Y-140557573D01*
X115561608Y-140536174D01*
X115622986Y-140588021D01*
X115629409Y-140633166D01*
X115582084Y-140778507D01*
X115453979Y-140907904D01*
X115265902Y-141012066D01*
X115038657Y-141081705D01*
X114793053Y-141107529D01*
X114603029Y-141091444D01*
X114336481Y-140996709D01*
X114122655Y-140829834D01*
X113969761Y-140609918D01*
X113886006Y-140356061D01*
X113879599Y-140087362D01*
X113958749Y-139822920D01*
X114015314Y-139723955D01*
X114226315Y-139485760D01*
X114476506Y-139335093D01*
X114750312Y-139273665D01*
X115032159Y-139303185D01*
G36*
X109561675Y-139306914D02*
X109834735Y-139427609D01*
X110042168Y-139615712D01*
X110177086Y-139855480D01*
X110232604Y-140131175D01*
X110201834Y-140427056D01*
X110134892Y-140617074D01*
X109982247Y-140837436D01*
X109763286Y-141000701D01*
X109502230Y-141096318D01*
X109223303Y-141113737D01*
X109063077Y-141083909D01*
X108864313Y-140986495D01*
X108670293Y-140825135D01*
X108517163Y-140632720D01*
X108471636Y-140545723D01*
X108402861Y-140270928D01*
X108407205Y-140213383D01*
X108724538Y-140213383D01*
X108770815Y-140442507D01*
X108864009Y-140601926D01*
X109024320Y-140732600D01*
X109229345Y-140800170D01*
X109445172Y-140800976D01*
X109637888Y-140731358D01*
X109691835Y-140691249D01*
X109846207Y-140496679D01*
X109914495Y-140278393D01*
X109900735Y-140057790D01*
X109808959Y-139856272D01*
X109643202Y-139695238D01*
X109489826Y-139619617D01*
X109347151Y-139578445D01*
X109238807Y-139581917D01*
X109107992Y-139633598D01*
X109084271Y-139645068D01*
X108886491Y-139791967D01*
X108764838Y-139988970D01*
X108724538Y-140213383D01*
X108407205Y-140213383D01*
X108423046Y-140003579D01*
X108519582Y-139758006D01*
X108679858Y-139548541D01*
X108891265Y-139389513D01*
X109141193Y-139295255D01*
X109417032Y-139280097D01*
X109561675Y-139306914D01*
X109561675Y-139306914D01*
G37*
X109561675Y-139306914D02*
X109834735Y-139427609D01*
X110042168Y-139615712D01*
X110177086Y-139855480D01*
X110232604Y-140131175D01*
X110201834Y-140427056D01*
X110134892Y-140617074D01*
X109982247Y-140837436D01*
X109763286Y-141000701D01*
X109502230Y-141096318D01*
X109223303Y-141113737D01*
X109063077Y-141083909D01*
X108864313Y-140986495D01*
X108670293Y-140825135D01*
X108517163Y-140632720D01*
X108471636Y-140545723D01*
X108402861Y-140270928D01*
X108407205Y-140213383D01*
X108724538Y-140213383D01*
X108770815Y-140442507D01*
X108864009Y-140601926D01*
X109024320Y-140732600D01*
X109229345Y-140800170D01*
X109445172Y-140800976D01*
X109637888Y-140731358D01*
X109691835Y-140691249D01*
X109846207Y-140496679D01*
X109914495Y-140278393D01*
X109900735Y-140057790D01*
X109808959Y-139856272D01*
X109643202Y-139695238D01*
X109489826Y-139619617D01*
X109347151Y-139578445D01*
X109238807Y-139581917D01*
X109107992Y-139633598D01*
X109084271Y-139645068D01*
X108886491Y-139791967D01*
X108764838Y-139988970D01*
X108724538Y-140213383D01*
X108407205Y-140213383D01*
X108423046Y-140003579D01*
X108519582Y-139758006D01*
X108679858Y-139548541D01*
X108891265Y-139389513D01*
X109141193Y-139295255D01*
X109417032Y-139280097D01*
X109561675Y-139306914D01*
G36*
X102694569Y-139341053D02*
X102756026Y-139441742D01*
X102790853Y-139621819D01*
X102802412Y-139891317D01*
X102802439Y-139904469D01*
X102811324Y-140213427D01*
X102842609Y-140438523D01*
X102904004Y-140596636D01*
X103003215Y-140704641D01*
X103147953Y-140779417D01*
X103212035Y-140801249D01*
X103337831Y-140797313D01*
X103487423Y-140737555D01*
X103617980Y-140643127D01*
X103671794Y-140574214D01*
X103700399Y-140476009D01*
X103728352Y-140302750D01*
X103751991Y-140081141D01*
X103764880Y-139895623D01*
X103779350Y-139650065D01*
X103794222Y-139488765D01*
X103813602Y-139394241D01*
X103841597Y-139349014D01*
X103882313Y-139335604D01*
X103896543Y-139335170D01*
X103933635Y-139339706D01*
X103960423Y-139362791D01*
X103978579Y-139418643D01*
X103989777Y-139521479D01*
X103995688Y-139685517D01*
X103997986Y-139924974D01*
X103998347Y-140200501D01*
X103998347Y-141065832D01*
X103769289Y-141070825D01*
X103579160Y-141081961D01*
X103396570Y-141103259D01*
X103362075Y-141109132D01*
X103146751Y-141109672D01*
X102980311Y-141067948D01*
X102764321Y-140945256D01*
X102606127Y-140753206D01*
X102503039Y-140486044D01*
X102452369Y-140138015D01*
X102445842Y-139924398D01*
X102455143Y-139639671D01*
X102484356Y-139447474D01*
X102535446Y-139340132D01*
X102603119Y-139309719D01*
X102694569Y-139341053D01*
X102694569Y-139341053D01*
G37*
X102694569Y-139341053D02*
X102756026Y-139441742D01*
X102790853Y-139621819D01*
X102802412Y-139891317D01*
X102802439Y-139904469D01*
X102811324Y-140213427D01*
X102842609Y-140438523D01*
X102904004Y-140596636D01*
X103003215Y-140704641D01*
X103147953Y-140779417D01*
X103212035Y-140801249D01*
X103337831Y-140797313D01*
X103487423Y-140737555D01*
X103617980Y-140643127D01*
X103671794Y-140574214D01*
X103700399Y-140476009D01*
X103728352Y-140302750D01*
X103751991Y-140081141D01*
X103764880Y-139895623D01*
X103779350Y-139650065D01*
X103794222Y-139488765D01*
X103813602Y-139394241D01*
X103841597Y-139349014D01*
X103882313Y-139335604D01*
X103896543Y-139335170D01*
X103933635Y-139339706D01*
X103960423Y-139362791D01*
X103978579Y-139418643D01*
X103989777Y-139521479D01*
X103995688Y-139685517D01*
X103997986Y-139924974D01*
X103998347Y-140200501D01*
X103998347Y-141065832D01*
X103769289Y-141070825D01*
X103579160Y-141081961D01*
X103396570Y-141103259D01*
X103362075Y-141109132D01*
X103146751Y-141109672D01*
X102980311Y-141067948D01*
X102764321Y-140945256D01*
X102606127Y-140753206D01*
X102503039Y-140486044D01*
X102452369Y-140138015D01*
X102445842Y-139924398D01*
X102455143Y-139639671D01*
X102484356Y-139447474D01*
X102535446Y-139340132D01*
X102603119Y-139309719D01*
X102694569Y-139341053D01*
D11*
G36*
X150557988Y-138636304D02*
X150727710Y-138670063D01*
X150910336Y-138745709D01*
X151074694Y-138855530D01*
X151214470Y-138995306D01*
X151324291Y-139159664D01*
X151399937Y-139342290D01*
X151438500Y-139536164D01*
X151438500Y-139733836D01*
X151399937Y-139927710D01*
X151324291Y-140110336D01*
X151214470Y-140274694D01*
X151074694Y-140414470D01*
X150910336Y-140524291D01*
X150727710Y-140599937D01*
X150557988Y-140633696D01*
X150533837Y-140638500D01*
X150336163Y-140638500D01*
X150312012Y-140633696D01*
X150142290Y-140599937D01*
X149959664Y-140524291D01*
X149795306Y-140414470D01*
X149655530Y-140274694D01*
X149545709Y-140110336D01*
X149470063Y-139927710D01*
X149431500Y-139733836D01*
X149431500Y-139536164D01*
X149470063Y-139342290D01*
X149545709Y-139159664D01*
X149655530Y-138995306D01*
X149795306Y-138855530D01*
X149959664Y-138745709D01*
X150142290Y-138670063D01*
X150312012Y-138636304D01*
X150336163Y-138631500D01*
X150533837Y-138631500D01*
X150557988Y-138636304D01*
X150557988Y-138636304D01*
G37*
G36*
X142937988Y-138636304D02*
X143107710Y-138670063D01*
X143290336Y-138745709D01*
X143454694Y-138855530D01*
X143594470Y-138995306D01*
X143704291Y-139159664D01*
X143779937Y-139342290D01*
X143818500Y-139536164D01*
X143818500Y-139733836D01*
X143779937Y-139927710D01*
X143704291Y-140110336D01*
X143594470Y-140274694D01*
X143454694Y-140414470D01*
X143290336Y-140524291D01*
X143107710Y-140599937D01*
X142937988Y-140633696D01*
X142913837Y-140638500D01*
X142716163Y-140638500D01*
X142692012Y-140633696D01*
X142522290Y-140599937D01*
X142339664Y-140524291D01*
X142175306Y-140414470D01*
X142035530Y-140274694D01*
X141925709Y-140110336D01*
X141850063Y-139927710D01*
X141811500Y-139733836D01*
X141811500Y-139536164D01*
X141850063Y-139342290D01*
X141925709Y-139159664D01*
X142035530Y-138995306D01*
X142175306Y-138855530D01*
X142339664Y-138745709D01*
X142522290Y-138670063D01*
X142692012Y-138636304D01*
X142716163Y-138631500D01*
X142913837Y-138631500D01*
X142937988Y-138636304D01*
X142937988Y-138636304D01*
G37*
G36*
X159798228Y-138931703D02*
X159953100Y-138995853D01*
X160092481Y-139088985D01*
X160211015Y-139207519D01*
X160304147Y-139346900D01*
X160368297Y-139501772D01*
X160401000Y-139666184D01*
X160401000Y-139833816D01*
X160368297Y-139998228D01*
X160304147Y-140153100D01*
X160211015Y-140292481D01*
X160092481Y-140411015D01*
X159953100Y-140504147D01*
X159798228Y-140568297D01*
X159633816Y-140601000D01*
X159466184Y-140601000D01*
X159301772Y-140568297D01*
X159146900Y-140504147D01*
X159007519Y-140411015D01*
X158888985Y-140292481D01*
X158795853Y-140153100D01*
X158731703Y-139998228D01*
X158699000Y-139833816D01*
X158699000Y-139666184D01*
X158731703Y-139501772D01*
X158795853Y-139346900D01*
X158888985Y-139207519D01*
X159007519Y-139088985D01*
X159146900Y-138995853D01*
X159301772Y-138931703D01*
X159466184Y-138899000D01*
X159633816Y-138899000D01*
X159798228Y-138931703D01*
X159798228Y-138931703D01*
G37*
G36*
X134348228Y-138856703D02*
X134503100Y-138920853D01*
X134642481Y-139013985D01*
X134761015Y-139132519D01*
X134854147Y-139271900D01*
X134918297Y-139426772D01*
X134951000Y-139591184D01*
X134951000Y-139758816D01*
X134918297Y-139923228D01*
X134854147Y-140078100D01*
X134761015Y-140217481D01*
X134642481Y-140336015D01*
X134503100Y-140429147D01*
X134348228Y-140493297D01*
X134183816Y-140526000D01*
X134016184Y-140526000D01*
X133851772Y-140493297D01*
X133696900Y-140429147D01*
X133557519Y-140336015D01*
X133438985Y-140217481D01*
X133345853Y-140078100D01*
X133281703Y-139923228D01*
X133249000Y-139758816D01*
X133249000Y-139591184D01*
X133281703Y-139426772D01*
X133345853Y-139271900D01*
X133438985Y-139132519D01*
X133557519Y-139013985D01*
X133696900Y-138920853D01*
X133851772Y-138856703D01*
X134016184Y-138824000D01*
X134183816Y-138824000D01*
X134348228Y-138856703D01*
X134348228Y-138856703D01*
G37*
G36*
X126300443Y-137460519D02*
X126366627Y-137467037D01*
X126479853Y-137501384D01*
X126536467Y-137518557D01*
X126633337Y-137570336D01*
X126692991Y-137602222D01*
X126728729Y-137631552D01*
X126830186Y-137714814D01*
X126913448Y-137816271D01*
X126942778Y-137852009D01*
X126942779Y-137852011D01*
X127026443Y-138008533D01*
X127026443Y-138008534D01*
X127077963Y-138178373D01*
X127095359Y-138355000D01*
X127077963Y-138531627D01*
X127047667Y-138631500D01*
X127026443Y-138701467D01*
X126960947Y-138824000D01*
X126942778Y-138857991D01*
X126917587Y-138888686D01*
X126830186Y-138995186D01*
X126728729Y-139078448D01*
X126692991Y-139107778D01*
X126692989Y-139107779D01*
X126536467Y-139191443D01*
X126483470Y-139207519D01*
X126366627Y-139242963D01*
X126300443Y-139249481D01*
X126234260Y-139256000D01*
X126145740Y-139256000D01*
X126079557Y-139249481D01*
X126013373Y-139242963D01*
X125896530Y-139207519D01*
X125843533Y-139191443D01*
X125687011Y-139107779D01*
X125687009Y-139107778D01*
X125651271Y-139078448D01*
X125549814Y-138995186D01*
X125462413Y-138888686D01*
X125437222Y-138857991D01*
X125419053Y-138824000D01*
X125353557Y-138701467D01*
X125332333Y-138631500D01*
X125302037Y-138531627D01*
X125284641Y-138355000D01*
X125302037Y-138178373D01*
X125353557Y-138008534D01*
X125353557Y-138008533D01*
X125437221Y-137852011D01*
X125437222Y-137852009D01*
X125466552Y-137816271D01*
X125549814Y-137714814D01*
X125651271Y-137631552D01*
X125687009Y-137602222D01*
X125746663Y-137570336D01*
X125843533Y-137518557D01*
X125900147Y-137501384D01*
X126013373Y-137467037D01*
X126079557Y-137460519D01*
X126145740Y-137454000D01*
X126234260Y-137454000D01*
X126300443Y-137460519D01*
X126300443Y-137460519D01*
G37*
G36*
X123760443Y-137460519D02*
X123826627Y-137467037D01*
X123939853Y-137501384D01*
X123996467Y-137518557D01*
X124093337Y-137570336D01*
X124152991Y-137602222D01*
X124188729Y-137631552D01*
X124290186Y-137714814D01*
X124373448Y-137816271D01*
X124402778Y-137852009D01*
X124402779Y-137852011D01*
X124486443Y-138008533D01*
X124486443Y-138008534D01*
X124537963Y-138178373D01*
X124555359Y-138355000D01*
X124537963Y-138531627D01*
X124507667Y-138631500D01*
X124486443Y-138701467D01*
X124420947Y-138824000D01*
X124402778Y-138857991D01*
X124377587Y-138888686D01*
X124290186Y-138995186D01*
X124188729Y-139078448D01*
X124152991Y-139107778D01*
X124152989Y-139107779D01*
X123996467Y-139191443D01*
X123943470Y-139207519D01*
X123826627Y-139242963D01*
X123760443Y-139249481D01*
X123694260Y-139256000D01*
X123605740Y-139256000D01*
X123539557Y-139249481D01*
X123473373Y-139242963D01*
X123356530Y-139207519D01*
X123303533Y-139191443D01*
X123147011Y-139107779D01*
X123147009Y-139107778D01*
X123111271Y-139078448D01*
X123009814Y-138995186D01*
X122922413Y-138888686D01*
X122897222Y-138857991D01*
X122879053Y-138824000D01*
X122813557Y-138701467D01*
X122792333Y-138631500D01*
X122762037Y-138531627D01*
X122744641Y-138355000D01*
X122762037Y-138178373D01*
X122813557Y-138008534D01*
X122813557Y-138008533D01*
X122897221Y-137852011D01*
X122897222Y-137852009D01*
X122926552Y-137816271D01*
X123009814Y-137714814D01*
X123111271Y-137631552D01*
X123147009Y-137602222D01*
X123206663Y-137570336D01*
X123303533Y-137518557D01*
X123360147Y-137501384D01*
X123473373Y-137467037D01*
X123539557Y-137460519D01*
X123605740Y-137454000D01*
X123694260Y-137454000D01*
X123760443Y-137460519D01*
X123760443Y-137460519D01*
G37*
G36*
X181726000Y-138901000D02*
X180024000Y-138901000D01*
X180024000Y-137199000D01*
X181726000Y-137199000D01*
X181726000Y-138901000D01*
X181726000Y-138901000D01*
G37*
G36*
X173421821Y-137211313D02*
X173421824Y-137211314D01*
X173421825Y-137211314D01*
X173582239Y-137259975D01*
X173582241Y-137259976D01*
X173582244Y-137259977D01*
X173730078Y-137338995D01*
X173859659Y-137445341D01*
X173966005Y-137574922D01*
X174045023Y-137722756D01*
X174045024Y-137722759D01*
X174045025Y-137722761D01*
X174091044Y-137874467D01*
X174093687Y-137883179D01*
X174110117Y-138050000D01*
X174093687Y-138216821D01*
X174045023Y-138377244D01*
X173966005Y-138525078D01*
X173859659Y-138654659D01*
X173730078Y-138761005D01*
X173582244Y-138840023D01*
X173582241Y-138840024D01*
X173582239Y-138840025D01*
X173421825Y-138888686D01*
X173421824Y-138888686D01*
X173421821Y-138888687D01*
X173296804Y-138901000D01*
X173213196Y-138901000D01*
X173088179Y-138888687D01*
X173088176Y-138888686D01*
X173088175Y-138888686D01*
X172927761Y-138840025D01*
X172927759Y-138840024D01*
X172927756Y-138840023D01*
X172779922Y-138761005D01*
X172650341Y-138654659D01*
X172543995Y-138525078D01*
X172464977Y-138377244D01*
X172416313Y-138216821D01*
X172399883Y-138050000D01*
X172416313Y-137883179D01*
X172418956Y-137874467D01*
X172464975Y-137722761D01*
X172464976Y-137722759D01*
X172464977Y-137722756D01*
X172543995Y-137574922D01*
X172650341Y-137445341D01*
X172779922Y-137338995D01*
X172927756Y-137259977D01*
X172927759Y-137259976D01*
X172927761Y-137259975D01*
X173088175Y-137211314D01*
X173088176Y-137211314D01*
X173088179Y-137211313D01*
X173213196Y-137199000D01*
X173296804Y-137199000D01*
X173421821Y-137211313D01*
X173421821Y-137211313D01*
G37*
G36*
X150557988Y-136096304D02*
X150727710Y-136130063D01*
X150910336Y-136205709D01*
X151074694Y-136315530D01*
X151214470Y-136455306D01*
X151324291Y-136619664D01*
X151399937Y-136802290D01*
X151433696Y-136972012D01*
X151438500Y-136996163D01*
X151438500Y-137193837D01*
X151433696Y-137217988D01*
X151399937Y-137387710D01*
X151324291Y-137570336D01*
X151214470Y-137734694D01*
X151074694Y-137874470D01*
X150910336Y-137984291D01*
X150727710Y-138059937D01*
X150557988Y-138093696D01*
X150533837Y-138098500D01*
X150336163Y-138098500D01*
X150312012Y-138093696D01*
X150142290Y-138059937D01*
X149959664Y-137984291D01*
X149795306Y-137874470D01*
X149655530Y-137734694D01*
X149545709Y-137570336D01*
X149470063Y-137387710D01*
X149436304Y-137217988D01*
X149431500Y-137193837D01*
X149431500Y-136996163D01*
X149436304Y-136972012D01*
X149470063Y-136802290D01*
X149545709Y-136619664D01*
X149655530Y-136455306D01*
X149795306Y-136315530D01*
X149959664Y-136205709D01*
X150142290Y-136130063D01*
X150312012Y-136096304D01*
X150336163Y-136091500D01*
X150533837Y-136091500D01*
X150557988Y-136096304D01*
X150557988Y-136096304D01*
G37*
G36*
X142937988Y-136096304D02*
X143107710Y-136130063D01*
X143290336Y-136205709D01*
X143454694Y-136315530D01*
X143594470Y-136455306D01*
X143704291Y-136619664D01*
X143779937Y-136802290D01*
X143813696Y-136972012D01*
X143818500Y-136996163D01*
X143818500Y-137193837D01*
X143813696Y-137217988D01*
X143779937Y-137387710D01*
X143704291Y-137570336D01*
X143594470Y-137734694D01*
X143454694Y-137874470D01*
X143290336Y-137984291D01*
X143107710Y-138059937D01*
X142937988Y-138093696D01*
X142913837Y-138098500D01*
X142716163Y-138098500D01*
X142692012Y-138093696D01*
X142522290Y-138059937D01*
X142339664Y-137984291D01*
X142175306Y-137874470D01*
X142035530Y-137734694D01*
X141925709Y-137570336D01*
X141850063Y-137387710D01*
X141816304Y-137217988D01*
X141811500Y-137193837D01*
X141811500Y-136996163D01*
X141816304Y-136972012D01*
X141850063Y-136802290D01*
X141925709Y-136619664D01*
X142035530Y-136455306D01*
X142175306Y-136315530D01*
X142339664Y-136205709D01*
X142522290Y-136130063D01*
X142692012Y-136096304D01*
X142716163Y-136091500D01*
X142913837Y-136091500D01*
X142937988Y-136096304D01*
X142937988Y-136096304D01*
G37*
G36*
X126300442Y-134920518D02*
X126366627Y-134927037D01*
X126479853Y-134961384D01*
X126536467Y-134978557D01*
X126633337Y-135030336D01*
X126692991Y-135062222D01*
X126728729Y-135091552D01*
X126830186Y-135174814D01*
X126913448Y-135276271D01*
X126942778Y-135312009D01*
X126942779Y-135312011D01*
X127026443Y-135468533D01*
X127026443Y-135468534D01*
X127077963Y-135638373D01*
X127095359Y-135815000D01*
X127077963Y-135991627D01*
X127047667Y-136091500D01*
X127026443Y-136161467D01*
X126952348Y-136300087D01*
X126942778Y-136317991D01*
X126913448Y-136353729D01*
X126830186Y-136455186D01*
X126728729Y-136538448D01*
X126692991Y-136567778D01*
X126692989Y-136567779D01*
X126536467Y-136651443D01*
X126479853Y-136668616D01*
X126366627Y-136702963D01*
X126300442Y-136709482D01*
X126234260Y-136716000D01*
X126145740Y-136716000D01*
X126079558Y-136709482D01*
X126013373Y-136702963D01*
X125900147Y-136668616D01*
X125843533Y-136651443D01*
X125687011Y-136567779D01*
X125687009Y-136567778D01*
X125651271Y-136538448D01*
X125549814Y-136455186D01*
X125466552Y-136353729D01*
X125437222Y-136317991D01*
X125427652Y-136300087D01*
X125353557Y-136161467D01*
X125332333Y-136091500D01*
X125302037Y-135991627D01*
X125284641Y-135815000D01*
X125302037Y-135638373D01*
X125353557Y-135468534D01*
X125353557Y-135468533D01*
X125437221Y-135312011D01*
X125437222Y-135312009D01*
X125466552Y-135276271D01*
X125549814Y-135174814D01*
X125651271Y-135091552D01*
X125687009Y-135062222D01*
X125746663Y-135030336D01*
X125843533Y-134978557D01*
X125900147Y-134961384D01*
X126013373Y-134927037D01*
X126079558Y-134920518D01*
X126145740Y-134914000D01*
X126234260Y-134914000D01*
X126300442Y-134920518D01*
X126300442Y-134920518D01*
G37*
G36*
X123760442Y-134920518D02*
X123826627Y-134927037D01*
X123939853Y-134961384D01*
X123996467Y-134978557D01*
X124093337Y-135030336D01*
X124152991Y-135062222D01*
X124188729Y-135091552D01*
X124290186Y-135174814D01*
X124373448Y-135276271D01*
X124402778Y-135312009D01*
X124402779Y-135312011D01*
X124486443Y-135468533D01*
X124486443Y-135468534D01*
X124537963Y-135638373D01*
X124555359Y-135815000D01*
X124537963Y-135991627D01*
X124507667Y-136091500D01*
X124486443Y-136161467D01*
X124412348Y-136300087D01*
X124402778Y-136317991D01*
X124373448Y-136353729D01*
X124290186Y-136455186D01*
X124188729Y-136538448D01*
X124152991Y-136567778D01*
X124152989Y-136567779D01*
X123996467Y-136651443D01*
X123939853Y-136668616D01*
X123826627Y-136702963D01*
X123760442Y-136709482D01*
X123694260Y-136716000D01*
X123605740Y-136716000D01*
X123539558Y-136709482D01*
X123473373Y-136702963D01*
X123360147Y-136668616D01*
X123303533Y-136651443D01*
X123147011Y-136567779D01*
X123147009Y-136567778D01*
X123111271Y-136538448D01*
X123009814Y-136455186D01*
X122926552Y-136353729D01*
X122897222Y-136317991D01*
X122887652Y-136300087D01*
X122813557Y-136161467D01*
X122792333Y-136091500D01*
X122762037Y-135991627D01*
X122744641Y-135815000D01*
X122762037Y-135638373D01*
X122813557Y-135468534D01*
X122813557Y-135468533D01*
X122897221Y-135312011D01*
X122897222Y-135312009D01*
X122926552Y-135276271D01*
X123009814Y-135174814D01*
X123111271Y-135091552D01*
X123147009Y-135062222D01*
X123206663Y-135030336D01*
X123303533Y-134978557D01*
X123360147Y-134961384D01*
X123473373Y-134927037D01*
X123539558Y-134920518D01*
X123605740Y-134914000D01*
X123694260Y-134914000D01*
X123760442Y-134920518D01*
X123760442Y-134920518D01*
G37*
G36*
X150557988Y-133556304D02*
X150727710Y-133590063D01*
X150910336Y-133665709D01*
X151074694Y-133775530D01*
X151214470Y-133915306D01*
X151324291Y-134079664D01*
X151399937Y-134262290D01*
X151438500Y-134456164D01*
X151438500Y-134653836D01*
X151399937Y-134847710D01*
X151324291Y-135030336D01*
X151214470Y-135194694D01*
X151074694Y-135334470D01*
X150910336Y-135444291D01*
X150727710Y-135519937D01*
X150557988Y-135553696D01*
X150533837Y-135558500D01*
X150336163Y-135558500D01*
X150312012Y-135553696D01*
X150142290Y-135519937D01*
X149959664Y-135444291D01*
X149795306Y-135334470D01*
X149655530Y-135194694D01*
X149545709Y-135030336D01*
X149470063Y-134847710D01*
X149431500Y-134653836D01*
X149431500Y-134456164D01*
X149470063Y-134262290D01*
X149545709Y-134079664D01*
X149655530Y-133915306D01*
X149795306Y-133775530D01*
X149959664Y-133665709D01*
X150142290Y-133590063D01*
X150312012Y-133556304D01*
X150336163Y-133551500D01*
X150533837Y-133551500D01*
X150557988Y-133556304D01*
X150557988Y-133556304D01*
G37*
G36*
X142937988Y-133556304D02*
X143107710Y-133590063D01*
X143290336Y-133665709D01*
X143454694Y-133775530D01*
X143594470Y-133915306D01*
X143704291Y-134079664D01*
X143779937Y-134262290D01*
X143818500Y-134456164D01*
X143818500Y-134653836D01*
X143779937Y-134847710D01*
X143704291Y-135030336D01*
X143594470Y-135194694D01*
X143454694Y-135334470D01*
X143290336Y-135444291D01*
X143107710Y-135519937D01*
X142937988Y-135553696D01*
X142913837Y-135558500D01*
X142716163Y-135558500D01*
X142692012Y-135553696D01*
X142522290Y-135519937D01*
X142339664Y-135444291D01*
X142175306Y-135334470D01*
X142035530Y-135194694D01*
X141925709Y-135030336D01*
X141850063Y-134847710D01*
X141811500Y-134653836D01*
X141811500Y-134456164D01*
X141850063Y-134262290D01*
X141925709Y-134079664D01*
X142035530Y-133915306D01*
X142175306Y-133775530D01*
X142339664Y-133665709D01*
X142522290Y-133590063D01*
X142692012Y-133556304D01*
X142716163Y-133551500D01*
X142913837Y-133551500D01*
X142937988Y-133556304D01*
X142937988Y-133556304D01*
G37*
G36*
X124551000Y-134176000D02*
X122749000Y-134176000D01*
X122749000Y-132374000D01*
X124551000Y-132374000D01*
X124551000Y-134176000D01*
X124551000Y-134176000D01*
G37*
G36*
X126300442Y-132380518D02*
X126366627Y-132387037D01*
X126479853Y-132421384D01*
X126536467Y-132438557D01*
X126571427Y-132457244D01*
X126692991Y-132522222D01*
X126702563Y-132530078D01*
X126830186Y-132634814D01*
X126912125Y-132734659D01*
X126942778Y-132772009D01*
X126942779Y-132772011D01*
X127026443Y-132928533D01*
X127026443Y-132928534D01*
X127077963Y-133098373D01*
X127095359Y-133275000D01*
X127077963Y-133451627D01*
X127047667Y-133551500D01*
X127026443Y-133621467D01*
X126952348Y-133760087D01*
X126942778Y-133777991D01*
X126913448Y-133813729D01*
X126830186Y-133915186D01*
X126728729Y-133998448D01*
X126692991Y-134027778D01*
X126692989Y-134027779D01*
X126536467Y-134111443D01*
X126479853Y-134128616D01*
X126366627Y-134162963D01*
X126300442Y-134169482D01*
X126234260Y-134176000D01*
X126145740Y-134176000D01*
X126079558Y-134169482D01*
X126013373Y-134162963D01*
X125900147Y-134128616D01*
X125843533Y-134111443D01*
X125687011Y-134027779D01*
X125687009Y-134027778D01*
X125651271Y-133998448D01*
X125549814Y-133915186D01*
X125466552Y-133813729D01*
X125437222Y-133777991D01*
X125427652Y-133760087D01*
X125353557Y-133621467D01*
X125332333Y-133551500D01*
X125302037Y-133451627D01*
X125284641Y-133275000D01*
X125302037Y-133098373D01*
X125353557Y-132928534D01*
X125353557Y-132928533D01*
X125437221Y-132772011D01*
X125437222Y-132772009D01*
X125467875Y-132734659D01*
X125549814Y-132634814D01*
X125677437Y-132530078D01*
X125687009Y-132522222D01*
X125808573Y-132457244D01*
X125843533Y-132438557D01*
X125900147Y-132421384D01*
X126013373Y-132387037D01*
X126079558Y-132380518D01*
X126145740Y-132374000D01*
X126234260Y-132374000D01*
X126300442Y-132380518D01*
X126300442Y-132380518D01*
G37*
G36*
X142937988Y-131016304D02*
X143107710Y-131050063D01*
X143290336Y-131125709D01*
X143454694Y-131235530D01*
X143594470Y-131375306D01*
X143704291Y-131539664D01*
X143779937Y-131722290D01*
X143818500Y-131916164D01*
X143818500Y-132113836D01*
X143779937Y-132307710D01*
X143704291Y-132490336D01*
X143594470Y-132654694D01*
X143454694Y-132794470D01*
X143290336Y-132904291D01*
X143107710Y-132979937D01*
X142937988Y-133013696D01*
X142913837Y-133018500D01*
X142716163Y-133018500D01*
X142692012Y-133013696D01*
X142522290Y-132979937D01*
X142339664Y-132904291D01*
X142175306Y-132794470D01*
X142035530Y-132654694D01*
X141925709Y-132490336D01*
X141850063Y-132307710D01*
X141811500Y-132113836D01*
X141811500Y-131916164D01*
X141850063Y-131722290D01*
X141925709Y-131539664D01*
X142035530Y-131375306D01*
X142175306Y-131235530D01*
X142339664Y-131125709D01*
X142522290Y-131050063D01*
X142692012Y-131016304D01*
X142716163Y-131011500D01*
X142913837Y-131011500D01*
X142937988Y-131016304D01*
X142937988Y-131016304D01*
G37*
G36*
X150557988Y-131016304D02*
X150727710Y-131050063D01*
X150910336Y-131125709D01*
X151074694Y-131235530D01*
X151214470Y-131375306D01*
X151324291Y-131539664D01*
X151399937Y-131722290D01*
X151438500Y-131916164D01*
X151438500Y-132113836D01*
X151399937Y-132307710D01*
X151324291Y-132490336D01*
X151214470Y-132654694D01*
X151074694Y-132794470D01*
X150910336Y-132904291D01*
X150727710Y-132979937D01*
X150557988Y-133013696D01*
X150533837Y-133018500D01*
X150336163Y-133018500D01*
X150312012Y-133013696D01*
X150142290Y-132979937D01*
X149959664Y-132904291D01*
X149795306Y-132794470D01*
X149655530Y-132654694D01*
X149545709Y-132490336D01*
X149470063Y-132307710D01*
X149431500Y-132113836D01*
X149431500Y-131916164D01*
X149470063Y-131722290D01*
X149545709Y-131539664D01*
X149655530Y-131375306D01*
X149795306Y-131235530D01*
X149959664Y-131125709D01*
X150142290Y-131050063D01*
X150312012Y-131016304D01*
X150336163Y-131011500D01*
X150533837Y-131011500D01*
X150557988Y-131016304D01*
X150557988Y-131016304D01*
G37*
G36*
X159716821Y-131291313D02*
X159716824Y-131291314D01*
X159716825Y-131291314D01*
X159877239Y-131339975D01*
X159877241Y-131339976D01*
X159877244Y-131339977D01*
X160025078Y-131418995D01*
X160154659Y-131525341D01*
X160261005Y-131654922D01*
X160340023Y-131802756D01*
X160388687Y-131963179D01*
X160405117Y-132130000D01*
X160388687Y-132296821D01*
X160388686Y-132296824D01*
X160388686Y-132296825D01*
X160361321Y-132387037D01*
X160340023Y-132457244D01*
X160261005Y-132605078D01*
X160154659Y-132734659D01*
X160025078Y-132841005D01*
X159877244Y-132920023D01*
X159877241Y-132920024D01*
X159877239Y-132920025D01*
X159716825Y-132968686D01*
X159716824Y-132968686D01*
X159716821Y-132968687D01*
X159591804Y-132981000D01*
X159508196Y-132981000D01*
X159383179Y-132968687D01*
X159383176Y-132968686D01*
X159383175Y-132968686D01*
X159222761Y-132920025D01*
X159222759Y-132920024D01*
X159222756Y-132920023D01*
X159074922Y-132841005D01*
X158945341Y-132734659D01*
X158838995Y-132605078D01*
X158759977Y-132457244D01*
X158738680Y-132387037D01*
X158711314Y-132296825D01*
X158711314Y-132296824D01*
X158711313Y-132296821D01*
X158694883Y-132130000D01*
X158711313Y-131963179D01*
X158759977Y-131802756D01*
X158838995Y-131654922D01*
X158945341Y-131525341D01*
X159074922Y-131418995D01*
X159222756Y-131339977D01*
X159222759Y-131339976D01*
X159222761Y-131339975D01*
X159383175Y-131291314D01*
X159383176Y-131291314D01*
X159383179Y-131291313D01*
X159508196Y-131279000D01*
X159591804Y-131279000D01*
X159716821Y-131291313D01*
X159716821Y-131291313D01*
G37*
G36*
X134266821Y-131216313D02*
X134266824Y-131216314D01*
X134266825Y-131216314D01*
X134427239Y-131264975D01*
X134427241Y-131264976D01*
X134427244Y-131264977D01*
X134575078Y-131343995D01*
X134704659Y-131450341D01*
X134811005Y-131579922D01*
X134890023Y-131727756D01*
X134938687Y-131888179D01*
X134955117Y-132055000D01*
X134938687Y-132221821D01*
X134938686Y-132221824D01*
X134938686Y-132221825D01*
X134912634Y-132307708D01*
X134890023Y-132382244D01*
X134811005Y-132530078D01*
X134704659Y-132659659D01*
X134575078Y-132766005D01*
X134427244Y-132845023D01*
X134427241Y-132845024D01*
X134427239Y-132845025D01*
X134266825Y-132893686D01*
X134266824Y-132893686D01*
X134266821Y-132893687D01*
X134141804Y-132906000D01*
X134058196Y-132906000D01*
X133933179Y-132893687D01*
X133933176Y-132893686D01*
X133933175Y-132893686D01*
X133772761Y-132845025D01*
X133772759Y-132845024D01*
X133772756Y-132845023D01*
X133624922Y-132766005D01*
X133495341Y-132659659D01*
X133388995Y-132530078D01*
X133309977Y-132382244D01*
X133287367Y-132307708D01*
X133261314Y-132221825D01*
X133261314Y-132221824D01*
X133261313Y-132221821D01*
X133244883Y-132055000D01*
X133261313Y-131888179D01*
X133309977Y-131727756D01*
X133388995Y-131579922D01*
X133495341Y-131450341D01*
X133624922Y-131343995D01*
X133772756Y-131264977D01*
X133772759Y-131264976D01*
X133772761Y-131264975D01*
X133933175Y-131216314D01*
X133933176Y-131216314D01*
X133933179Y-131216313D01*
X134058196Y-131204000D01*
X134141804Y-131204000D01*
X134266821Y-131216313D01*
X134266821Y-131216313D01*
G37*
G36*
X147727527Y-107928736D02*
X147827410Y-107948604D01*
X148109674Y-108065521D01*
X148363705Y-108235259D01*
X148579741Y-108451295D01*
X148749479Y-108705326D01*
X148866396Y-108987590D01*
X148926000Y-109287240D01*
X148926000Y-109592760D01*
X148866396Y-109892410D01*
X148749479Y-110174674D01*
X148579741Y-110428705D01*
X148363705Y-110644741D01*
X148109674Y-110814479D01*
X147827410Y-110931396D01*
X147727527Y-110951264D01*
X147527762Y-110991000D01*
X147222238Y-110991000D01*
X147022473Y-110951264D01*
X146922590Y-110931396D01*
X146640326Y-110814479D01*
X146386295Y-110644741D01*
X146170259Y-110428705D01*
X146000521Y-110174674D01*
X145883604Y-109892410D01*
X145824000Y-109592760D01*
X145824000Y-109287240D01*
X145883604Y-108987590D01*
X146000521Y-108705326D01*
X146170259Y-108451295D01*
X146386295Y-108235259D01*
X146640326Y-108065521D01*
X146922590Y-107948604D01*
X147022473Y-107928736D01*
X147222238Y-107889000D01*
X147527762Y-107889000D01*
X147727527Y-107928736D01*
X147727527Y-107928736D01*
G37*
G36*
X148926000Y-90501000D02*
X145824000Y-90501000D01*
X145824000Y-87399000D01*
X148926000Y-87399000D01*
X148926000Y-90501000D01*
X148926000Y-90501000D01*
G37*
G36*
X153026000Y-73326000D02*
X151124000Y-73326000D01*
X151124000Y-71424000D01*
X153026000Y-71424000D01*
X153026000Y-73326000D01*
X153026000Y-73326000D01*
G37*
G36*
X154892396Y-71460546D02*
X155065466Y-71532234D01*
X155221230Y-71636312D01*
X155353688Y-71768770D01*
X155457766Y-71924534D01*
X155529454Y-72097604D01*
X155566000Y-72281333D01*
X155566000Y-72468667D01*
X155529454Y-72652396D01*
X155457766Y-72825466D01*
X155353688Y-72981230D01*
X155221230Y-73113688D01*
X155065466Y-73217766D01*
X154892396Y-73289454D01*
X154708667Y-73326000D01*
X154521333Y-73326000D01*
X154337604Y-73289454D01*
X154164534Y-73217766D01*
X154008770Y-73113688D01*
X153876312Y-72981230D01*
X153772234Y-72825466D01*
X153700546Y-72652396D01*
X153664000Y-72468667D01*
X153664000Y-72281333D01*
X153700546Y-72097604D01*
X153772234Y-71924534D01*
X153876312Y-71768770D01*
X154008770Y-71636312D01*
X154164534Y-71532234D01*
X154337604Y-71460546D01*
X154521333Y-71424000D01*
X154708667Y-71424000D01*
X154892396Y-71460546D01*
X154892396Y-71460546D01*
G37*
G36*
X157432396Y-71460546D02*
X157605466Y-71532234D01*
X157761230Y-71636312D01*
X157893688Y-71768770D01*
X157997766Y-71924534D01*
X158069454Y-72097604D01*
X158106000Y-72281333D01*
X158106000Y-72468667D01*
X158069454Y-72652396D01*
X157997766Y-72825466D01*
X157893688Y-72981230D01*
X157761230Y-73113688D01*
X157605466Y-73217766D01*
X157432396Y-73289454D01*
X157248667Y-73326000D01*
X157061333Y-73326000D01*
X156877604Y-73289454D01*
X156704534Y-73217766D01*
X156548770Y-73113688D01*
X156416312Y-72981230D01*
X156312234Y-72825466D01*
X156240546Y-72652396D01*
X156204000Y-72468667D01*
X156204000Y-72281333D01*
X156240546Y-72097604D01*
X156312234Y-71924534D01*
X156416312Y-71768770D01*
X156548770Y-71636312D01*
X156704534Y-71532234D01*
X156877604Y-71460546D01*
X157061333Y-71424000D01*
X157248667Y-71424000D01*
X157432396Y-71460546D01*
X157432396Y-71460546D01*
G37*
G36*
X143307396Y-71260546D02*
X143480466Y-71332234D01*
X143636230Y-71436312D01*
X143768688Y-71568770D01*
X143872766Y-71724534D01*
X143944454Y-71897604D01*
X143981000Y-72081333D01*
X143981000Y-72268667D01*
X143944454Y-72452396D01*
X143872766Y-72625466D01*
X143768688Y-72781230D01*
X143636230Y-72913688D01*
X143480466Y-73017766D01*
X143307396Y-73089454D01*
X143123667Y-73126000D01*
X142936333Y-73126000D01*
X142752604Y-73089454D01*
X142579534Y-73017766D01*
X142423770Y-72913688D01*
X142291312Y-72781230D01*
X142187234Y-72625466D01*
X142115546Y-72452396D01*
X142079000Y-72268667D01*
X142079000Y-72081333D01*
X142115546Y-71897604D01*
X142187234Y-71724534D01*
X142291312Y-71568770D01*
X142423770Y-71436312D01*
X142579534Y-71332234D01*
X142752604Y-71260546D01*
X142936333Y-71224000D01*
X143123667Y-71224000D01*
X143307396Y-71260546D01*
X143307396Y-71260546D01*
G37*
G36*
X140767396Y-71260546D02*
X140940466Y-71332234D01*
X141096230Y-71436312D01*
X141228688Y-71568770D01*
X141332766Y-71724534D01*
X141404454Y-71897604D01*
X141441000Y-72081333D01*
X141441000Y-72268667D01*
X141404454Y-72452396D01*
X141332766Y-72625466D01*
X141228688Y-72781230D01*
X141096230Y-72913688D01*
X140940466Y-73017766D01*
X140767396Y-73089454D01*
X140583667Y-73126000D01*
X140396333Y-73126000D01*
X140212604Y-73089454D01*
X140039534Y-73017766D01*
X139883770Y-72913688D01*
X139751312Y-72781230D01*
X139647234Y-72625466D01*
X139575546Y-72452396D01*
X139539000Y-72268667D01*
X139539000Y-72081333D01*
X139575546Y-71897604D01*
X139647234Y-71724534D01*
X139751312Y-71568770D01*
X139883770Y-71436312D01*
X140039534Y-71332234D01*
X140212604Y-71260546D01*
X140396333Y-71224000D01*
X140583667Y-71224000D01*
X140767396Y-71260546D01*
X140767396Y-71260546D01*
G37*
G36*
X138901000Y-73126000D02*
X136999000Y-73126000D01*
X136999000Y-71224000D01*
X138901000Y-71224000D01*
X138901000Y-73126000D01*
X138901000Y-73126000D01*
G37*
G36*
X148056632Y-44379677D02*
X148488495Y-44558561D01*
X148793868Y-44685050D01*
X149452889Y-45125394D01*
X149457365Y-45128385D01*
X150021615Y-45692635D01*
X150021617Y-45692638D01*
X150464950Y-46356132D01*
X150464950Y-46356133D01*
X150770323Y-47093368D01*
X150926000Y-47876010D01*
X150926000Y-48673990D01*
X150770323Y-49456632D01*
X150591439Y-49888495D01*
X150464950Y-50193868D01*
X150024606Y-50852889D01*
X150021615Y-50857365D01*
X149457365Y-51421615D01*
X149457362Y-51421617D01*
X148793868Y-51864950D01*
X148488495Y-51991439D01*
X148056632Y-52170323D01*
X147273990Y-52326000D01*
X146476010Y-52326000D01*
X145693368Y-52170323D01*
X145261505Y-51991439D01*
X144956132Y-51864950D01*
X144292638Y-51421617D01*
X144292635Y-51421615D01*
X143728385Y-50857365D01*
X143725394Y-50852889D01*
X143285050Y-50193868D01*
X143158561Y-49888495D01*
X142979677Y-49456632D01*
X142824000Y-48673990D01*
X142824000Y-47876010D01*
X142979677Y-47093368D01*
X143285050Y-46356133D01*
X143285050Y-46356132D01*
X143728383Y-45692638D01*
X143728385Y-45692635D01*
X144292635Y-45128385D01*
X144297111Y-45125394D01*
X144956132Y-44685050D01*
X145261505Y-44558561D01*
X145693368Y-44379677D01*
X146476010Y-44224000D01*
X147273990Y-44224000D01*
X148056632Y-44379677D01*
X148056632Y-44379677D01*
G37*
M02*
